<?xml version="1.0" encoding="utf-8"?>
<!-- Generator: Adobe Illustrator 23.0.2, SVG Export Plug-In . SVG Version: 6.00 Build 0)  -->
<svg version="1.1" id="Layer_1" xmlns="http://www.w3.org/2000/svg" xmlns:xlink="http://www.w3.org/1999/xlink" x="0px" y="0px"
	 viewBox="0 0 1000 1000" style="enable-background:new 0 0 1000 1000;" xml:space="preserve">
<g transform="translate(0.000000,1000.000000) scale(0.100000,-0.100000)">
	<path d="M7325.3,5648.1c-28.6,571.9,22.3,1209-20.7,1469.7c-6,217-12,573-12,790c0,339,3,427,23,625c25,254,24,426-4,530
		c-22,81-100,235-146,288c-47,53-134,101-226,124c-100,25-344,22-619-6c-241-26-375-25-640,4c-460,50-422,48-775,39
		c-184-5-474-9-645-9h-310l-160,34c-137,29-184,34-330,37c-116,2-192-1-240-10c-181-35-275-90-317-184c-55-123-67-367-68-1397
		c-1-986-13-1489-61-2450c-25-485-22-985,9-1535c11-201,15-388,12-515c-3-110-2-227,3-260c4-33,9-307,12-610c3-302,7-590,9-640
		c3-49,8-142,10-205c3-63,12-252,21-420c8-168,17-343,19-390c5-114,42-198,112-256c123-103,123-103,1014-69c369,13,436,16,605,21
		c632,18,1517-7,2150-61c264-22,407,6,529,107c65,53,85,100,88,208c3,104-7,285-22,388c-5,36-7,69-4,74c3,4,0,43-5,85
		c-6,43-13,112-16,154c-2,41-9,106-14,144c-6,38-8,71-6,75s-2,51-9,106c-8,54-13,113-13,129c0,17-3,341.5-9,393.5
		s7.5,116.4,1.5,190.4 M5669.2,9101.4c135-8,382-15,550-15c325-1,419-8,517-41c91-30,95.8-56.8,135.8-136.8l48.9-97.8l11.7-170.8
		c-1-99-32.5-293.7-37.5-431.7c-6-165,46.2-324.9,53.2-476.9c4-441-25-1160,7-1855c-102.7-1254.5-32.2-1438.4-36-1708.1
		c-8-148-30-299.9-30-338.9c0-40-4-73-9-73s-12,30-16,68c-3,37-15,150-25,252c-24,221-40,440-40,533c0,41-14,132-35,227
		c-19,87-35,181-35,207c-1,78-57,179-179,321c-71,82-123,112-317,182c-179,65-229,95-293,182c-30,39-66,76-85,85c-25,12-33,22-32,39
		c1,27,26,39,97,49c35,4,54,14,76,38c18,20,58,44,104,62c65,26,86,41,177,130c66,66,102,110,102,123c0,16,31,45,118,109
		c138,103,237,198,278,268c26,45,29,58,27,129c-2,52,6,120,22,201c48,234,53,486,15,650c-5,22-10,70-10,106c0,57-4,72-30,107
		c-24,33-32,59-42,133c-10,76-19,103-54,165c-101,177-267,374-316,374c-26,0-30,4-96,90c-14,18-40,34-65,42c-23,6-89,41-146,76
		c-258,160-504,241-824,273c-63,6-164,8-223,5c-60-3-147-8-194-10c-61-3-109-12-170-34c-195-68-277-111-483-255
		c-93-64-144-93-185-104c-82-22-105-36-198-125c-72-69-87-89-100-134c-11-40-25-61-54-84c-30-23-41-41-50-81c-7-29-41-113-76-188
		c-85-184-112-271-125-393c-5-56-23-161-39-233c-37-168-44-244-30-330c9-56,17-75,39-97c22-21,31-42,41-95c16-97,34-128,104-180
		c75-56,96-79,96-105c0-11,24-46,53-78c39-41,63-80,86-138c26-64,45-92,91-138c92-90,203-162,271-175c36-7,78-25,114-50
		c32-22,60-39,64-39c3,0,11-11,17-25c14-29,8-35-91-93c-54-31-83-58-129-117c-73-94-119-135-151-135c-18,0-39-18-81-71
		c-48-61-66-75-130-104c-44-20-74-40-74-49c0-10-14-18-37-22c-75-14-286-139-355-211c-74-77-101-191-78-333c13-81,22-767,11-822
		c-9-42-69,479-83,717c-11,198-84.1,508.6-62.1,848.6c-38,311.6,74.5,2113.7,83.1,2686.4c77.6,580.2,27.8,713.2,82,830
		c20,28,48,50,85,67c47.5-16.3,63.7,0.5,141,20c49-2-349.4,10-146.4,3c486.2-67.7,1439.5-30.9,1634.4,6
		C5040.2,9127.4,5287.2,9124.4,5669.2,9101.4z M5185.2,8851.4c118-15,244-43,359-79c41-13,115-29,164-35c66-9,107-21,160-48
		c289-144,670-495,771-708c21-46,29-80,35-169c4-61,20-158,35-216c19-74,28-142,32-231c5-113,3-134-20-215c-14-49-28-109-32-132
		c-6-40-9-43-31-38c-79,20-73,21-64-15c4-19,18-69,31-111l23-78l-23-72c-21-67-29-79-104-150c-79-76-110-91-134-67
		c-25,25-66-20-178-199c-91-147-167-196-452-291c-84-28-175-62-202-76c-29-14-67-25-91-25h-41l15,28c8,15,30,43,50,61
		c52,51,48,62-16,47c-66-16-106-36-188-96c-85-62-139-89-205-101c-100-18-242,20-337,92c-29,21-57,38-63,36c-5-2-11-18-13-35
		c-2-18-5-32-7-32c-30,0-199,78-323,149c-95,55-197,105-257,126c-162,58-198,92-249,241c-48,141-62,160-144,201c-64,31-79,44-109,92
		c-20,31-54,83-75,116c-35,52-39,64-34,98c6,36,30,89,58,129c19,27,0,34-37,14c-40-22-65-16-65,16c0,54,43,313,72,433
		c77,321,216,637,363,820c17,22,35,49,39,59c5,14,10,16,17,9c8-8,7-18-5-34c-17-25-21-64-8-73c17-10,56,20,67,53
		c14,44,48,77,155,152c297,210,675,366,890,368C5050.2,8865.4,5127.2,8859.4,5185.2,8851.4z M5620.2,5791.4c-4-20-16-57-27-83
		c-31-72-162-292-175-292c-27,0-67,48-105,128c-23,48-50,99-60,114c-26,36-24,59,9,100l27,35l130,12c127,11,181,16,199,20
		C5622.2,5825.4,5623.2,5810.4,5620.2,5791.4z M4582.2,5777.4c48-11,113-23,145-26c53-7,57-9,57-34c0-18-14-40-47-71
		c-60-58-98-119-114-181c-10-37-17-49-31-49c-40,0-75,30-108,92c-18,35-41,75-52,90c-19,27-22,73-12,152c6,44,8,46,40,46
		C4479.2,5796.4,4534.2,5787.4,4582.2,5777.4z M5776.2,5740.4c96-49,182-162,224-296c14-46,15-62,6-83c-14-31-67-55-121-55
		c-113,0-195-93-194-220c0-73,18-123,63-173l30-34l-15-51c-18-59-64-130-144-221c-128-147-393-532-476-692l-45-88l-30,10
		c-37,13-45,50-36,163c8,105,34,220,84,376c22,69,52,170,67,225c59,226,89,300,160,395c26,37,48,79,55,112c16,66,30,94,95,188
		c69,98,72,105,89,188c9,45,32,104,60,155c26,46,46,94,46,106C5694.2,5773.4,5713.2,5772.4,5776.2,5740.4z M4274.2,5616.4
		c8-33,40-92,95-174c73-109,84-131,94-192c7-38,28-108,47-156c50-126,150-485,170-613c13-84,30-139,70-235c81-195,87-215,89-325
		c3-98-4-125-30-125c-20,0-155,170-190,240c-32,64-58,92-193,208c-45,39-74,76-109,138c-45,82-74,113-155,176c-41,31-98,126-98,163
		c0,38,24,89,96,201c35,56,64,109,64,118c0,10-40,36-117,76c-145,73-153,79-153,119c0,47,36,146,76,208c39,61,211,236,224,228
		C4258.2,5668.4,4267.2,5643.4,4274.2,5616.4z M4779.2,5370.4c-3-23-17-60-31-80c-41-59-19-122,48-139c35-9,68-41,68-66
		c0-11-16-60-34-109c-19-49-38-105-42-125c-4-23-12-35-23-35c-12,0-26,36-60,162c-39,145-43,170-39,247c3,71,9,95,33,139
		c16,30,41,63,55,74l25,20l3-23C4784.2,5423.4,4783.2,5394.4,4779.2,5370.4z M5278.2,5327.4c16-17,16-27,6-96
		c-21-136-72-254-129-294c-48-34-51-30-51,81v102l48,45c54,51,76,87,86,144C5246.2,5351.4,5253.2,5354.4,5278.2,5327.4z
		 M4931.2,3531.4c21-5,46-24,69-52c35-43,36-44,26-96c-6-29-18-77-27-107c-11-38-19-124-25-275c-7-174-14-247-35-350
		c-41-197-42-264-10-433c14-79,30-201,34-271c7-106,12-137,34-185l27-58l-35-53c-56-89-55-89-280-80c-213,8-256,19-264,66
		c-2,13,5,68,15,121c15,83,16,110,6,180c-7,46-12,175-11,288c0,113-6,349-14,525c-8,195-10,353-5,405c4,47,7,145,6,218
		c-3,156,0,162,80,141c41-10,59-9,132,8C4740.2,3544.4,4865.2,3547.4,4931.2,3531.4z M6843.2,3530.4c41-24,52-47,41-86
		c-20-67-5-317,30-493c39-206,48-340,40-652c-3-114,17-259,61-453c25-111,36-189,48-328c7-71,16-121,26-135c8-12,15-31,15-44
		c0-29-40-74-65-74c-50,0-102,9-124,20c-18,10-30,10-62-3c-56-23-72-21-176,20l-92,37l-11,71c-19,124-21,129-65,142
		c-60,19-135,16-232-7c-63-14-101-18-133-13c-25,4-66,6-92,5c-26-2-62,3-81,10c-25,9-48,9-93,1c-78-13-107-7-129,30
		c-32,55-4,169,135,543c59,159,100,324,100,405c0,31,11,123,25,205c53,310,55,330,49,535c-3,107-7,196-10,199c-2,2-4,15-4,28
		c0,20,5,23,35,23c20,0,59-12,88-27c44-23,64-28,132-28c71,0,90,5,161,37c74,33,84,35,122,25c32-9,60-7,129,5c48,9,92,16,96,17
		C6812.2,3545.4,6828.2,3539.4,6843.2,3530.4z M3624.2,3524.4c200-25,303.1-53.4,321.1-62.4c25-13,132.9-106.6,175.9-162.6
		c43-54,91-235,103-385c15-178,14-772,0-800c-34-65-38-66-201-68l-150-2l-42,31c-67,48-77,72-67,155c14,105,11,262-5,330
		c-8,33-15,86-15,117s-9,105-21,165c-32,165-57,213-113,212c-17-1-40,1-51,3c-15,2-25-7-40-37c-37-76-44-525-10-700
		c14-73,16-113,10-210c-13-194-11-223,18-289c33-72,33-77,3-113l-25-29l-103,18c-57,11-130,24-163,30c-44,7-68,7-93-2
		c-20-7-53-9-88-4c-76,9-85,29-55,121c34,103,38,242,12,376c-27,139-26,189,4,284c29,92,31,154,10,314c-9,63-16,166-17,229
		c0,63-9,162-19,220c-9,58-20,131-23,162c-8,80,2,88,106,83c47-2,111,2,148,10C3305.2,3535.4,3521.2,3537.4,3624.2,3524.4z
		 M3913.2,2017.4c184-47,233-65,244-89c9-20,8-26-8-38c-23-17-71-17-202,0c-118,16-170,39-165,76
		C3788.2,2020.4,3832.2,2037.4,3913.2,2017.4z M4080.2,1829.4c115-16,149-68,69-108c-48-23-80-24-205-6c-77,11-99,18-117,38
		c-25,27-30,62-10,82C3830.2,1848.4,3965.2,1845.4,4080.2,1829.4z M4142.2,1661.4c41-4,82-30,82-53c0-22-41-54-90-71
		c-41-14-297-5-317,12c-7,5-13,27-13,48c0,48,18,59,97,59c32,0,76,4,98,9s56,7,75,4S4124.2,1663.4,4142.2,1661.4z M3367.2,1652.4
		c85-14,130-40,135-75c8-53-44-63-189-37c-44,8-105,12-143,9c-63-6-69-4-96,22c-32,31-36,45-20,75c9,16,24,18,122,19
		C3238.2,1666.4,3324.2,1660.4,3367.2,1652.4z M3470.2,1458.4c11-6,26-22,34-37c13-24,12-28-17-56l-30-30l-119,11c-85,8-127,8-147,1
		c-52-20-116,32-103,84c5,18,16,26,49,33C3193.2,1476.4,3444.2,1472.4,3470.2,1458.4z M4062.2,1449.4c40-7,94-55,86-77
		c-3-9-21-25-40-36c-32-20-38-21-176-10c-80,7-160,19-180,28c-21,8-38,16-38,17c0,2,7,19,15,38c12,28,22,37,47,42
		C3859.2,1464.4,3977.2,1464.4,4062.2,1449.4z M6048.2,1451.4c75-1,80-3,107-33c34-38,37-67,10-82c-28-14-118-13-177,4
		c-27,7-65,14-84,15c-73,3-140,37-140,71c0,35,21,41,115,34C5928.2,1456.4,6005.2,1452.4,6048.2,1451.4z M4881.2,1447.4
		c40-1,58-7,80-26l28-25l-27-24c-36-32-149-44-323-34c-72,4-142,30-152,55c-3,8,2,22,12,33
		C4521.2,1451.4,4590.2,1455.4,4881.2,1447.4z M4822.2,1265.4c79-11,158-17,175-14c19,4,47,0,67-8c52-22,159-31,207-18
		c23,6,59,13,80,16c179,19,170,19,181-1c5-11,15-43,21-72c9-42,8-59-3-87c-10-24-13-56-9-109c9-122-3-132-192-140
		c-44-2-115-9-157-17c-70-11-83-11-135,5c-32,10-68,24-80,32c-31,20-39,99-19,187c9,38,16,72,16,77c0,19-45,32-114,35
		c-204,8-313,18-333,31c-16,10-23,24-23,47c0,27,6,34,38,49C4583.2,1297.4,4599.2,1296.4,4822.2,1265.4z M3779.2,1269.4
		c88-1,171-2,185-2c48,0,111-24,127-47c45-69-37-107-183-84c-47,7-109,10-143,7c-41-5-83-2-127,9c-37,8-78,12-93,9
		c-14-3-110-7-212-10c-170-3-188-2-217,15c-22,13-32,27-32,44c0,46,18,50,257,57c123,4,227,10,231,13c3,4,15,3,26-1
		C3610.2,1275.4,3691.2,1270.4,3779.2,1269.4z M5986.2,1211.4c81,0,131-4,138-11c19-19,7-65-22-87c-28-21-56-22-288-13
		c-96,4-89,2-100,31c-10,27,2,73,23,88c7,4,37,4,67,0S5916.2,1211.4,5986.2,1211.4z M6903.2,1192.4c31-8,68-17,83-21
		c15-3,40-16,55-29c24-21,26-27,18-52c-18-53-70-69-222-68c-73,1-152,7-177,14c-42,12-46,15-46,44c0,17,4,37,9,45
		c8,12,177,77,210,80C6841.2,1205.4,6873.2,1200.4,6903.2,1192.4z M4704.2,1107.4c30-4,80-5,110-1c66,9,96-1,112-35
		c10-22,8-29-15-53c-46-48-93-54-216-26c-183,42-211,57-191,109c10,27,11,28,78,21C4619.2,1119.4,4674.2,1112.4,4704.2,1107.4z
		 M3529.2,1010.4c126-5,193-3,223,5c55,15,98,6,119-25c14-23,14-26-3-46c-54-60-220-86-389-61c-163,24-197,26-253,13l-53-12l-45,37
		c-49,40-49,52,2,86c26,18,40,20,124,15C3306.2,1019.4,3430.2,1013.4,3529.2,1010.4z M5981.2,965.4c91-13,137-30,152-57
		c8-16,5-23-21-42c-18-13-50-27-72-31c-58-10-306,9-333,26c-30,20-38,51-19,80c14,22,24,25,98,28c46,1,91,4,100,5
		S5938.2,971.4,5981.2,965.4z M4709.7,943.4c171-12,204.4-43,86.4-88c-80-30-235-38-281-14c-30,15-33,20-28,51
		c3,20,4.7,32.1-1.3,32.1s-10.7,20.1-7.7,25.1C4486.1,961.6,4546.7,955.4,4709.7,943.4z M7043.2,892.4c17-18,22-32,17-50
		c-12-47-47-55-254-60c-188-5-192-5-207,17c-8,12-15,31-15,42c0,45,12,49,172,61C7006.2,920.4,7017.2,920.4,7043.2,892.4z"/>
	<path d="M4565,8683c-43-11-105-55-105-75c0-23,1-23,182,15c99,20,108,24,108,45s-3,22-82,21C4622,8688,4576,8685,4565,8683z"/>
	<path d="M4054,8000c-117-57-162-100-351-337c-64-80-143-175-175-211c-35-40-58-75-58-89c0-28,0-28,54-3c77,37,168,123,308,291
		c75,90,171,195,213,233c81,73,138,143,129,157C4166,8054,4164,8053,4054,8000z"/>
	<path d="M4441,8030c-152-40-285-131-461-314c-167-175-284-290-383-379c-72-65-127-135-127-162c0-11,42-4,73,11c18,9,59,42,92,74
		s84,69,112,83c31,16,58,39,71,60c11,19,66,75,123,125s147,137,200,194c71,76,118,116,176,151c105,63,188,96,240,97c23,0,65,5,93,11
		c42,9,50,14,50,34c0,17-7,24-31,29C4612,8055,4516,8049,4441,8030z"/>
	<path d="M5097,8033c-14-16-16-26-8-47c6-14,12-26,14-26c1,0,67-11,145-25c156-27,229-55,340-129c87-58,221-181,357-328
		c60-65,115-118,123-118c23,0,6,96-26,152c-31,54-258,271-376,359c-141,107-292,163-466,175C5124,8052,5113,8050,5097,8033z"/>
	<path d="M4815,7519c-38-5-123-27-187-49s-152-45-195-51c-97-13-183-52-318-144c-55-38-118-81-140-96s-56-31-75-36
		c-25-7-36-16-38-31c-5-30-36-48-104-61c-78-14-113-33-180-99c-52-51-58-60-57-97c1-38,7-46,132-162c154-143,231-206,344-279
		c102-68,179-104,221-104c21,0,32-5,32-15c0-31,143-90,312-129c137-31,287-49,413-49c121,0,137,2,225,33c254,87,466,188,540,256
		c97,90,219,153,352,183c54,13,112,32,130,44c73,49,101,174,55,248c-25,42-54,67-147,129c-36,24-123,101-194,172
		c-151,150-231,213-341,267c-156,76-186,81-464,80C4996,7528,4854,7524,4815,7519z M5245,7359c68-41,82-67,90-164
		c8-109-7-203-41-262c-46-79-199-164-351-193c-88-17-238-9-284,16c-20,10-74,54-119,96l-83,77l5,98c5,110,14,132,90,233l49,65l96,12
		c58,8,102,9,112,3c9-5,21-33,27-66c10-50,10-61-5-81c-20-29-49-29-107,0l-35.2-12.8l-38.8,0.8c-30-35-50-98-50-154
		c0-27,11-46,55-94c69-77,136-108,209-99c143,17,326,177,326,286c0,17-6,43-14,58c-16,31-100,113-134,131c-27,14-30,51-4,52
		c9,0,33,6,52,13C5133,7390,5205,7383,5245,7359z M5571,7296c114-30,241-114,293-192c47-72,56-114,43-215c-13-107-45-174-117-245
		c-65-63-273-196-377-241c-163-71-366-103-657-103c-110,0-132,3-212,30c-50,16-179,75-288,130c-203,102-216,112-288,211
		c-18,24-43,57-55,72c-19,24-24,44-28,127l-5,98l109,54c65,32,117,65,131,82c23,29,118,73,180,83l30,5v-114c0-111,1-116,37-190
		c115-232,403-346,693-273c92,23,221,92,281,150c94,92,139,219,150,426c5,76,11,119,18,119C5515,7310,5543,7304,5571,7296z
		 M6065,6869c28-20,62-41,78-44c27-7,35-28,18-53c-7-11-80-32-175-49c-28-6-28-5-23,28c4,19,9,64,13,101
		C5984,6929,5986,6929,6065,6869z"/>
	<path d="M6316,2359c-3-19-8-59-11-89c-10-95-36-241-51-283c-8-22-12-42-10-45c3-2,30,8,62,22l56,26l-6,62c-4,35-10,123-15,196
		C6331,2387,6325,2415,6316,2359z"/>
</g>
</svg>
