<svg xmlns="http://www.w3.org/2000/svg" xmlns:xlink="http://www.w3.org/1999/xlink" width="1000" height="1000" viewBox="0 0 1000 1000">
  <metadata><?xpacket begin="﻿" id="W5M0MpCehiHzreSzNTczkc9d"?>
<x:xmpmeta xmlns:x="adobe:ns:meta/" x:xmptk="Adobe XMP Core 5.6-c138 79.159824, 2016/09/14-01:09:01        ">
   <rdf:RDF xmlns:rdf="http://www.w3.org/1999/02/22-rdf-syntax-ns#">
      <rdf:Description rdf:about=""/>
   </rdf:RDF>
</x:xmpmeta>
                                                                                                    
                                                                                                    
                                                                                                    
                                                                                                    
                                                                                                    
                                                                                                    
                                                                                                    
                                                                                                    
                                                                                                    
                                                                                                    
                                                                                                    
                                                                                                    
                                                                                                    
                                                                                                    
                                                                                                    
                                                                                                    
                                                                                                    
                                                                                                    
                                                                                                    
                                                                                                    
                           
<?xpacket end="w"?></metadata>
<defs>
    <style>
      .cls-1 {
        fill: #e93a3a;
        filter: url(#filter);
      }

      .cls-1, .cls-2, .cls-3 {
        fill-rule: evenodd;
      }

      .cls-3 {
        fill: #fff;
      }
    </style>
    <filter id="filter" x="270" y="65" width="436" height="583" filterUnits="userSpaceOnUse">
      <feGaussianBlur result="blur" stdDeviation="9.667" in="SourceAlpha"/>
      <feFlood result="flood" flood-opacity="0.5"/>
      <feComposite result="composite-2" operator="out" in2="blur"/>
      <feComposite result="composite" operator="in" in2="SourceAlpha"/>
      <feBlend result="blend" in2="SourceGraphic"/>
    </filter>
  </defs>
  <path id="Bg_color" data-name="Bg color" class="cls-1" d="M291.177,65l-6.228,151.979L270,476.09l11.211,147L395.817,648l210.526-22.423,74.743,13.7,21.177-44.846L706,385.152l-6.229-188.1-4.983-94.675-27.4-29.9-85.954-3.737L448.137,65,343.5,71.229Z"/>
  <path id="Border_merge" data-name="Border merge" class="cls-2" d="M392.171,48.61c38.549,0.2,75.12-1.5,93.523-2.46,28.946-1.5,69.221,7.056,103.368,7.38,31.718,0.29,91.958-16.388,110.312,10.215,19.654,28.484,15.008,47.98,11.321,87.245-4.073,43.364,1.108,142.928,1.289,187.1,0.311,74.695-.077,85.68.772,159.381,0.924,80.692-5.924,87.8-7.59,153.4-1.339,52.638-25.049,68.681-25.042-2.048,0-44.4,4.961-88.6,5.8-163.493,0.566-49.978,3.454-121.581,3.454-149.573,0-68.6-1.6-101.87-3.184-136.54-1.935-42.088,5.788-63.751.7-87.986C679.03,73.819,630.863,83.071,586.6,81.818c-34.963-.977-83.907-6.4-108.29-2.46-27.075,4.369-85.932,2.909-116.9,2.46-29.026-.4-51.322-11.959-62.7,22.129-5.507,16.508-.869,98.767-0.869,114.611,0,52.577.009,121.772,0.353,173.273,0.3,44.729-3.756,63.123-4.192,105.8-0.739,73.8,11.284,86.657,8.463,151.877-2.92,67.644-31.863,80.393-32.053,37.11-0.374-83.931-9.457-144.68-5.368-223.41,4.8-92.469,7.115-146.4,7.013-239.679-0.034-32.721-.264-77.846.753-109.728,0.788-24.694-.314-46.757,7.384-59.038,0,0,6.173-14.19,49.222-14.759C348.6,39.746,373.666,48.514,392.171,48.61Z"/>
  <path id="Dna_BG" data-name="Dna BG" class="cls-2" d="M297.879,627.028c95.881,16.608,256.218-2.926,375.771-3.9,20.159,0.279,32.713,9.026,32.032,23.7-3.312,60.666,19.359,176.315,28.134,265.163q0.124,1.011.168,2T734,915.938a22.973,22.973,0,0,1-3,10.628,31.773,31.773,0,0,1-10.967,10.984c-9.522,5.99-22.935,9.306-37.127,8.766-166.073-6.91-251.225,6.718-361.024,13.649q-0.849.043-1.692,0.045c-0.562,0-1.122-.011-1.68-0.036q-1.673-.075-3.311-0.308a35.567,35.567,0,0,1-6.364-1.5,35.964,35.964,0,0,1-11.154-6.115c-6.529-5.283-11-12.763-11.726-21.016-2.911-34.44-6.722-68.359-9.976-108.735-0.812-10.092-1.587-20.585-2.294-31.581s-1.345-22.493-1.88-34.587c-1.072-24.178-1.719-50.773-1.67-80.287,0.074-14.576,3.513-27.919,8.394-36.857,2.461-4.483,5.319-7.894,8.538-9.966a14.346,14.346,0,0,1,5.116-2.081,13.745,13.745,0,0,1,2.775-.237q0.714,0.01,1.445.092t1.483,0.236h0Z"/>
  <path id="DLA" class="cls-3" d="M383.689,905.141l-1.5.036,0.013,0.56,1.5-.036ZM402.3,893.1a1.194,1.194,0,0,0-.77-0.916,12.885,12.885,0,0,0-2.422.432,12.859,12.859,0,0,1-2.609.437l-0.734.578-3.585-1.222-15.146.364a2.724,2.724,0,0,0-1.389.6,1.661,1.661,0,0,1-1.394.407q0.381,0.367-4.479.482a3.293,3.293,0,0,1-1.5-.338,39.328,39.328,0,0,1-9.577-1.452,95.844,95.844,0,0,1-15.462,2.8q0.175-.376-1.118.214l-16.834.218,0.552-.387-2.613.25q-0.552.39-9.141,1.155-5.6.694-5.47,5.927,0.085,3.552,9.681,5.75,19.024-2.513,29.7-1.837,2.791-.627,4.279-1.037l2.805-.068-0.753-.169q4.465-1.039,3.9-1.028,0.934-.023,14.289,2.834l3.348-.828-1.314-.156,7.1-.544-1.318-.342,7.662-.372q2.469,1.623,7.334,1.506a33.291,33.291,0,0,1,6.366.221,17.5,17.5,0,0,1,6.135-1.643l-1.5-.338,2.8-.254a5.921,5.921,0,0,0,1.958-4.16Q410.93,894.2,402.3,893.1h0Zm-52.363,1.073-2.431.059,0.014,0.56,2.431-.058ZM332.184,887.5l-1.5.036,0.013,0.56,1.5-.036Zm2.05,7.429-1.5.036,0.014,0.56,1.5-.036Zm-2.617.063-1.5.036,0.013,0.56,1.5-.036Zm56.829,25.088q-1.257-1.557-1.642-2.111a3.757,3.757,0,0,1-3.958-1.214q-9.289,2.844-8.539,2.823-9.164.22-10.463,0.626-0.946-.35-9.732-0.14l-1.291.779L349.8,919.6a14.452,14.452,0,0,1-8.6.207l-0.921.583q-5.062-.438-21.7-0.038-2.244.054-5.086,2.459t-3.158,4.843q5.9,4.345,9.133,6.324a34.7,34.7,0,0,0,8.188-1.879,21.207,21.207,0,0,1,8.779-.585l0.922-.584,3.384,0.667-1.861.419q14.64,1.89,15.2,1.877l1.683-.04,1.477-.783a6.338,6.338,0,0,0,3.4,1.413,3.935,3.935,0,0,0,1.492-.223l0.716-1.325a13.363,13.363,0,0,0,3.562.288,44.513,44.513,0,0,0,14.71-2.972q8.711-3.385,8.609-7.685A4.77,4.77,0,0,0,388.446,920.077Zm23.019-213.41q-4.417-12.417-4.447-13.728-5.6-7.156-9.054-10.813l-3.033-1.61q-4.039-4.573-6.337-6.765a35.857,35.857,0,0,1-6.061-3.032l-4.118-.088q-8.612-.165-9.185-0.714l-3.357.455q-6.234-2.466-17.08-2.207l-0.953-.725q-6.314,2.023-6.919.167l-12.9.31a72.489,72.489,0,0,0-10.616,2.032,67.3,67.3,0,0,1-11.738,2.058,12.71,12.71,0,0,1-2.436-.128,1.326,1.326,0,0,1-1.286.966,7.725,7.725,0,0,1-1.314-.156,8.275,8.275,0,0,0-1.5-.15l-0.575-.547-2.244.054-1.108.587q-6.772-1.52-6.651,3.525,0.216,8.97,6.21,32.569a29.868,29.868,0,0,0-.4,6.74q0.186,7.665,3.037,25.074t2.9,19.654q0.108,4.485-2.309,12.863t-2.319,12.488q0.122,5.046,3,15.726t3.007,16.1q0.4,16.634-4.556,28.341l2.156,4.061,2.846,1.615q1.848-.791,10.485.308a4.71,4.71,0,0,1,4.238-2.719,24.785,24.785,0,0,1,7.885,1.119l1.67-.6a11.292,11.292,0,0,1,5.093,1.747,58.605,58.605,0,0,1,9,.811,57.816,57.816,0,0,0,8.627.821q2.055-.05,4.037-3.275a9.121,9.121,0,0,0,1.566-4.9q-6.441-11.062-6.576-16.668-0.086-3.548.571-11.232a115.624,115.624,0,0,0,.563-11.605q-0.139-5.79-2.747-16.947t-2.74-16.667q-0.133-5.51-.8-21.575t-0.8-21.668q-0.063-2.615,1.866-7.991t3.8-5.42a5.826,5.826,0,0,1,3.968,1.587,5.484,5.484,0,0,1,3.708-1.4q4.86-.117,9.385,16.788,3.511,13.754,3.7,21.6a49.976,49.976,0,0,0,2.045,11.075,49.776,49.776,0,0,1,2.03,10.515q0.594,24.664-.8,28.811a67.195,67.195,0,0,0,4.45,6.063,79.031,79.031,0,0,1,7.419,5.056q1.274-1.337,1.874.142l9.537-.229q1.28-1.154,15.494-1.5l1.509,0.525q4.111-.1,8.528-11.049-2.465-16.767-3.254-49.654-0.774-32.135-5.987-46.6h0ZM412.221,823.5q-15.649-4.855-24.262-5.212l0.926-.4a8.046,8.046,0,0,1-2.821-.587,8.437,8.437,0,0,0-3.008-.582q-5.236.126-6.66,3.152-0.7,2.076-1.392,4.333l0.04,1.682a96.983,96.983,0,0,0,10.585,4.419q3.366-.081,10.487.4t10.488,0.4q7.665-.185,7.764-3.926Zm5.686,18.559-0.825-3.158a29.726,29.726,0,0,1-6.626-3.206l-9.724.234-1.71-1.081-5.614-.052-2.23.615-2.819-.493-2.6.623-2.071-.511q-5.237.126-5.146,3.863l0.081,3.364a54.821,54.821,0,0,1,4.427,5.128l1.314,0.155q3.177-.076,3.174-0.263a57.521,57.521,0,0,1,9.281.8,56.212,56.212,0,0,0,8.72.818,20.773,20.773,0,0,0,7.711-2.242q4.719-2.168,4.661-4.6h0Zm-5.189,9.847-2.039.8-5.268-1.182-3.553.085q-0.156,1.314-2.96,1.38a16.865,16.865,0,0,0-7.074,1.479q-13.142-1.739-13,4.239,0.117,4.862.879,5.4l1.162,1.655,17.017-.41q1.338,1.278,4.893,1.191,7.478-.18,10.058-1.924l2.609-.437a75.768,75.768,0,0,1,6.231-5.385h0q-0.115-4.857-8.959-6.889h0Zm0.033,24.678-3.972-1.774,0.739-.392q1.118-.21-6.2-0.972l1.117-.214q-8.6.207-11.424-.473a15.283,15.283,0,0,1-5.4,1.252q-11.583.839-12.132,1.226l0.943,0.351-2.613.25q-1.9,6.777-1.944,4.721l0.209,0.93-1.651,1.348q6.633,3.583,9.448,3.886,0.548-.574,6.728-0.349,6.175,0.04,7.5.568-0.185.192,10.1-.056l5.418-.318a6.63,6.63,0,0,1,3.114-2.786,3.676,3.676,0,0,0,2.156-3.7ZM350.065,853.04l-1.683.04,0.014,0.561,1.683-.041Zm-6.8,5.024,0.739-.392-3.936-.279,1.113-.4-2.613.249q-4.353-1.95-26.4-.86l-1.108.587-3.193-.484q-4.864.117-4.708,6.47,5.193,5.862,8.558,5.777a30.479,30.479,0,0,0,5.127-.778,30.835,30.835,0,0,1,5.127-.777,29.162,29.162,0,0,1,4.877.537,29.512,29.512,0,0,0,5.345.526,34.3,34.3,0,0,1,5.626.519,33.969,33.969,0,0,0,5.532.521q6.732-.162,6.593-5.955h0q-0.054-2.241-6.676-5.261h0Zm6.283,20.041q-4.022-3.83-4.943-3.247L341.4,874l-5.766,1.447q-1.328-.712-13.481-0.423l-1.291.779-3.01-.676-3.148,1.385-1.322-.529a5.951,5.951,0,0,1-3.709,1.4l-1.793,3.222,1.02,3.528q3.659,4.4,8.158,4.664a17.9,17.9,0,0,1,8.366-2.257,6.683,6.683,0,0,1,2.44.315l-1.3.405q16.276-.015,18.548,1.049,0.365-.381,3.664-3.266,2.377-2.112,2.332-4.169Zm143.992-57.5q-0.252-10.461-4.176-25.793t-4.034-20q-0.153-6.351,2.532-23.058t2.523-23.431q-0.909-37.74-.6-24.851,0.1-17.2,4.116-23.282l-0.238-9.9q-6.93-8.059-8.8-8.015l-1.113.4-5.294-2.3-3.335,1.389-2.818-.494-1.483.6a9.542,9.542,0,0,0-3.379-.48q-3.366.081-10.792,2.5t-9.857,2.48a11.365,11.365,0,0,1-3.575-.848,11.444,11.444,0,0,0-3.575-.849,7.665,7.665,0,0,0-6.464,3.521q2.478,2,2.8,15.263,0.113,4.673-.317,14.03t-0.317,14.029q0.1,4.113,1.049,12.5t1.05,12.5q0.225,9.345,2.439,31.351t2.43,30.977a42.836,42.836,0,0,1-.344,5.149,42.641,42.641,0,0,0-.339,5.337,62.574,62.574,0,0,0,1.873,11.734,62.593,62.593,0,0,1,1.868,11.546l-2.706,19.7q-0.5,2.632,3.483,4.777a14.876,14.876,0,0,0,7.347,2.067,4.828,4.828,0,0,0,1.491-.223l2.075,0.7a22.691,22.691,0,0,1,9.519-.977q9,0.906,9.564.892,13.275-.32,16.4-2.638,2.021-1.543,8.47-13.478h0q-7.115-7.681-7.476-22.817h0Zm1.214,50.264q-22.655-.577-19.849-0.644l-2.6,1a20.632,20.632,0,0,0-8.05-.18q-7.082,1.291-8.2,1.319l-4.132-.649-4.184,4.962q0.256,2.986,12.883,6.608l5.578-1.443,6.015,1.164q0.552-.385,14.55-1.846,11.2-1.2,11.062-6.81h0ZM555.33,892.6q-1.46-5.947-5.211-5.858a6.27,6.27,0,0,0-2.426.619l-1.7-.519-4.657,1.607-1.506-.15-2.414.992-1.71-.706-3.9,1.776-1.324-.342q-5.582,2.194-7.644,2.241,0.561-.014-15.99-1.3,0.327-1.875-5.676-1.733l-3.542,1.02q-26.341-2.171-27.109-2.9l-2.049.61-1.892-.516-2.05.611-3.231-1.605-1.107.774-1.146-.72-6.3,3.517-1.892-.516-0.28,3.933q0.171,7.1,9.971,6.865l1.49-.784,6.606,0.215,1.334,0.529q11.1-.828,17.56.886l2.789-1.563q8.513,1.3,8.191,3.376L495.724,919q-0.009-.377,2.292,9.719,1.9,1.463,8.6,3.46t8.738,1.574l16.37-3.946,1.7,0.707a24.465,24.465,0,0,0,5.309-.969,24.424,24.424,0,0,1,5.309-.969l3.95,0.84a15.738,15.738,0,0,1,5.934-2.2q2.89-4.179,2.114-5.472a33.576,33.576,0,0,0,.444-4.872,14.9,14.9,0,0,0-.841-3.813,14.761,14.761,0,0,1-.84-3.812q-0.054-2.243,2.42-8.285h0q-1.037-4.085-1.891-8.367h0Zm-68.383,11.554-1.483.6-1.322-.529-2.222.989a49.682,49.682,0,0,1-21.184-1.734l-1.848.979q-6.358.153-7.484-.007a16.788,16.788,0,0,1-.222,2.436,16.81,16.81,0,0,0-.222,2.436q0.09,3.74,14,6.58,8.636,1.291,17.28,2.763l5.748-2.195,1.131,0.347,5.666-5.558q-0.175-7.287-7.842-7.1h0Zm-16.874,17.98q-18.8.269-19.364,0.092l-2.212,1.362q2.634,0.686,2.841,1.427a6.3,6.3,0,0,0-1.42,3.213q0.153,6.349,14.552,6.007,4.672-.112,13.775-2.949,10.766-3.436,10.7-6.427T470.073,922.132Zm236.71-57.3q-4.266-37.289-9.558-47.259a1.948,1.948,0,0,0,.16-1.125q-0.067-2.8-3.09-15.631t-3.064-14.6a50.854,50.854,0,0,0-.5-5.13q-0.457-3.354-.491-4.849a84.127,84.127,0,0,1,.523-9.361,84.451,84.451,0,0,0,.527-9.174q-0.346-14.385-6.56-43.217t-6.565-43.4a40.436,40.436,0,0,1,1.746-12.942q-5.565-5.659-7.432-5.617a43.519,43.519,0,0,0-9.683,1.916,43.757,43.757,0,0,1-9.871,1.92,19.488,19.488,0,0,1-4.414-.735,19.454,19.454,0,0,0-4.6-.731q-15.51,8.6-23.176,8.784l-1.136-.534a12.232,12.232,0,0,1-2.983.446q-3.366.081-9.141-2.771t-9.328-2.767l-3.522,1.393,0.46,3.541L597,664.811l-1.264,1.9q-0.448,4.686,1.112,15.117,1.608,12.489,1.687,15.664,0.248,10.278-2.806,31.1t-2.8,31.477q0.369,15.324-10.477,46.619T571.9,849.946q2.985,7.407,6.164,7.33a1.523,1.523,0,0,0,1.113-.4l1.514,0.712,3.895-1.4,1.131,0.347q6.13-1.83,5.944-1.826,2.427-.058,7.169,2.445-0.189,0,9.879-1.546l7.52,1.5a28.477,28.477,0,0,0,8-1.781,37.815,37.815,0,0,1,7.437-1.955l2.4-1.367q18.885-.455,20.468,3.06,1.716,9.122,3.62,18.235,0.763,0.73,9.823,3.877t9.618,3.134q5.049-.121,11.139-3.633l6.425,2.649,2.965-1.193,4.341,1.578q6.545-.157,8-9.54h0ZM698.556,888.4l-1.3.4q-12.987-3.237-14.1-2.652l-10.743,4.558-0.943-.351a62.685,62.685,0,0,0-8.5,4.5l-1.041,3.39,0.482,4.475,1.866-.231a12.065,12.065,0,0,0,6.786,2.08l13.846,0.041q22.454,0.019,22.21-10.07-0.086-3.548-8.568-6.15h0Zm7.022,27.408q-2.673-2.084-4.54-2.041a6.89,6.89,0,0,0-3.343,1.015l-2.631-.5-6.131,1.831q-5.062-.44-27.443,2.529a53.554,53.554,0,0,0-1.357,5.829,19.326,19.326,0,0,1,2.553,4.986,53.486,53.486,0,0,1,7.685.563l8.178-2.253,6.015,1.164a41.6,41.6,0,0,0,6.062-.8,40.943,40.943,0,0,1,6.062-.8q11.78-.284,11.605-7.571h0Q708.248,917.9,705.578,915.812Zm-96.844-51.235a35.182,35.182,0,0,0-3.918.468,36.276,36.276,0,0,1-4.666.487,18.451,18.451,0,0,1-6.763-1.146l-3.353.641-7.881-.932q-6.359.153-6.236,5.2,0.117,4.861,15.683,6.353l1.669-.6,9.974,2.378,8.789-.212q6.354-.153,6.227-5.572h0q-4.29-7.188-9.525-7.062h0Zm-3.926,23.465-5.195,1.807-1.318-.342-2.043.61-1.7-.52q-2.221.992-8.045,0.007-7.32-.947-8.629-0.914-6.548.157-6.374,7.258,0.144,5.982,6.694,6.008l5-2.177q3.415,1.978,13.673.606l1.71,1.081q16.076-.567,15.889-8.384-0.123-5.088-9.664-5.04h0Zm-4.049,26.085-1.683.04-6.955-1.328-8.753,1.706-8.975.216q-5.031.858-4.912,5.827,0.16,6.63,11.193,6.362,16.268-.392,20.227.822l6.878-1.849,1.87-.044,6.241-5.012h0q-1.854-7.057-15.131-6.74h0Zm33.746-98.219-2.057.05q2.984-8.109,4.5-22.731,0.848-11.423,1.7-22.85l1.327,0.716q2.69,26.3,4.507,39.527Z"/>
  <path id="Char_white" data-name="Char white" class="cls-3" d="M354.024,186.364L377.405,150.7l20.919-7.38L425.4,124.866s34.045-11.479,35.686-12.3,33.225-4.92,33.225-4.92l40.609,4.92,25.842,4.92,19.689,9.839,20.92,12.3,25.842,20.909,14.767,17.219,14.766,20.909,7.384,23.369,1.23,25.829,2.461,29.519L662.9,310.588l-4.922,18.449L649.36,343.8l-19.689,13.529-13.536,13.53-33.226,25.828-20.919,12.3,4.922,9.839,9.844,8.61s13.947,10.25,14.767,12.3S614.9,484.011,614.9,484.011v66.417l-55.375,52.887-43.07,30.749-72.6-1.23s-50.863-21.729-56.606-29.519-36.917-94.705-36.917-94.705l8.614-28.289,9.845-14.76,14.766-12.3,11.075-13.529,8.614-8.61,14.767-8.61,8.614-8.609-1.23-7.38-14.767-12.3-18.459-7.38-25.842-25.829L356.485,343.8l-20.92-22.139-7.383-18.449-3.692-19.68,3.692-23.369,8.614-41.818Z"/>
  <path id="Char" class="cls-2" d="M660.234,493.073c-0.021,12.3,7.54,31.842,7.518,44.139-0.066,38.583,7.209,66.04,7.209,103.323-7.3,4.475-33.1,3.823-45.557,3.611-7.223,4.971-29.757-.749-36.93-0.064-21.272,2.032-44.332,2.385-72.651,2.334-23.919-.043-51.239,1.132-71.419,2.336l-50.484-.087c-16,3.836-41.308-1.9-59.106,2.358-12.44,2.978-17.778,2.817-32.026,1.168-4.02-6.071-5.134-10.644-4.887-22.147,3.092-4.487,1.633-11.328,3.724-17.212,7.071-19.9-1.131-37.978,2.587-66.4,2.1-16.019-7.84-33.583,1.319-50.423,6.3-11.587,23.942-19.642,35.752-25.765,3.109-1.612,5.806-.481,8.624-2.445q0-1.23,0-2.46c4.529-3.5,10.141-3.86,14.788-7.354,3.337-2.508,6.631-9.447,9.872-12.282,2.043-1.786,5.116-.729,7.392-2.447,6.563-4.953,11.388-13.815,17.272-19.648,4.5-4.463,14.076-6.773,17.26-12.269-1.551-1.673-1.678-2.178-2.454-4.924-6.336-1.193-7.7-5.273-12.3-7.4l-11.077-2.479c-7.793-3.9-20.24-13.342-25.823-19.723-4.939-5.644-5.394-13.349-9.817-19.695-2.463-3.535-7.522-7.329-9.831-11.086q0-1.845.007-3.69c-4.387-5.841-13.641-9.378-17.211-16.018-3.1-5.757-1.553-12.62-4.893-18.457-0.271-.473-3.326-1.492-3.69-2.466-5.659-15.166-.687-33.991,2.544-46.731,3.164-12.477,1.351-19.648,4.98-31.969,3.434-11.655,10.983-26.687,16.071-36.868q1.24-5.532,2.482-11.065l7.4-6.137c2.446-4.049,1.98-8.9,4.947-12.29,3.312-3.788,15.362-15.376,19.73-17.184,5.517-2.284,10.191-1.694,14.784-4.894,15.376-10.713,29.83-22.151,49.3-29.432,5.424-2.028,13.322-5.016,17.249-6.12,8.216-2.31,16.5,1.474,22.168-2.421,53.06-.588,87.626,12.023,118.147,33.411,3.8,2.659,8.938,2,12.305,4.941,2.812,2.455,4.423,7.611,7.37,9.852,2.271,1.725,5.348.678,7.384,2.472,9.873,8.7,27.018,31.405,31.937,44.331l2.433,17.223c1.593,2.78,5.064,5.6,6.139,9.85l-0.021,12.3c5.933,24.584,3.52,51.378-2.6,76.249-1.73,7.038,1.55,15.362-1.267,20.906-8.623,16.966-25.949,26.849-40.7,38.056-1.637,1.244-.029,3.1-1.24,4.917-2.174,3.264-16.491,17.638-19.735,19.644-5.3,3.28-10.538,4.159-16.019,7.352l-3.7,4.913c-4.517,2.5-13.126.733-16.015,4.892,1.144,2.344.464,1.439-.009,4.919,10.162,2.018,11.679,12.12,18.44,17.251,13.008,9.87,32.994,11.908,46.753,20.989C639.873,458.189,662.386,484.706,660.234,493.073ZM657.1,301.056c0.343-9.261,3.25-15.126,4.963-22.13,4.211-17.209-2.026-37.978-4.84-49.2-2.463-9.826.111-18.42-3.647-27.063-11.445-26.323-55.752-63.325-82.367-75.166-7.817-3.478-15.99-1.955-24.617-4.962-13.228-4.61-49.819-14.128-71.4-8.733-26.566,6.642-51.341,19.389-71.473,33.084-1.573,1.07-15.444,11.343-16.028,12.271-3.989,6.341-.618,8.558-8.638,11.054q0.006-3.69.013-7.379c2.573-2.547,3.539-2.568.008-4.92q0,0.615,0,1.23l-1.231,0c0.031,2.459,1.259.348,0,2.46-25.7,28.891-42.934,81.372-47.017,131.516a17.406,17.406,0,0,0,4.923,1.238c1.877-2.4,2.679-2.726,6.163-3.679q0,1.23,0,2.46c-4.193,4.1-6.545,11.118-7.42,18.436,6.957,5.138,9.44,16.381,15.969,22.165,4.145,3.673,11.7,3.954,14.76,8.635,6.225,9.532,6.759,22.789,14.723,30.773,7.052,7.07,17.4,7.549,27.067,12.345,15.236,7.558,29.214,19.217,47.98,23.451-0.027-4.8-.6-5.535,2.476-7.375,6.584,7,25.746,18.4,44.3,12.375,14.163-4.6,20.2-17.846,39.436-19.609q0,1.229,0,2.459c-4.091,3.454-8.189,6.274-9.871,12.282l7.388,0.013c17.207-10.41,45.456-12.352,62.845-28.179,7.387-6.723,17-30.23,24.681-31.934,2,1.842,2.488,1.913,6.152,2.47,5.713-7.5,17.167-11.84,18.51-23.336,5.722-8.632-3.09-20.416-3.642-29.523l2.462,0C651.913,300.616,652.8,300.735,657.1,301.056ZM475.157,131.017q0,2.459-.008,4.919c-11.007.7-17.127,4.619-29.56,4.869q0-1.23,0-2.46c2.218-1.922,1.582-2.415,4.932-3.681C455.377,130.257,465.732,130.791,475.157,131.017Zm66.461,17.333c10.276,0.325,24.319,4.209,27.067,12.346l-2.463,0C558.483,155.707,544.213,158.508,541.618,148.35ZM415.944,194.868c3.036,1.6.84-.526,2.459,2.464l-1.232,0c-3.022,7.525-14.1,15.215-19.737,20.874-13.2,13.246-31.185,43.3-50.566,47.878l0.009-4.919c17.435-16.985,29.841-39.089,48.116-55.262C400.928,200.648,409.336,199.608,415.944,194.868ZM346.838,283.3c0.463-2.552.3-2.367,1.238-3.688,4.807-10.942,18.957-18.87,27.135-27.01,21.189-21.091,50.018-65.188,94.908-56.411q0,2.46-.008,4.919l-2.463,0c-4.154,2.524-12.3.7-17.242,2.43-9.584,3.36-19.29,9.086-27.114,14.712-6.25,4.493-10.611,11.789-16.037,17.191-7.815,7.778-16.815,14.348-24.664,22.1-1.158,1.142-1.277,3.856-2.472,4.915-3.62,3.21-8.771,4.126-12.325,7.358C361.11,275.886,359.032,282.2,346.838,283.3Zm165.148-88.267c38.233-.587,58.628,19.331,77.505,38.261,8.912,8.936,18.608,12.3,18.417,30.779l-2.463,0c-17.727-18.952-36.15-42.039-61.473-52.992-9.843-4.257-24.854-4.971-34.464-7.439a19.319,19.319,0,0,1-1.221-6.151A13.5,13.5,0,0,0,511.986,195.034ZM615.351,232.11c6.773,2.332,12.658,12.955,14.741,19.7l-2.462,0a24.137,24.137,0,0,0-4.921-2.468C620.308,243.419,617.82,238.336,615.351,232.11ZM489.733,246.651l46.789,0.081c34.761,8.731,46.484,24.42,67.643,45.623,6.412,6.425,21.156,12.339,24.589,20.95,1.943,2.684,1.893,12.08-.025,14.759-4.717,13.882-17.18,10.772-30.81,15.935-5.4,2.046-11.582,6.533-17.255,9.81-3.183,1.838-6.762,6.579-9.866,8.592-14.924,9.678-38.65,19-56.682,24.5-20.557,6.269-77.74-5.206-88.628-14.912l0.006-3.689-4.927,1.221c-5.234-1.465-14.621-6.565-19.684-9.873-18.229-11.913-33.925-26.991-49.179-41.9q0.006-3.69.013-7.379c5.117-4.712,9.332-10.287,16.03-13.5,5.8-2.785,12.2-1.424,17.246-4.89,1.546-1.062.007-3.6,1.24-4.918,1.852-1.977,4.848-.938,7.392-2.447,12.175-7.22,25.582-19.306,39.445-24.529,6.831-2.574,12.7-1.514,19.707-3.656,6.62-2.024,15.146-5.567,22.176-7.341C481.139,247.524,485.651,249.556,489.733,246.651Zm12.283,17.24-0.006,3.689c6.027,3.586,15.5,10.9,17.206,18.479,2.83,12.587-27.693,39.444-44.376,28.21-7.443-2.395-9.869-8.711-14.752-13.554-0.374-12.41,1.961-16.193,7.426-22.125,5.739,1.592,6.47,4.206,13.536,4.943a22.152,22.152,0,0,1,3.7-4.913q-1.221-6.151-2.441-12.3c-2.159-.78-1.2-0.24-2.461-1.235l-19.705,2.426c-10.594,15.208-15.682,14.061-13.614,40.563,6.236,4.408,11.455,12.645,18.442,16.02,20.629,9.966,57.908-3.986,65.29-18.335,4.774-9.28,3.511-22.838,2.523-34.433-7.484-5.571-6.245-10.086-20.915-9.875C509.414,263.253,506.142,263.666,502.016,263.891Zm46.781,5c0.63,37.1-6.807,53.811-30.9,65.131-43.99,20.671-94.986-8.3-84.868-53.032l-4.925-.009c-4.422,3.158-9.885,3.229-14.786,6.124l-3.7,4.913-22.183,11.031c0.748,4.351-.667,14.28,1.2,19.68,0.888,2.572,4.731,5.219,6.144,7.39,10.081,15.491,7.916,12.3,24.59,20.951,12.96,6.724,26.916,14.6,43.063,18.523l22.164,0.038c34.725,0.062,53.712-6.344,73.912-19.55,15-9.81,32.075-18.4,32.088-42.991,0-4.125.291-8.711-1.212-11.071C585.181,282.993,564.875,269.985,548.8,268.891Zm49.184,39.442c0.134,8.323-1.106,13.615-2.5,19.674l4.925,0.008c3.241-2.286,10.347-2.828,14.782-3.664a31.68,31.68,0,0,0,2.473-6.145C607,317.25,607.342,310.18,597.981,308.333Zm-219.2,16.839,0.021-12.3c-2.159-.779-1.2-0.239-2.461-1.234-2.161.772-1.2,0.235-2.464,1.226-5.024,1.24-6.075,2.414-7.4,7.366C373.588,321,372.467,323.79,378.78,325.172ZM551,416.481c-13.578-.1-19.885,2.317-33.25,2.4-2.881,4.212-5.419,4.224-6.175,11.058C517.4,435.1,522,453.3,527.541,455.8c1.319,0.927,1.163.742,3.692,1.236C537.086,446.388,550.035,429.549,551,416.481Zm-83.741,7.235c-15.319.111-21.388-4.616-35.7-4.981-1.534,4.436-1.34,12.153-1.264,18.446,6.165,5.575,6.318,17.665,15.973,19.706,1.9-.867.167-0.159,3.694,0.006,0.719-11.412,9.674-22.2,17.285-27.028Q467.258,426.791,467.263,423.716Zm91.12-2.3c-0.571,9.421-5.716,13.277-8.653,19.663s-1.915,12.4-4.957,18.44c-3.127,6.2-9.038,12.767-12.345,18.427-2.969,5.081-2.581,8.968-4.951,14.75-2.137,5.214-7.6,9.834-9.876,14.741-7.754,16.752-9.814,33.445-16.1,51.628-4.739,13.715-11.769,37.337-8.713,54.1,2.572,1.383,2.253,1.768,6.152,2.47,12.563-26.006,29.515-47.648,45.68-70.025,7.681-10.633,20.474-19.327,22.225-35.628-13.527-10.3-12.616-33.16,2.533-40.582,6.667-3.266,14.139.524,18.478-4.887,0.841-.947,1.619-2.742,2.469-3.686C586.867,442.622,575.544,425.732,558.383,421.414ZM413.073,431c-12.377,12.692-27.806,23.51-29.632,46.685,7.944,7.216,18.655,10.138,28.292,16.037-3.622,10.6-16.634,21.71-17.3,35.637,3.411,2.917,4.347,7.763,7.369,11.082,3.413,3.75,8.934,6.071,12.3,9.86,5.126,5.779,7.1,14.017,12.278,19.7,5.762,6.319,14,10.86,19.671,17.252,3.491,3.934,4.34,9.106,7.365,13.542,4.229,6.2,10.554,11.9,14.743,18.473l2.463,0a7.511,7.511,0,0,1,2.467-2.456c-1.553-5.211.547-14.339-1.195-20.91-2.778-10.478-9.543-23.407-13.485-34.46q-1.827-11.071-3.655-22.144c-5.2-18.431-10.708-41.784-18.37-57.837l-2.439-13.533c-3.586-8.054-11.251-17.116-15.964-24.625C415.636,439.579,416.82,433.42,413.073,431ZM467.1,517.187c0.135-11.9,10.077-22.794,7.439-29.5-5.337-7.541-13.18-.43-13.519-14.782,4.518-4.571,6.254-10.351,6.191-19.668-2.557.453-2.371,0.294-3.7,1.224-17.187,21.177-5.488,37.147-.109,62.724Zm45.652-54.036c-0.344,17.873-9.605,15.788-13.587,24.574q-0.018,9.838-.034,19.678l2.462,0q0-.615,0-1.23c9.708-3.427,16.312-24.343,16.075-39.329C515.416,465.265,515.568,464.425,512.753,463.151Z"/>
</svg>
