<?xml version="1.0" encoding="utf-8"?>
<!-- Generator: Adobe Illustrator 19.0.0, SVG Export Plug-In . SVG Version: 6.00 Build 0)  -->
<svg version="1.1" id="Layer_1" xmlns="http://www.w3.org/2000/svg" xmlns:xlink="http://www.w3.org/1999/xlink" x="0px" y="0px"
	 viewBox="0 0 306 289" style="enable-background:new 0 0 306 289;" xml:space="preserve">
<style type="text/css">
	.st0{fill:#D7C1B1;}
	.st1{fill:#504E4E;}
	.st2{fill:#927C71;}
	.st3{fill:#201414;}
	.st4{fill:#866B4E;}
	.st5{fill:#B8BBBB;}
	.st6{fill:#CFDDEA;}
	.st7{fill:#393972;}
	.st8{fill:#D17D64;}
	.st9{fill:#7D3D1E;}
	.st10{fill:#F2B5AE;}
	.st11{fill:#B99E83;}
</style>
<g>
	<path class="st0" d="M199,164.5c1.4,0.2,2.2,1,2.4,2.4c0.3,0.6,0.6,1.2,0.8,1.9c-3.2,6-2.3,12.1-1,18.3c-0.4,2.9-0.7,5.8-0.3,8.8
		c-0.3,1.4-0.7,2.9-0.9,4.3c-0.2,1.3,0,2.6,0,4.5c3.9-4.4,5.1-9.2,6.8-13.7c3.4,0,6.7,0,10.1,0c1.7,2.6,2.7,5.4,2.7,8.5
		c-2,0.8-3.8,0.4-5.6,0.5c-1.8,0.1-3.6,0-5.4,0c-2.5,0-4.3,0.6-3.6,3.7c-0.1,1.8-0.2,3.6-0.2,5.4c0,2.1-0.8,4-2.6,4.3
		c-3.4,0.7-3.5,2.8-3.5,5.5c0.1,6.3-1.5,12.1-4.9,17.3c-0.6,1-1.2,1.9-1.1,3.2c-4.2,4.9-4.2,11.4,0,15.7c0.1,0.5,0.5,0.7,0.9,0.7
		c0.7,1,1,2.2,2.1,3c0.1,6-2.5,10.6-7.2,14.2c-1.4,1.1-3,2-3.8,3.7l-0.1,0.1c-1.7,0.4-3.3,0.8-4.1,2.5c-0.3,0.1-0.6,0.2-0.9,0.4
		c-0.8,0-1.5,0.1-1.9,0.8l-0.2,0.1c-1,0.1-2.1-0.2-2.8,0.9l-0.2,0.1c-2.2-0.1-4.1,0.5-5.8,1.9c-0.3,0.1-0.7,0.1-1,0.2
		c-0.9-0.2-2,0.3-2.9-0.9c1.3-3.1,0.8-6.2-1.3-9c-1.3-1.8-0.9-3.4,0.9-4.7c3-2.1,4.2-5.2,5.3-8.4l0-0.1c2.4-0.9,2.8-3.4,4.4-6
		c-5,0.8-7.7-4.8-13-3.3c-1.7,0.5-3.8-0.6-5.3-2.1c-2.7-2.6-2.3-5.2,1.3-6.3c3-0.9,6.1-1.5,9.2-2.1c1.2-0.3,2.2-0.7,2.4-2.2
		c-1.3-2.4-3.7-3.6-6.1-4.7c-1-0.5-1.8-0.8-1.6-2c1.9-0.4,3.8-0.8,5.8-1.2c4-0.5,8-1.7,12.1-1.8c0.3,0.1,0.6,0.1,0.8,0.2
		c1.6,2.9,3.4,1.9,5.2,0.3c0.9-0.9,1.4-2.3,2.3-3.2c2.3-2.1,1.7-3.7,0-5.9c-3.6-4.6-9.2-6-13.7-9.7c-0.9,2.9-0.5,4.8,0.4,6.9
		c1.3,3.2,4.1,5.7,4.1,9.4c-0.1,0.3-0.2,0.6-0.2,0.9c-2.9,0-5.9-0.1-8.8,0.1c-2.7,0.2-4.4-0.6-5.2-3.2c0.1-1.9,1.7-2.3,2.9-3
		c1.8-1,3.2-2.2,4.3-4.1c-3.1-1.7-4.8,0.8-6.9,1.6c-4.2-1.9-9.6-1.5-12.6-6.2c4.9-2.8,5.8-4.7,4.7-9.8c-0.4-1.8-0.4-3.6,0.1-5.4
		c1.2-4.3,2.4-4.9,6.8-3.4c0.5,0.2,0.9,0.3,1.4,0.5c0,3.5,1.6,5.4,5.1,5.8c1.4,0.2,2.8,0.5,4.3,0.8c4.2,2.3,7.2,1.8,10.7-1.7
		c-0.1-1.6-3.2-0.7-2.6-3c0.6-0.4,1.2-0.7,1.9-1.1c2.5-0.7,4.9,1.7,7.5,0.6c-1-3.2-4.8-2.7-6-5.1c1.4-0.9,3.3-0.6,4-2.4
		c-2-1.7-4.3-1.1-6.3-1c-5,0.2-9.9-0.3-14.8-1.1c-2.1-0.3-4-1.3-6.3-0.5c-7.7,2.7-12.2-1.5-16.6-7.2c-3.4-4.3-2-7.8-0.8-12
		c0.8-2.7,2.1-3.5,4.7-3.2c3.8,0.5,7.5,0,10.4-2.5c4.6-3.9,9-7.9,14.2-10.8c1.5,0.2,2.9,0.2,4.3,0.8C186,154.7,193,158.9,199,164.5z
		"/>
	<path class="st1" d="M233.5,5.7c41,0,72.4,34.3,71.6,73.4c-0.7,35.3-28.9,70.5-72.2,70.3c-43.6-0.2-72.3-36.2-71.7-73.4
		C161.9,37.4,194.1,5.6,233.5,5.7z M248.1,52.9c-0.1,1.6,0.6,2.9,1.6,4c0.2,0.8,0.5,1.6-0.2,2.3c-1.7-0.4-2-1.9-2.5-3.3
		c-0.7-2-1.5-4.1-3.9-4.7c-2.8-0.4-3.1,2-3.8,3.7c-1,2.4-1.8,4.8-4.3,6.2c-1-1.5,1.2-3,0.1-4.9c-1.9,1.2-3.7,0.6-5.7,0.5
		c-5-0.3-10.4-3.4-15.1,1.4c0.5,1.3,1.1,2.6,1.7,4c-1.4,0.2-1.9,0.9-1.9,2.3c0.1,2.9-0.1,5.8,0.8,8.7c0.4,1.4,1.2,3.8-1.8,4
		c0-0.3-0.1-0.6-0.3-0.8c0.2-3.6-2.6-2.7-4.6-2.8c-0.3-4.2-0.3-4.2-3.6-5.6c0.1-0.6,0.2-1.2,0.4-1.8c1.9-0.9,2.9-2.1,1-4
		c-0.5-2.3-1.2-4.5-1-6.9c0.2-3.7-1-6.5-5-7.7c1.3-2.4,1.1-4.5,0.3-6.9c-0.8-2.8-0.4-5.9-0.5-8.9c0-1.6,0.9-2.6,2.4-2.6
		c5,0.1,7.6-3.4,10.7-6.5c4.6-4.7,7.7-10.8,13.5-14.4c-25.5,3-44.1,16-55.9,38.8c-6.6,14.1-8.9,28.7-5.6,44.2
		c4.1,20,15.2,34.9,32,45.8c0.5,0.7,1.4,0.9,2.1,1.2c2.8,2,5.9,3.3,9.1,4.6c1.6,0.5,3.2,1,4.9,1.5c1.1,1.1,2.5,0.6,3.9,0.8
		c4.7,1.6,9.4,2.1,14.3,1.9c0.5,0,1.1,0.1,1.6,0.1c3.1-0.1,6.1-0.2,9.2-0.3c2.3-0.5,4.6-0.9,6.9-1.4c5.3-1.1,10.3-3.2,15-5.7
		c1.3,0.4,2.2-0.1,3-1.1c4.9-3.4,10.4-6,14.3-10.7c1.3-0.6,2.2-1.6,2.9-2.8c11.6-11.7,17.6-26.1,18.7-42.3
		c1.4-19.4-4.4-36.7-17.1-51.5c-3-3.5-6-7-10.6-9.3c0,1-0.2,1.8,0,2.3c3,6.1,3.3,13.2,7.4,18.9c1,1.4,1.5,3,1.6,4.7
		c0.7,2.4-2.1,3.5-2,5.8c0.4,5.2-2.5,9.3-4.3,13.8c-1-0.2-1.1-0.9-1.3-1.5c-0.4-0.7-0.8-1.5-1-2.2c-0.6-1.9-1.9-2-3.5-1.7
		c-1-0.9-0.8-2-0.4-3.2c1.5-4.4,2.1-9.3,5.3-12.8c-0.5-1.7-1.5-2-2.7-2c-4.7,0-9.5,0-14.2-0.1c-3.4-0.1-6.4,1.2-9.6,2
		c-1.4,0.4-2.3,1.2-2.3,2.8C248,50.3,248.1,51.6,248.1,52.9z M249,20.2c-1,0.1-1.9,0.1-2.9,0.2c-4.5-0.1-8.7,1.5-13,2.2
		c-2,0.3-2.9,2-3.7,3.7c-2.2,4.3-2.6,9.1-4.1,13.7c-0.4,1.3,0.2,2.6,1.5,2.6c4.6,0.3,8.8,2.5,13.4,3c0.8,0,1.7,0,2.5,0
		c1.4,0.3,2.8,0.7,3.4-1.1c7.7-0.8,15.3-3.5,23.7-1.5c-0.9-4-1.5-7.2-2.4-10.4c-1.5-5.3-6.2-7.9-9.9-11.4c-2.1-1.9-4.4-0.6-6.6-0.9
		C250.4,19,249.8,18.9,249,20.2z M219.3,52.6c2.6,0.7,4-1.9,5.9-1.4c2.1,0.5,4.1,1.1,6.2,0.4c0.7-1.3,0.8-2.6,0.2-3.8
		C223.4,46,220.7,47,219.3,52.6z"/>
	<path class="st1" d="M202.3,168.8c-0.3-0.6-0.6-1.2-0.8-1.9c0-1,0.4-1.6,1.5-1.3c1.1,0.4,1.8,1.4,2.6,2.3
		c18.3,20.9,23.7,45,15.1,71.1c-8.6,26.2-27.5,42.1-54.6,47.9c-2.6,0.6-5.3,0.8-7.9,1.1c-3.7,0-7.4,0-11.1,0
		c-33.7-3-59.9-26.7-65.5-60.3c-3.6-21.6,2-41.1,16.2-58c0.8-1,1.6-2.1,2.9-2.7c0.2,0.4,0.5,0.7,0.7,1.1c-0.6,1.6-2.1,2.6-3,3.9
		c-2,2.9-4.7,5.2-5.5,8.8c-3.2,3.6-4.4,8.1-6,12.5c-1.1,2-2,4-1.6,6.4c-1.7,1-1,2.6-1.2,4c-2,7.5-1.7,15.3-0.7,22.8
		c2.2,15.3,8.7,28.7,20.2,39.5c5.3,5,5.7,5.1,11.4,0.3c0.4-0.3,0.5-0.8,0.6-0.9c-2.3-5-1.4-10-1.7-14.9c-0.3-4.9-0.2-9.8,0.2-15
		c-1.5,0.8-0.4,2.4-1.9,2.8c-0.1-0.7-0.1-1.3-0.2-1.9c-0.4-7.9,0.9-15.9-1-23.8c-0.2-0.9-0.2-2,1-2.6c0.1,0.8,0,1.6,1,2
		c-0.3,3.2,0.2,6.3,2,9c0.7,1.1,1.1,2.4,1,3.8c-0.3,11.3,1.7,22.5,1,33.8c-0.1,1.3-0.7,3,0.7,4.1c2.1,0,2.6-2.8,4.7-2.3
		c2,2.1-1.8,3.3-0.8,5.4c3.8-0.8,4.1-5.2,7.2-6.7c2.5,0.4,3.6,1.9,3.2,4.5c-0.5,3.2,0.7,6.1,2.6,8.3c5.8,6.6,12.2,12.3,21.8,12.1
		c1.2,0,2.3,0.2,3.3,0.8c3,1.8,5.6,1,8.1-0.9c0.3-0.1,0.7-0.1,1-0.2c2.3,0.3,4.3-0.1,5.8-1.9l0.2-0.1c1.1,0.2,2.3,0.8,2.8-0.9
		l0.2-0.1c0.9,0.2,1.6,0.3,1.9-0.8c0.3-0.1,0.6-0.3,0.9-0.4c2.1,0.3,3.9,0.1,4.1-2.5l0.1-0.1c2,0.5,3.5-0.6,5-1.6
		c2.3-1.6,4.9-3,6.8-4.9c5.3-5.3,11.9-9.7,13.8-17.6c0.2-1,0.7-1.9,1.7-2.4c1.7-0.8,2.1-2.4,2.9-3.9c6.8-12.4,7.4-25.8,6.6-39.5
		c0-0.4-0.4-0.9-0.6-1.2c-1.3-0.8-1.3,1.5-2.9,0.8c-1.7-2.3-4.4-2.9-7.6-2.6c-1.8,0.2-3.6,0-5.5-0.1c-0.8-3.1,1.1-3.7,3.6-3.7
		c1.8,0,3.6,0.1,5.4,0c1.8-0.1,3.6,0.4,5.6-0.5c0-3.1-1-5.9-2.7-8.5c-0.8-5.5-4-9.6-7.2-14.2c-2,3.9-0.6,6.1,3.4,7.7
		c-2.2,0.3-3.4,0.4-4.8,0.6c-0.5,1.7-0.9,3.2-1.4,4.8c-2.6-0.4-3.5,1.3-3.9,3.3c-0.3,1.3-0.2,2.7-2.1,2.6c-0.4-2.9-0.1-5.9,0.3-8.8
		c2.1-0.6,2-2.4,1.5-3.6c-1.5-3.9-0.9-7.5,1.3-10.8C205.5,170.4,204.5,169.4,202.3,168.8z M120.2,267c-1.4,1.2-1.2,2.2-0.7,3.4
		C120.9,269.5,121.2,268.6,120.2,267z"/>
	<path class="st1" d="M0.8,83c0-2.7,0-5.4,0-8.1C3.1,41.9,25.7,15.6,58,8.6c28.1-6.1,58.8,6.1,74.3,30.5c13.8,21.6,16.4,44.6,6,68.5
		c-1.2,2.7-1.6,5.7-4.3,7.5c-1.2-1,0.1-2.1,0-3.1L134,112c0.7-0.4,0.8-1,0.7-1.7c4.2-6.1,6.2-13,6.5-20.4c1.8-2.1,0.6-4.7,0.9-7
		c0-4,0-8,0-11.9c-0.1-1.1,0.4-2.4-1-3.1l0,0c-0.4-0.4-0.7-0.9-1.1-1.3l0-0.5c-0.6-2.7,0.9-5.6-0.9-8.1c-1.6-7.2-4.7-13.7-9.8-19.1
		c-0.3-0.7-0.5-1.6-1-2.2c-6.1-8.7-14.3-15-23.6-19.9c-4.5-2.4-9-4.7-14.3-4.7l0.1,0c-0.9-1.4-2.3-1.3-3.7-1.2
		c-5.2-1.3-10.6-2-16-1.9c-1.6,0-3.3-0.6-4.7,0.8c-1.8,0-3.7-0.3-5.5,0.1c-18.4,4-33.9,12.6-44.9,28.4c-2,2.9-4.8,5.6-4.9,9.5
		c-1,0.7-1.2,1.9-1.8,2.8c-1.3,0.9-1.6,2.4-2.1,3.8C2.2,67.4,1.8,80.5,4.2,93.7c1.4,7.6,4.1,15,8.8,21.3c1.4,2.5,2.6,5.1,4.7,7.1
		c6.1,8.3,13.8,14.7,23.2,19l-0.1-0.1c0.4,0.9,1.2,1,2.1,1.1l-0.1-0.1c0.4,0.9,1.2,0.9,2,0.9c3,1.9,6.3,3.1,10,3.1
		c1,1.5,2.6,0.8,4,1c7.2,2.4,14.5,2.9,21.9,1c9.2-0.2,17.6-3,25.3-8c2.6-1.1,5.1-2.4,7.2-4.1c4-3.3,8.8-5.7,11-10.9
		c1.8-0.2,2.7-1.2,2.7-3c2.5-1.1,3-3.7,4.6-5.5c0.6-0.7,0.7-2.4,2.4-1.5c-0.7,4.4-3.9,7.3-6.5,10.3c-19.8,22.3-44.6,30.7-73.4,23
		c-28.9-7.7-46.3-27.4-52.3-56.9C1.3,88.6,1.1,85.8,0.8,83z"/>
	<path class="st1" d="M199,164.5c-6.1-5.7-13.1-9.9-20.7-13c-1.4-0.6-2.9-0.6-4.3-0.8c-2.7-2.4-5.2-2.3-7.8,0.5
		c-3.8,4.1-8.5,4.7-13.6,2.8c-1.6-0.6-3.2-1-4.7-1.5c-6.5-2.3-13-3.8-19.9-1.5c-1.8,0.9-4,0.9-5.1,3l0,0c-4.9,0.3-8,4-11.9,6.3
		c-2.5,0.6-3.2,3.7-5.8,4.1c-0.4-0.2-0.7-0.4-1.1-0.6c8.8-8.9,19.6-14.3,31.6-17c22.4-5,42.9-0.6,61.2,13.4c1.2,0.9,2.6,1.7,3.2,3.1
		C200.7,164.2,200,164.5,199,164.5z"/>
	<path class="st1" d="M102.1,165.5c0.5-0.5,1-0.9,1.5-1.4c0.2,0.4,0.4,0.8,0.7,1.1c-0.3,0.3-0.7,0.7-1,1
		C102.9,166,102.5,165.8,102.1,165.5z"/>
	<path class="st1" d="M101.2,166.6c0.3-0.4,0.7-0.7,1-1.1c0.4,0.3,0.8,0.5,1.1,0.8c-0.3,0.3-0.7,0.7-1,1
		C101.9,167,101.5,166.8,101.2,166.6z"/>
	<path class="st1" d="M103.6,164.1c0.2-0.1,0.4-0.3,0.5-0.5c0.4,0.2,0.7,0.4,1.1,0.6c-0.1,0.3-0.1,0.5-0.1,0.8
		c-0.3,0.1-0.5,0.2-0.8,0.3C104,164.9,103.8,164.5,103.6,164.1z"/>
	<path class="st1" d="M100.6,167.2c0.2-0.2,0.4-0.3,0.6-0.6c0.4,0.2,0.7,0.5,1.1,0.7c-0.3,0.3-0.7,0.7-1,1
		C101.1,167.9,100.8,167.5,100.6,167.2z"/>
	<path class="st2" d="M128,151c6.8-2.3,13.4-0.8,19.9,1.5c1.6,0.6,3.2,1,4.7,1.5c5.1,1.9,9.8,1.3,13.6-2.8c2.6-2.7,5-2.8,7.8-0.5
		c-5.3,2.9-9.7,6.9-14.2,10.8c-2.9,2.4-6.6,3-10.4,2.5c-2.5-0.3-3.8,0.5-4.7,3.2c-1.3,4.2-2.6,7.7,0.8,12c4.5,5.7,8.9,9.9,16.6,7.2
		c2.3-0.8,4.2,0.2,6.3,0.5c4.9,0.8,9.8,1.3,14.8,1.1c2.1-0.1,4.3-0.7,6.3,1c-0.7,1.9-2.7,1.5-4,2.4c1.2,2.5,5,1.9,6,5.1
		c-2.6,1.1-5-1.3-7.5-0.6c-1.8-3-5.7-4.9-8.8-4.3c-1.3,0.2-2.6,0.2-3.9,0.2c-2.8,0-5.1,0.8-6.7,3.2c-0.5-0.2-0.9-0.3-1.4-0.5
		c-4.3-1.6-5.5-0.9-6.8,3.4c-0.5,1.8-0.5,3.6-0.1,5.4c1,5.1,0.2,7-4.7,9.8c3,4.7,8.4,4.3,12.6,6.2c-3.3,3.1-3.7,3.2-7.1,1.2
		c-4.3-2.5-5.3-2.5-7.9,0.4c5.5,6.8,7.3,7.3,14.7,3.8c0.9,2.5,2.6,3.4,5.2,3.2c2.9-0.3,5.8-0.1,8.8-0.1c0.6,0.1,1,0.5,1.1,1.1
		c-4.1,0.1-8,1.3-12.1,1.8c-0.4-0.6-0.9-0.9-1.7-0.9c-7.1,0.2-14.2,0-21.1-1.8c-0.9-0.2-1.7,0-1.9,1c-0.3,1.3,0.6,1.7,1.7,1.9
		c5.7,0.9,11.5,1.1,17.3,1.1c-0.2,1.2,0.5,1.6,1.6,2c2.4,1.1,4.8,2.3,6.1,4.7c-0.2,1.6-1.2,2-2.4,2.2c-3.1,0.6-6.2,1.2-9.2,2.1
		c-3.6,1.1-4,3.7-1.3,6.3c1.5,1.5,3.7,2.6,5.3,2.1c5.3-1.6,8,4.1,13,3.3c-1.5,2.6-1.9,5.1-4.4,6c0-0.8-0.1-1.6-0.1-2.9
		c-6.3,0.5-12.4-0.6-18.4-3.3c2,8.3,8,11.3,14.5,7.8c1.3-0.7,2.4-1.7,4-1.6c-1,3.3-2.3,6.4-5.3,8.4c-1.8,1.2-2.2,2.9-0.9,4.7
		c2.1,2.9,2.6,5.9,1.3,9c0.9,1.2,2,0.7,2.9,0.9c-2.5,2-5.2,2.7-8.1,0.9c-1-0.6-2.1-0.9-3.3-0.8c-9.6,0.2-16-5.5-21.8-12.1
		c-1.9-2.2-3.1-5.1-2.6-8.3c0.4-2.6-0.6-4.1-3.2-4.5c-3.1,1.4-3.4,5.8-7.2,6.7c-1-2.1,2.8-3.3,0.8-5.4c-2.1-0.5-2.6,2.3-4.7,2.3
		c-1.4-1.1-0.8-2.7-0.7-4.1c0.7-11.3-1.3-22.5-1-33.8c0-1.4-0.3-2.7-1-3.8c-1.8-2.8-2.3-5.8-2-9l0,0c1,0.2,0.9,1.9,2.3,1.6
		c1-0.7,0.6-1.8,0.7-2.7c0.2-5.2,0.1-5.4,5.1-6.7c1.6-0.4,1.6-1.6,2.4-2.5c0.7,1.6,1.3,3,2.2,5c1.1-9.9-0.7-18.9-2-27.9
		c-0.4-2.7-0.6-5.1,0-7.8c0.6-2.4,0.9-5.1-2.6-7.1c0.8,4.4,2,8.4-2.3,11.1c-0.9-0.5-1-1.3-0.9-2.1c1.1-5.5-0.1-11.5,4-16.3
		c0.6-0.7,1.1-1.6,0.9-2.7l0,0C125.2,154,127.9,154.8,128,151z M130.7,237.8c0-1.2,0.6-2.6-0.8-3.5c-1.5,1-0.6,2.4-0.8,3.6
		c0.4,2.1,0.8,4.3,1.4,7.4C131.2,242.1,131.1,239.9,130.7,237.8z M137.4,202.9c5.5,2.2,10.5,0.4,15.1-1.4c2.9-1.1,2.7-4.6,2.6-7.5
		c-0.1-2.5-2.2-2.6-3.9-3c-5.7-1.3-11.5-2.2-17.4-0.7c0.5,1.3,2.5,1.5,2,3.8c-0.2,1.4-4.3,0-3.4,3.3c1.9,1.8,4.6-0.4,6.4,1.3
		C139.6,200.4,137.9,201.2,137.4,202.9z M142.1,210.6c-5.5-0.8-5.8-0.6-5.5,4C139.6,215.4,141.4,214.2,142.1,210.6z M128.5,232.3
		l-0.2,0.2l0.2,0L128.5,232.3z M132.7,258.5l-0.2-0.2l0,0.3L132.7,258.5z"/>
	<path class="st2" d="M205.2,203.9c1.8,0,3.7,0.3,5.5,0.1c3.2-0.3,5.9,0.3,7.6,2.6c1.6,0.7,1.6-1.5,2.9-0.8c0.2,0.4,0.6,0.8,0.6,1.2
		c0.8,13.7,0.2,27.1-6.6,39.5c-0.8,1.4-1.2,3.1-2.9,3.9c-1,0.4-1.4,1.4-1.7,2.4c-2,7.9-8.6,12.3-13.8,17.6c-1.9,2-4.5,3.4-6.8,4.9
		c-1.5,1-3.1,2.1-5,1.6c0.8-1.7,2.4-2.6,3.8-3.7c4.8-3.5,7.3-8.2,7.2-14.2c1.9-1.6,4.5-0.5,7.2-1.7c-0.9-4.1,1.1-8.3-1.2-12.4
		c0-6.1,0-12.2,0-18.3c-0.3,0-0.7,0-1,0c0,6.1,0,12.2,0,18.2c-0.4,3.9,0.6,8-0.8,12.4c-2.2-0.9-4.2-1.5-6.3-1.3
		c-0.5,0-0.8-0.2-0.9-0.7c0-5.2,0-10.5,0-15.7c-0.2-1.2,0.4-2.2,1.1-3.2c3.4-5.3,5.1-11.1,4.9-17.3c-0.1-2.7,0.1-4.8,3.5-5.5
		c1.9-0.4,2.7-2.3,2.6-4.3C205,207.5,205.1,205.7,205.2,203.9z"/>
	<path class="st2" d="M178.1,227.1c0-3.7-2.8-6.3-4.1-9.4c-0.9-2.1-1.3-4-0.4-6.9c4.5,3.7,10.1,5.1,13.7,9.7c1.7,2.2,2.3,3.8,0,5.9
		c-1,0.9-1.4,2.3-2.3,3.2c-1.7,1.7-3.6,2.6-5.2-0.3c0.9-0.6,2.4,0.2,2.9-1.6C181.3,226.5,179.6,227.1,178.1,227.1z"/>
	<path class="st1" d="M164.6,195.2c1.6-2.4,4-3.2,6.7-3.2c1.3,0,2.6,0,3.9-0.2c3.1-0.6,6.9,1.2,8.8,4.3c-0.6,0.4-1.2,0.7-1.9,1.1
		c-3.8-0.4-7.4-0.3-8.2,4.6c-1.4-0.3-2.8-0.6-4.3-0.8C166.2,200.6,164.6,198.6,164.6,195.2z"/>
	<path class="st1" d="M163.9,224.9c-7.3,3.5-9.2,3-14.7-3.8c2.5-2.9,3.6-2.9,7.9-0.4c3.4,2,3.8,1.9,7.1-1.2c2.1-0.8,3.8-3.3,6.9-1.6
		c-1.1,1.9-2.6,3.1-4.3,4.1C165.6,222.6,164,223.1,163.9,224.9z"/>
	<path class="st3" d="M207,190c0.5-1.6,0.9-3.1,1.4-4.8c1.4-0.2,2.7-0.3,4.8-0.6c-4-1.6-5.3-3.8-3.4-7.7c3.2,4.5,6.5,8.7,7.2,14.2
		c-3.4,0-6.7,0-10.1,0C207,190.7,207,190.4,207,190z"/>
	<path class="st1" d="M161.1,232.1c-5.8,0-11.5-0.2-17.3-1.1c-1.1-0.2-2-0.6-1.7-1.9c0.2-1,1.1-1.2,1.9-1c7,1.7,14,2,21.1,1.8
		c0.7,0,1.3,0.3,1.7,0.9C165,231.3,163,231.7,161.1,232.1z"/>
	<path class="st2" d="M174,201.8c0.8-5,4.3-5,8.2-4.6c-0.6,2.3,2.5,1.3,2.6,3C181.2,203.6,178.2,204.1,174,201.8z"/>
	<path class="st2" d="M207,190c0,0.4,0,0.7,0,1.1c-1.7,4.6-3,9.3-6.8,13.7c0-1.9-0.1-3.2,0-4.5c0.2-1.5,0.6-2.9,0.9-4.3
		c1.9,0.1,1.8-1.3,2.1-2.6C203.6,191.3,204.4,189.6,207,190z"/>
	<path class="st2" d="M202.3,168.8c2.2,0.6,3.2,1.6,1.8,3.9c-2.1,3.4-2.8,6.9-1.3,10.8c0.5,1.2,0.6,3.1-1.5,3.6
		C200,181,199.1,174.8,202.3,168.8z"/>
	<path class="st1" d="M192.9,239.6c0,5.2,0,10.5,0,15.7C188.8,251.1,188.8,244.6,192.9,239.6z"/>
	<path class="st4" d="M202,245c2.3,4,0.3,8.3,1.2,12.4c-2.7,1.1-5.3,0-7.2,1.7c-1.1-0.7-1.4-2-2.1-3c2.1-0.2,4.1,0.3,6.3,1.3
		c1.4-4.4,0.4-8.4,0.8-12.4l0.5,0.1L202,245z"/>
	<path class="st1" d="M178.1,227.1c1.5,0.1,3.2-0.6,4.5,0.6c-0.5,1.8-2,1-2.9,1.6c-0.3-0.1-0.6-0.1-0.8-0.2c-0.1-0.6-0.4-1-1.1-1.1
		C177.9,227.7,178,227.4,178.1,227.1z"/>
	<path class="st2" d="M184.8,276.9c-0.2,2.7-2,2.9-4.1,2.5C181.5,277.7,183.2,277.3,184.8,276.9z"/>
	<path class="st2" d="M174.7,281.8c-1.6,1.8-3.6,2.2-5.8,1.9C170.6,282.4,172.6,281.8,174.7,281.8z"/>
	<path class="st2" d="M177.7,280.8c-0.5,1.7-1.7,1-2.8,0.9C175.7,280.7,176.7,280.9,177.7,280.8z"/>
	<path class="st2" d="M179.8,279.9c-0.2,1.2-1,1.1-1.9,0.8C178.3,279.9,179,279.8,179.8,279.9z"/>
	<path class="st5" d="M274.1,44.2c1.2,0,2.3,0.3,2.7,2c-3.2,3.5-3.8,8.3-5.3,12.8c-0.4,1.2-0.5,2.2,0.4,3.2c0,0.6,0,1.2,0,1.8
		c-0.2,2.7-0.4,5.4-0.5,8.1c-1.6,2.1-2.8,4.3-1.4,7c-0.6,3.6-1.2,7.1-3,10.4c-1.4,2.6-1.5,5.5,0,9.5c3.1-5,4.4-10.6,10.2-11.5
		c-0.2-2.4,0.1-4.5-0.8-6.3c0.5-1,2.2-0.8,2.1-2.3c-0.9-0.8-1.8-0.5-2.7-0.2c-0.1-0.5-0.2-0.9-0.3-1.4c1.8-1,2.1-2.7,2.5-4.5
		c0.5-2.2,1-4.5,2.9-6.1c5.4-4.6,5.3-10.8,5-17.1c-0.1-1-0.9-1.2-1.7-1.5c-0.1-1.7-0.6-3.3-1.6-4.7c-4.1-5.7-4.3-12.8-7.4-18.9
		c-0.3-0.5,0-1.3,0-2.3c4.5,2.3,7.6,5.8,10.6,9.3c12.7,14.8,18.5,32.2,17.1,51.5c-1.2,16.2-7.2,30.5-18.7,42.3
		c-1.5-0.3-3-0.6-4.7-0.9c-0.1,1.7,0.4,2.9,1.7,3.7c-3.9,4.7-9.4,7.3-14.3,10.7c0.4-1.5,0.9-3,1.3-4.6c0.3-0.3,0.9-0.5,0.2-0.9
		c-0.1,0-0.4,0.4-0.6,0.5c-2.7,1.1-2.9,3.8-3.9,6c-4.8,2.6-9.7,4.6-15,5.7c-0.1-2.4,2.2-4.7,0.3-7.1c-4.4-0.3-4.4-0.3-7.9,2.3
		c1,1.9,1.1,4,0.7,6.1c-3.1,0.1-6.1,0.2-9.2,0.3c-3.1-7.7-6.4-15.3-6.9-25.4c5.8,3.3,10.7,5,14.9,0.2c0.2-1.8-1.2-2.4-1.9-3.5
		c-1.7-2.6-0.1-7.4,2.9-7.3c5.2,0.1,9.4-2.9,14-4.4c3.6-1.2,6.5-4,6.5-8.5c0.4-0.2,0.9-0.5,0.2-0.9c0,0-0.4,0.4-0.6,0.6
		c-3.5,1.1-6,5.2-10.5,3c-0.5,1.1,0.2,2.6-0.9,3.9c-2.2-1.9-3.7,0.9-6.1,1.2c-0.9-4.8-4.2-8.2-6-12.4c-1.8-4.3-0.9-6.1,3.7-6.6
		c3.4-0.4,6.5-1.4,9.8-3.4c-2-0.5-3.4-0.3-4.9,0.2c-2.9,1-5.9,0.4-8.9,0.3c-1.9-0.1-3.1-1-2.7-3.2c1.3-1.2,2.9-0.6,4.3-0.9
		c1-0.2,2.4-0.1,2.6-1c0.6-3.1,3.3-3.6,5.9-4.8c-2.3-1.8-4.7-0.2-6.6-1.5c-1-1.9-0.3-4.1-0.6-6.2c-0.3-2.7,1.6-5.2,0.9-7.8
		c-0.7-2.8,0-5,1.3-7.3c2.4,0.7,3.2,2.7,3.9,4.7c0.5,1.4,0.8,2.9,2.5,3.3c0.8-0.7,0.4-1.5,0.2-2.3c1.6,0.3,3.2,0.8,4.8,0.9
		c1.4,0.1,3.1,0.6,3.6-1.5c1.4-0.4,2.8-0.2,4.3,0.1c1.3,0.3,1.7-0.6,0.6-1.7c-0.9-2.7-1.4-3-3-1.6c-1.5-0.1-2.1-1.5-3.2-2.1
		c0-0.9-0.1-1.9-0.1-2.8c3.5-0.8,6.5,0.4,9.7,1.4c3.6,1.1,1.9,5.1,4.1,6.8c1.7-3.4,1.5-6.9,0.5-10.4l0,0
		C272.4,46.1,273.9,46.1,274.1,44.2z M272.1,125.1c0.7-1,0.4-2-0.7-2c-1,0-0.4,1.2-0.6,1.9c-0.9,0.6-0.9,1.4,0,1.7
		C271.9,127,272,125.9,272.1,125.1z M251.4,60.5c-0.3-0.4-0.6-0.9-1.1-0.4c-0.4,0.4,0.1,0.8,0.5,1c2.1,2.7,5.2,2.9,8.2,3.1
		c1.7,1.2,3.2,1.1,4.8-1.2c-1.9,0-3.4,0-4.8,0C256.2,63.1,254,61.4,251.4,60.5z M261.5,82.1c0.2-2.7,1.4-5.7-1.9-7.6
		C260.7,77,259.4,79.8,261.5,82.1z M270.7,122.5c-0.4-2.6-0.4-2.6-2.8-3.2C268,120.9,268.7,122,270.7,122.5z M255.7,80.8
		c-0.3-0.8-0.9-0.9-1.5-0.7c-0.5,0.1-1,0.4-0.8,1c0.2,0.8,0.8,0.9,1.5,0.7C255.3,81.7,255.8,81.4,255.7,80.8z M274.6,124.6
		c-0.2,0.2-0.5,0.4-0.5,0.6c0,0.4-0.4,1.5,0.6,1.1C275.2,126.1,275.1,125.2,274.6,124.6z M263.7,95.6l-0.3-0.2l0,0.3L263.7,95.6z"/>
	<path class="st2" d="M262.2,98.2c0,4.5-2.9,7.3-6.5,8.5c-4.6,1.5-8.7,4.6-14,4.4c-2.9-0.1-4.6,4.7-2.9,7.3c0.7,1.1,2.1,1.7,1.9,3.5
		c-4.2,4.8-9.2,3.1-14.9-0.2c0.5,10.1,3.8,17.7,6.9,25.4c-0.5,0-1.1-0.1-1.6-0.1c-7.2-5.7-14.8-10.9-18.9-19.6c-1-2.1-3-2-5.6-2.2
		c2,2.7,0.7,4.8,0.3,6.8c1,0.9,1.7-1.7,2.5,0c0.5,1.1,1.9,2.2,0.4,3.4c-2.6,2-1.8,4.7-1.7,7.3c-3.2-1.3-6.3-2.6-9.1-4.6
		c-0.2-1,0.7-2.6-0.9-2.9c-1.1-0.3-1,1-1.2,1.7c-16.8-11-27.9-25.8-32-45.8c-3.2-15.5-1-30.1,5.6-44.2c3,0.1,5.9,0.1,8.9-0.8
		c2.5-0.7,5-0.2,6.4,2.4c1.9,3.7,3.9,7.6,4,11.7c0.3,9.3,2.5,18.3,3,27.5c0.6,11.3,4,22,6.5,32.7c2.1,0.6,3.6,0.5,5.2-1
		c2.4-2.1,5.4-3.4,8.6-3.5c3.3-0.1,4.3-2.2,4.7-4.8c0.3-1.6,0.1-3.3,0.1-5c0.1-1.5,0.7-3.1-1-4.3c-1.8,1.1-0.8,2.8-1.1,4
		c-2.6,0.3-3.7-1.5-3.7-3.6c0-3.5-2.2-7.5,1.6-10.5c0.1-0.1-0.5-1.1-0.8-1.7c0.3-0.8,0.7-1.5,1.9-1.8c0.9,2.1,2.6,4,1.8,6.6
		c-0.4,1.8-3.3-0.2-3.2,2.2c2.5,2.3,4.1-1.3,6.5-1c2.2,3.6,4,7.4,7.7,10.1c3,2.1,8.5,3.3,12.8,2.3c-14-4.8-20-16-24.8-28.4
		c-2.5,3.1-5.8,4.6-8.8,6.6c-1.8-3.4,2.3-4.1,3.2-7.2c-3.5,1.4-4.8-1.7-7.2-2.8c-1,0.9-1.7,2.6-3.5,1.3c-1.3-4.9,2.1-7.6,5.1-10.6
		c3.3,1.4,3.3,1.4,3.6,5.6c2,0,4.8-0.8,4.6,2.8c-1.5,0.2-3.4-0.8-4.8,1.3c2,0.5,3.7,1.1,5.2-0.4c3-0.2,2.3-2.5,1.8-4
		c-0.9-2.9-0.6-5.8-0.8-8.7c-0.1-1.4,0.5-2.2,1.9-2.3l0,0c0.2,1.2,1.1,1.1,2,1l0,0c0.4,1.8,1.8,2,3.3,2c1.3,0.1,2.5,0.3,3.8,0.4
		c-1.8,3.6-3.5,7.2-4,11.3c-0.4,3.5,0.7,6.6,3.4,7.9c0.6-0.7,0.8-1.6,0.5-2.3c-1.6-3.7-1.2-6.8,1.7-9.9c1.8-1.9,2.8-4.5,2.3-7.3
		c1.6-2.8,2.7,1.3,4.3,0.3c0.8-1.4,2-2.6,1.7-4.3L235,61c2.5-1.3,3.3-3.8,4.3-6.2c0.7-1.6,1-4.1,3.8-3.7c-1.3,2.3-2.1,4.5-1.3,7.3
		c0.7,2.6-1.3,5.1-0.9,7.8c0.2,2.1-0.4,4.3,0.6,6.2c2,1.3,4.4-0.3,6.6,1.5c-2.5,1.3-5.3,1.7-5.9,4.8c-0.2,1-1.6,0.8-2.6,1
		c-1.4,0.3-3-0.4-4.3,0.9c-0.4,2.2,0.8,3.1,2.7,3.2c3,0.1,6,0.7,8.9-0.3c1.5-0.5,2.9-0.7,4.9-0.2c-3.2,2-6.4,3.1-9.8,3.4
		c-4.6,0.5-5.5,2.4-3.7,6.6c1.8,4.2,5.1,7.6,6,12.4c2.3-0.3,3.9-3.1,6.1-1.2c1.2-1.3,0.4-2.8,0.9-3.9c4.5,2.2,7.1-2,10.5-3
		L262.2,98.2z M231.6,82.9c0.4-3.6,0.4-3.6-2.4-3.4C228.8,81.3,229.6,82.3,231.6,82.9z M204.8,70.6c-1,2.1-1,2.1-0.9,4.7
		C205.4,73.7,205,72.2,204.8,70.6z M236.6,69.4c-0.1,0.8,0.4,1.2,1,1.4c0.7,0.2,1.5,0.6,1.8-0.5C238.7,69,237.8,68.7,236.6,69.4z
		 M196.7,124.1c-0.3-0.9-0.8-1.1-1.5-1.1c-0.8,0-1.2,0.6-0.9,1.3c0.2,0.6,0.9,0.8,1.6,0.6C196.4,124.8,196.8,124.6,196.7,124.1z
		 M215,101.3c-0.1-0.3-0.2-0.6-0.4-0.8c-0.1,0.1-0.4,0.1-0.4,0.2c0,0.3-0.1,0.6,0.1,0.8C214.5,101.7,214.8,101.6,215,101.3z"/>
	<path class="st5" d="M204.5,67.8c-3,2.9-6.4,5.7-5.1,10.6c1.8,1.2,2.4-0.4,3.5-1.3c2.4,1,3.7,4.1,7.2,2.8c-0.9,3.2-5,3.9-3.2,7.2
		c0.7,3.6,3.7,2.9,6.2,3.3c0.3,0.6,0.9,1.6,0.8,1.7c-3.8,3-1.6,6.9-1.6,10.5c0,2.1,1.1,3.9,3.7,3.6c0.7,0.1,1.4,0.1,2.1,0.2
		c0,1.7,0.1,3.4-0.1,5c-0.4,2.6-1.4,4.6-4.7,4.8c-3.2,0.1-6.2,1.5-8.6,3.5c-1.7,1.4-3.1,1.6-5.2,1c-2.5-10.8-6-21.4-6.5-32.7
		c-0.5-9.2-2.7-18.2-3-27.5c-0.1-4.1-2.1-8-4-11.7c-1.4-2.7-3.9-3.2-6.4-2.4c-3,0.9-5.9,0.9-8.9,0.8c11.8-22.7,30.3-35.7,55.9-38.8
		c-5.8,3.6-8.9,9.7-13.5,14.4c-3,3.1-5.7,6.6-10.7,6.5c-1.5,0-2.5,1-2.4,2.6c0.1,3-0.3,6.1,0.5,8.9c0.7,2.4,1,4.4-0.3,6.9
		c3.9,1.3,5.2,4,5,7.7c-0.2,2.3,0.6,4.6,1,6.9c-1.5,1-2.7,2.1-1,4C204.7,66.6,204.6,67.2,204.5,67.8z"/>
	<path class="st5" d="M242.8,45.6c-0.8,0-1.7,0-2.5,0c-1.3-3.3-5.6-1.9-7.2-4.8c0-2.9,2.7-4.5,3.4-7c1.6-5.7,4.1-10.7,9.7-13.5
		c1-0.1,1.9-0.1,2.9-0.2c0.6,0.9,1.2,1,2,0.1c2.2,0.4,4.6-1,6.6,0.9c3.7,3.5,8.4,6.1,9.9,11.4c0.9,3.1,1.5,6.3,2.4,10.4
		c-8.4-2-16,0.6-23.7,1.5C244.7,43.9,243.4,43.7,242.8,45.6z"/>
	<path class="st2" d="M246.2,20.4c-5.6,2.8-8.1,7.8-9.7,13.5c-0.7,2.5-3.4,4.1-3.4,7c1.6,2.9,5.9,1.5,7.2,4.8
		c-4.6-0.5-8.7-2.7-13.4-3c-1.3-0.1-1.9-1.3-1.5-2.6c1.5-4.5,1.9-9.4,4.1-13.7c0.8-1.7,1.8-3.4,3.7-3.7
		C237.5,22,241.7,20.3,246.2,20.4z"/>
	<path class="st5" d="M208.1,142.9c-0.1-2.6-0.8-5.3,1.7-7.3c1.5-1.2,0.1-2.4-0.4-3.4c-0.8-1.7-1.5,0.9-2.5,0c0.3-2,1.7-4.2-0.3-6.8
		c2.7,0.2,4.7,0.1,5.6,2.2c4.1,8.7,11.8,13.9,18.9,19.6c-4.9,0.2-9.7-0.4-14.3-1.9c0-1,0.6-2.2-0.7-2.8c-1.4,0.1-2,1.5-3.1,2
		C211.3,143.8,209.7,143.3,208.1,142.9z"/>
	<path class="st2" d="M216,62c-0.6-1.4-1.1-2.7-1.7-4c4.7-4.7,10.1-1.7,15.1-1.4c2,0.1,3.8,0.7,5.7-0.5c1.1,1.8-1.1,3.3-0.1,4.9
		L235,61c-5.5,2.1-11,4-17,2l0,0C217.7,61.9,216.9,61.8,216,62L216,62z"/>
	<path class="st2" d="M270,79c-1.4-2.7-0.1-4.9,1.4-7c3.4-3,3.5-4.7,0.5-8.1c0-0.6,0-1.2,0-1.8c1.6-0.3,3-0.1,3.5,1.7
		c0.2,0.8,0.6,1.5,1,2.2c0.3,0.5,0.3,1.3,1.3,1.5c1.8-4.4,4.7-8.6,4.3-13.8c-0.2-2.3,2.6-3.5,2-5.8c0.8,0.3,1.6,0.5,1.7,1.5
		c0.3,6.3,0.5,12.5-5,17.1c-1.9,1.6-2.4,3.9-2.9,6.1c-0.4,1.8-0.7,3.6-2.5,4.5l0,0c-0.8-1.2,0.3-3-1.2-4c-3.2,0.8-3.2,0.8-3.3,4.9
		C270.9,78.5,270.6,78.9,270,79z"/>
	<path class="st2" d="M271,46c1,3.5,1.2,7-0.5,10.4c-2.3-1.7-0.6-5.7-4.1-6.8c-3.2-1-6.2-2.2-9.7-1.4c0,0.9,0.1,1.9,0.1,2.8
		c-1.6,0-3.3-0.1-4.6,1.1l-0.3-0.2c0.6-3.6-1.9-2.9-3.9-3c-0.1-1.6,0.8-2.5,2.3-2.8c3.2-0.8,6.3-2.1,9.6-2c4.7,0.1,9.5,0,14.2,0.1
		C273.9,46.1,272.4,46.1,271,46c-0.1-0.1-0.1-0.3-0.2-0.4c-0.1-0.1-0.2,0-0.3-0.1C270.7,45.7,270.8,45.8,271,46z"/>
	<path class="st2" d="M241.9,146.9c0.4-2.1,0.3-4.2-0.7-6.1c3.5-2.6,3.5-2.6,7.9-2.3c1.8,2.4-0.4,4.7-0.3,7.1
		C246.5,146,244.2,146.4,241.9,146.9z"/>
	<path class="st2" d="M219.3,52.6c1.5-5.6,4.1-6.6,12.2-4.9c0.6,1.3,0.5,2.5-0.2,3.8c-2.1,0.7-4.1,0.1-6.2-0.4
		C223.3,50.7,221.9,53.3,219.3,52.6z"/>
	<path class="st2" d="M258.1,56.4c-0.5,2.1-2.3,1.6-3.6,1.5c-1.6-0.1-3.2-0.6-4.8-0.9c-1-1.1-1.7-2.4-1.6-4c1.2-0.5,2.4-1.1,3.8-1
		l0.3,0.2c-0.4,2.1,0.3,3.5,2.6,3.8C255.9,56.1,257,56.3,258.1,56.4z"/>
	<path class="st5" d="M251.9,51.9c-1.4-0.1-2.6,0.5-3.8,1c0-1.3-0.1-2.6-0.1-4C250,49,252.6,48.3,251.9,51.9z"/>
	<path class="st2" d="M263.9,139.8c1-2.2,1.2-4.9,3.9-6c0.1,0.1,0.3,0.3,0.4,0.4c-0.4,1.5-0.9,3-1.3,4.6
		C266.1,139.7,265.1,140.1,263.9,139.8z"/>
	<path class="st2" d="M281.1,128c-1.3-0.8-1.8-2-1.7-3.7c1.7,0.3,3.2,0.6,4.7,0.9C283.3,126.4,282.4,127.4,281.1,128z"/>
	<path class="st2" d="M204.9,66c-1.7-1.8-0.5-2.9,1-4C207.7,63.9,206.8,65.1,204.9,66z"/>
	<path class="st5" d="M213.1,77c-1.5,1.5-3.1,1-5.2,0.4c1.5-2.1,3.3-1.1,4.8-1.3C212.9,76.4,213,76.7,213.1,77z"/>
	<path class="st2" d="M212.9,144.3c1.1-0.5,1.7-1.9,3.1-2c1.3,0.6,0.8,1.8,0.7,2.8C215.5,145,214.1,145.4,212.9,144.3z"/>
	<path class="st5" d="M196.9,137.1c0.2-0.7,0.1-2,1.2-1.7c1.6,0.4,0.8,1.9,0.9,2.9C198.2,138,197.4,137.8,196.9,137.1z"/>
	<path class="st2" d="M242.8,45.6c0.6-1.9,2-1.7,3.4-1.1C245.5,46.3,244.2,46,242.8,45.6z"/>
	<path class="st2" d="M251,20.4c-0.7,0.8-1.4,0.8-2-0.1C249.8,18.9,250.4,19,251,20.4z"/>
	<path class="st2" d="M112,210c-1.1,0.6-1.2,1.6-1,2.6c1.8,7.9,0.6,15.9,1,23.8c0,0.6,0.1,1.2,0.2,1.9c1.5-0.4,0.4-1.9,1.9-2.8
		c-0.4,5.2-0.5,10.1-0.2,15c0.3,4.9-0.6,9.9,1.7,14.9c-0.1,0.1-0.2,0.6-0.6,0.9c-5.7,4.8-6.1,4.7-11.4-0.3
		c-11.5-10.7-18-24.2-20.2-39.5c-1-7.4-1.4-15.2,0.7-22.8c0.3,0.1,0.7,0.1,1,0.2c0.3,2.8-0.9,5.9,1.6,8.3c1.5-2.6,1.5-5.4,1.5-8.2
		c1.3-0.1,2.6-0.2,3.9-0.3c4.7,0,9.4,0,14.1,0c1.2,0.2,2.4,0.4,3.7,0.5c0.2,0.4,0.4,0.8,0.6,1.2c0.2-0.2,0.4-0.4,0.6-0.6
		c0.6,0,1.3,0.1,1.9,0.1C112.9,206.8,111.7,208.3,112,210L112,210z M108.9,244.2c-3.8,3.6-3.7,5.4,0,8
		C108.9,249.7,108.9,247.3,108.9,244.2z M110.1,236.6c1.1-2.4,1.3-3.9-0.1-5.6C108.7,232.8,108.8,234.2,110.1,236.6z"/>
	<path class="st0" d="M85.2,199.8c-0.4-2.3,0.5-4.4,1.6-6.4c1.3,0.5,1.1,2.9,3.5,2.4c1.1-1.8,3.9-3,3-6.3c-0.1-0.6,0.9-1.2,1.8-1.4
		c2.2,2.6,4.6,2.5,7.2,0.7c1.4,0.5,2.5,0,3.4-1.1c1.3,1.3,3,2.7,4.6,1.9c2.3-1.2,4,0.3,6,0.3c1.1,0.2,2.6-0.3,2.7,1.4
		c0.1,1.7-1.3,1.6-2.5,1.6c-4.3,0-8.5,0-12.8,0c2.1,1.3,4.3,0.9,6.4,1c3.6,0.2,7.3-0.5,10.8,1.2c0.2,1.5,1.5,2.9,0.7,4.6
		c-1.6,0.3-3.1,0.5-4.7,0.8c-3.6-0.6-7.1-0.5-10.7-0.2c-4.7-1-9.5-0.5-14.2-0.3C89.7,200.1,87.4,199.9,85.2,199.8z"/>
	<path class="st2" d="M105.6,187.8c-0.9,1.1-2,1.6-3.4,1.1c-2.8-1.8,0.9-4.8-1.3-7.1c-1.8,1.4-2.9,3.5-5.1,4.2
		c-0.8,0.3-0.7,1.4-0.8,2.2c-0.9,0.1-1.9,0.8-1.8,1.4c0.8,3.3-1.9,4.5-3,6.3c-2.4,0.5-2.2-1.9-3.5-2.4c1.6-4.4,2.8-8.9,6-12.5
		c1,0.9,1.4,2.3,3.5,3c1-1.2,2.2-2.5,3.3-4c1-1.3,0.1-2.9,0.4-4.3c0.3-1.4,1.1-2.2,2.8-2.4c0.1,2-1.3,3.8,0.6,5.7
		c1.9-4.6,3.2-9.1,2.7-13.9c1.1,0,2.2,0,3.2,0c-1,3.4-2,6.6-1.7,10.4C107.8,179.4,105.7,183.6,105.6,187.8z"/>
	<path class="st6" d="M105.9,165c0.5,4.8-0.7,9.3-2.7,13.9c-1.9-1.9-0.5-3.7-0.6-5.7c-1.7,0.2-2.5,1-2.8,2.4c-0.3,1.4,0.7,3-0.4,4.3
		c-1.1,1.4-2.3,2.8-3.3,4c-2.1-0.7-2.5-2.1-3.5-3c0.8-3.6,3.6-5.9,5.5-8.8c0.9-1.4,2.4-2.3,3-3.9c0.3-0.3,0.7-0.7,1-1
		c0.3-0.3,0.7-0.7,1-1c0.3-0.3,0.7-0.7,1-1c0.3-0.1,0.6-0.1,0.8-0.3l0.4,0L105.9,165z"/>
	<path class="st3" d="M85.2,199.8c2.3,0.1,4.5,0.2,6.8,0.3c0,1.2,0,2.5,0.1,3.7c-1.3,0.1-2.6,0.2-3.9,0.3c-1,0-2.1-0.1-3.1-0.1
		c-0.3-0.1-0.7-0.1-1-0.2C84.2,202.5,83.5,200.8,85.2,199.8z"/>
	<path class="st2" d="M120.2,267c1,1.6,0.8,2.5-0.7,3.4C118.9,269.2,118.8,268.3,120.2,267z"/>
	<path class="st2" d="M113,212c-1-0.3-1-1.2-1-2l0,0C112.9,210.4,112.9,211.2,113,212L113,212z"/>
	<path class="st3" d="M10.8,48c0.1-4,2.9-6.6,4.9-9.5c10.9-15.8,26.5-24.4,44.9-28.4c1.7-0.4,3.6-0.1,5.5-0.1
		c0.1,0.6,0.2,1.3,0.3,1.9c-0.7,2.7-3.5,3.5-5.8,5.7c3,0,4.8-0.8,6.7-1.7c0.9,0.3,1.8,0.6,2.7,1c4.4-0.8,8.4,1.8,12.8,1.3
		c1-0.1,1.2,0.9,1.3,1.7c-0.5,0.2-1.4,0-1.3,1c0.6,0.1,1.3,0.2,1.9,0.2c0.8,0,1.6-0.1,2.4-0.1c0.6,1.1,1.6,0.9,2.6,1.1
		c5.4,0.9,10.4,2.5,15.3,5.7c-3.3,1.2-6.2-2.1-9.2-0.2c4.6,3.6,10.2,4.4,15.3,6.5c2.6,2.9,4.4,6.3,4.6,10.3c1.1,0.2,1.2-1.7,2.5-1.1
		c-0.4,1.6,0.5,3.6-1,5c-0.5-1-1-2.1-2.7-1.8c-0.5,1.6-1.3,3.3,1.6,3.6c-2.3,3.3-2.2,7.1-2.1,10.9c0.1,2.5,0.7,5.5-0.5,7.3
		c-2.2,3.6-2.3,7.5-3.2,11.3c-1.4,5.6,1.2,8.7,6.9,8.2c1.5-0.1,3.2-0.7,4.5-1.8c1.3-1.1,2.8-2,4.5-1.8c5.3,0.5,10.5-1.1,15.8-1.1
		c-0.3,2.3,0.9,4.9-0.9,7c-11,0.3-18.7,6.6-25.2,14.6c-2.1,2.6-1.4,5.3,1.4,7.5c1.3,1.1,2.6,2.2,3,3.8c0.9,3.2,2.8,6,3.9,9.1
		c-2.2,5.1-7,7.6-11,10.9c-2.1,1.8-4.6,3.1-7.2,4.1c-4.2-0.8-8.3-1.8-10.2-6.3c-1.1-2.5-3.1-2.8-5.3-1.9c-1-1.8,0-3.7-1.3-5
		c-0.2-0.8-0.4-1.7-1.4-1.8l-0.2-0.4c2.2-2.7,5.2-4.3,8.5-5.5c0.3-0.3,0.6-0.7,1-1c0.6-0.2,0.9-0.5,0.9-1.1l0,0
		c2.6-0.3,2.3-3,3.4-4.4c3.4-4.4,4.7-10.1,6.4-15.3c1.3-4.1,0.3-8.9,0.4-13.4c0-1.2-0.7-1.8-1.8-2.1c-0.8-2.4,3.1-1.1,2.6-3.3
		c0.1-1.6-1.9-2.3-1.6-3.9c0.5-1.2,1.9-1.9,1.9-3.4c1.1-1.5,1.8-3,1-5c-0.7-1.9-0.7-4-0.1-5.9c1.4-4.4-0.3-8.4-1-12.6
		c-0.2-1.2-0.8-1.8-1.9-1.9c-0.1-0.8,0.1-1.8-1.2-1.9l0,0c0.2-1.8,0.2-3.4-2-4l0,0c-0.3-3.9-3-5-6.3-5.5l-0.3-0.2
		c-1-2.6-2.4-4.7-5.7-3.9l-0.2-0.1c-1.8-3.7-5.5-3.3-8.6-4.1l0,0c-0.7-1.1-1.8-1.2-2.9-1l0.1-0.2c-3.2-2.3-7.2-1.2-10.6-2.6
		c-1.1-0.4-2.6-0.7-3.5,0.7c-0.6,0-1.3,0.1-1.9,0.1c-2.9-1.1-9.1,0.3-12.1,2.8l0,0c-2.9-0.8-4.3,2.6-6.3,2.8
		c-5.6,0.3-8.5,4.7-11.3,8c-3.9,4.6-8.4,5.8-13.8,6.4c-0.8,0.1-1.7-0.1-2.4,1.1c1.4,2.3,4.3,3.5,5.2,6.5c1.5,4.7,0.7,10.9-2.4,13.4
		c-1.4,0.1-2.9-0.1-4.2,0.7c-1.6-0.5-2.4,1.1-3.7,1.3c-1-0.1-2.1-0.2-2-1.6c0.1-3.5-0.4-7,0.4-10.4C12,51.9,12.9,49.8,10.8,48z
		 M112.5,65.1c0.4-1.6,0.8-3.5-0.1-5.8C111.9,61.4,112,63.1,112.5,65.1z"/>
	<path class="st7" d="M142,83c-5.3,0-10.5,1.6-15.8,1.1c-1.7-0.2-3.2,0.7-4.5,1.8c-1.4,1.1-3,1.7-4.5,1.8c-5.6,0.5-8.3-2.7-6.9-8.2
		c1-3.8,1.1-7.7,3.2-11.3c1.1-1.9,0.5-4.9,0.5-7.3c-0.1-3.8-0.2-7.6,2.1-10.9c0.8-0.3,0.9-1,1-1.8c1.5-1.4,0.6-3.3,1-5
		c0.3-0.1,0.7-0.2,1-0.3c4.1,0.6,7.1-1.6,10.1-3.9c5.1,5.4,8.2,11.9,9.8,19.1c0.4,2.7-1.1,5.6,0.9,8.1l0,0.5
		c0.1,0.7,0.3,1.2,1.1,1.3l0,0c0,1.1-0.3,2.4,1,3.1C142,75.1,142,79,142,83z"/>
	<path class="st8" d="M16.8,64.7c1.3-0.9,2.8-0.6,4.2-0.7c4.1,4.3,8.5,8.3,10.7,13.7c1.1,0.1,2-0.4,2-0.9c-0.1-3.4,2-6.2,2.7-9.3
		c0.8-3.7,0.9-8,4.9-10.2c-1.8,6.2-0.9,12.8-3.2,18.6c5.8,6.3,6.6,12.1,2.4,14.6c-1.4-0.4-2.9-1.2-4.3,0.5c0,1.8,0.9,3.5,0.2,5.6
		c-0.6,1.7-0.4,3.9,0,5.9c1.6,7.5,5.9,13.7,9.3,20.4c0.4,0.7,1.1,1.2,1.7,1.8c5.3,4.4,10.6,9,17.5,10.9c0.5,0.1,0.9,0.9,1.3,1.4
		c-3.8,0.7-7.3-0.9-11-1c-0.1-0.4-0.2-0.9-0.3-1.3c-0.2,0.1-0.5,0.2-0.6,0.4c-0.1,0.5,0.3,0.9,0.8,1c0.2,0.8,1.1,1.3,0.7,2.6
		c-1.3,0.3-2.9,0.7-4.3,2.1c3.7,0.2,2.9,3.2,3.6,5.4c-3.6-0.1-6.9-1.2-10-3.1c-0.4-0.9-1.2-0.9-2-0.9l0.1,0.1
		c-0.3-1.1-1.2-1.1-2.1-1.1l0.1,0.1c0.3-1.9-1.9-2.4-2.1-4.3c-0.5-5.6-3-10.7-5.4-15.6c-3-6.1-5-12.1-4.5-19
		c0.1-1.5,0.7-3.4-1.2-4.4c1.8-3.6,1.7-4-1.8-5.7c4.2-1.9,5.7-4.4,5-8.9c-0.5-3-1.4-6.1-4.8-7.5c-1.2-0.5-2.4-1.1-2.2-2.8
		c-0.9-4.2-1.2-4.4-7.1-5.1C16.8,66.7,16.8,65.7,16.8,64.7z"/>
	<path class="st3" d="M25.9,92.1c3.5,1.7,3.7,2.1,1.8,5.7c-1.2,0.7-2.5,1.5-3.7,2.2c-3.8,0.6-6.4-0.7-7.7-4.7
		c-0.5,6.9-3.9,13-3.3,19.8c-4.7-6.4-7.4-13.7-8.8-21.3C1.8,80.5,2.2,67.4,6.9,54.6c0.5-1.4,0.8-2.9,2.1-3.8
		c-0.2,2.3-0.3,4.5-0.7,6.8c-1,6-0.2,11.9,2.4,17.5c1.5,3.2,1,6.8,2,10.1C14.9,92.1,18.9,94.2,25.9,92.1z M7.7,81.8
		c0.9-0.2,1.2-0.9,1.6-1.6c0.4-0.8,0.6-1.5-0.3-2.1C7.2,79.2,7.2,79.2,7.7,81.8z"/>
	<path class="st9" d="M124.3,125c-1.1-3.1-3-5.8-3.9-9.1c-0.4-1.6-1.7-2.8-3-3.8c-2.8-2.2-3.6-4.9-1.4-7.5
		c6.5-8,14.2-14.3,25.2-14.6c-0.2,7.4-2.2,14.2-6.5,20.4c-0.4,0.5-0.8,1-0.7,1.7l0.1-0.1c-4.6,1.8-6.6,5.4-7,10.1
		C127,123.8,126.1,124.9,124.3,125z"/>
	<path class="st10" d="M24.1,100c1.2-0.7,2.5-1.5,3.7-2.2c2,1,1.3,2.9,1.2,4.4c-0.5,6.8,1.5,12.9,4.5,19c2.4,4.9,5,10,5.4,15.6
		c0.2,1.9,2.4,2.4,2.1,4.3c-9.4-4.3-17.1-10.7-23.2-19c1.1-6.9,1.2-13.8,1.2-20.4C21,100.6,23,101.8,24.1,100z"/>
	<path class="st9" d="M89.3,126.8c1.3,1.3,0.4,3.2,1.3,5c2.2-0.9,4.2-0.5,5.3,1.9c1.9,4.5,6,5.6,10.2,6.3c-7.7,5-16.1,7.7-25.3,8
		c-0.8-3.1,2.4-4.6,3.4-7.5c-3.8-0.9-7.2-0.3-10.6-0.6c-1.5-0.1-3.4,0.8-4.5-1c4.8,0.1,9.5-0.7,14.1-1.5c0.6-0.2,1.1-0.4,1.7-0.6
		c0.7,0.1,1-0.2,1.1-0.9c0.3-0.4,0.6-0.7,0.9-1.1c2.9-2,2-4.9,2-7.7C89,127,89.1,126.9,89.3,126.8z"/>
	<path class="st3" d="M129.3,39c-3,2.3-6,4.5-10.1,3.9c0.8-0.8,1-1.7,0.7-2.8c0-1.6,0.1-3.3,0.1-4.9c0-1.4-0.6-2.1-2-2.3
		c-0.3-0.3-0.7-0.7-1-1c-0.2-1.1,0.1-2.5-1-3.2c-5-3-9.6-6.7-15.2-8.8c0.3-2.2-1.4-2.7-2.8-3.5c-2.5-1.5-5.7-1.7-7.7-4.2
		c5.3-0.1,9.9,2.3,14.3,4.7c9.3,5,17.5,11.2,23.6,19.9C128.7,37.4,128.9,38.2,129.3,39z"/>
	<path class="st3" d="M69,138.9c1.2,1.9,3,0.9,4.5,1c3.4,0.3,6.9-0.3,10.6,0.6c-1,2.8-4.2,4.3-3.4,7.5c-7.4,1.9-14.7,1.4-21.9-1
		c1.3-4.7,5.2-6.6,9.2-8.3C68.4,138.8,68.7,138.9,69,138.9z"/>
	<path class="st8" d="M24.1,100c-1.1,1.8-3.1,0.6-5.1,1.8c0,6.6-0.2,13.5-1.2,20.4c-2.1-2-3.4-4.6-4.7-7.1
		c-0.5-6.7,2.8-12.8,3.3-19.8C17.6,99.3,20.3,100.6,24.1,100z"/>
	<path class="st9" d="M68.1,138.8c-4,1.7-7.8,3.6-9.2,8.3c-1.3-0.2-2.9,0.6-4-1c-0.7-2.1,0.1-5.1-3.6-5.4c1.4-1.4,3-1.8,4.3-2.1
		c0.4-1.3-0.5-1.8-0.7-2.6l0.1-0.1c3.7,0.1,7.2,1.7,11,1c0.6,0.1,1.1,0.2,1.7,0.4C67.8,137.8,67.9,138.3,68.1,138.8z"/>
	<path class="st8" d="M66.4,11.9c-0.1-0.6-0.2-1.3-0.3-1.9c1.4-1.4,3.1-0.8,4.7-0.8c5.4-0.1,10.7,0.6,16,1.9
		c0.1,0.4,0.2,0.8,0.3,1.2c0.3,1-0.5,1.7-0.9,2.5c-2.4,0.4-4.8,0.8-6.9,1.2c-1.4-0.7-0.6-2.2-0.8-2.2c-2.6-0.8-4.6-4-7.8-2.5
		C69.2,11.9,67.8,11.8,66.4,11.9z"/>
	<path class="st9" d="M10.8,75.1c-2.7-5.6-3.4-11.5-2.4-17.5c0.4-2.3,0.5-4.5,0.7-6.8c0.6-0.9,0.7-2.2,1.8-2.8c2,1.8,1.1,3.9,0.6,6
		c-0.8,3.5-0.4,6.9-0.4,10.4c0,1.4,1,1.5,2,1.6C11.2,68.7,10.5,71.8,10.8,75.1z"/>
	<path class="st10" d="M86.1,14.7c0.4-0.8,1.2-1.4,0.9-2.5c1.1,0,2.3,0,3.4-0.1l-0.1,0c2,2.5,5.2,2.7,7.7,4.2
		c1.4,0.9,3.2,1.3,2.8,3.5c-0.7,0.1-1.3,0.2-2,0.3c-0.6-0.4-1.2-0.8-1.8-1.3C93.7,16.9,90.6,13.9,86.1,14.7z"/>
	<path class="st10" d="M127,122c0.4-4.7,2.4-8.3,7-10.1c0.2,1-1.2,2.1,0,3.1l0,0c-1.7-0.9-1.7,0.8-2.4,1.5
		C130.1,118.3,129.5,121,127,122z"/>
	<path class="st3" d="M140,66.2c-2-2.5-0.5-5.4-0.9-8.1C140.9,60.7,139.4,63.6,140,66.2z"/>
	<path class="st3" d="M142,71.1c-1.4-0.7-1-1.9-1-3.1C142.4,68.6,142,70,142,71.1z"/>
	<path class="st3" d="M90.5,12.2c-1.1,0-2.3,0-3.4,0.1c-0.1-0.4-0.2-0.8-0.3-1.2C88.1,10.9,89.5,10.8,90.5,12.2z"/>
	<path class="st10" d="M134,112c-0.2-0.7,0.3-1.2,0.7-1.7C134.7,111.1,134.7,111.7,134,112z"/>
	<path class="st10" d="M40.9,141c0.9,0,1.8-0.1,2.1,1.1C42.2,142,41.4,141.9,40.9,141z"/>
	<path class="st10" d="M42.9,142c0.8,0,1.6,0,2,0.9C44.2,142.9,43.4,142.9,42.9,142z"/>
	<path class="st3" d="M141,68c-0.7-0.1-1-0.6-1.1-1.3C140.3,67.2,140.7,67.6,141,68z"/>
	<path class="st6" d="M105.6,187.8c0.1-4.3,2.2-8.4,1.9-12.5c-0.3-3.8,0.6-7,1.7-10.4c1.6-1.2,1.9-3,1.9-4.8c3.9-2.3,7-6,11.9-6.3
		c0.2,1.1-0.3,2-0.9,2.7c-4.2,4.7-2.9,10.8-4,16.3c-0.2,0.8,0,1.6,0.9,2.1c0,2.3-0.1,4.7-0.1,7c-2.7,2.1-3.2,4.8-2.6,8
		c-2,0-3.7-1.5-6-0.3C108.6,190.6,106.9,189.1,105.6,187.8z"/>
	<path class="st5" d="M111.1,160.2c-0.1,1.8-0.4,3.6-1.9,4.8c-1.1,0-2.2,0-3.2,0l-0.4,0l-0.4,0c0-0.3,0.1-0.5,0.1-0.8
		C107.9,163.9,108.6,160.8,111.1,160.2z"/>
	<path class="st6" d="M128,151c-0.1,3.7-2.8,3-5.1,3C124,151.9,126.3,151.9,128,151z"/>
	<path class="st1" d="M137.4,202.9c0.5-1.8,2.2-2.5,1.2-4.3c-1.7-1.7-4.5,0.5-6.4-1.3c-0.9-3.2,3.2-1.9,3.4-3.3
		c0.5-2.4-1.5-2.5-2-3.8c5.9-1.5,11.7-0.5,17.4,0.7c1.8,0.4,3.8,0.6,3.9,3c0.2,2.9,0.4,6.4-2.6,7.5
		C147.8,203.3,142.8,205.1,137.4,202.9z"/>
	<path class="st1" d="M118.8,182c0-2.3,0.1-4.7,0.1-7c4.2-2.6,3-6.7,2.3-11.1c3.5,2,3.2,4.8,2.6,7.1c-0.7,2.7-0.4,5.1,0,7.8
		c1.3,9,3.1,18,2,27.9c-0.9-2-1.5-3.5-2.2-5c-0.8,0.9-0.8,2.1-2.4,2.5c-5,1.3-4.9,1.5-5.1,6.7c0,0.9,0.4,2-0.7,2.7
		c-1.4,0.3-1.3-1.4-2.3-1.6c-0.1-0.8-0.1-1.6-1-2c-0.3-1.7,0.8-3.2,0.9-4.9c2.4-0.6,4.2-1.7,3.9-4.6c1.6-0.3,3.1-0.5,4.7-0.8
		c0.8-1.8-0.5-3.1-0.7-4.6C120.9,192.5,119.6,183.7,118.8,182z"/>
	<path class="st1" d="M169.8,260.9c-1.6-0.1-2.7,0.9-4,1.6c-6.5,3.4-12.5,0.4-14.5-7.8c6.1,2.8,12.1,3.8,18.4,3.3
		C169.8,259.2,169.8,260,169.8,260.9L169.8,260.9z"/>
	<path class="st0" d="M142.1,210.6c-0.7,3.5-2.4,4.7-5.5,4C136.3,210.1,136.6,209.8,142.1,210.6z"/>
	<path class="st11" d="M130.7,237.8c0.3,2.1,0.5,4.3-0.2,7.5c-0.6-3.2-1-5.3-1.4-7.4C129.7,237.8,130.2,237.8,130.7,237.8z"/>
	<path class="st0" d="M130.7,237.8c-0.5,0-1,0.1-1.6,0.1c0.2-1.2-0.7-2.6,0.8-3.6C131.4,235.2,130.7,236.6,130.7,237.8z"/>
	<polygon class="st0" points="128.5,232.3 128.6,232.6 128.4,232.6 	"/>
	<polygon class="st1" points="132.7,258.5 132.4,258.6 132.4,258.4 	"/>
	<path class="st1" d="M202,245l-0.5,0l-0.5-0.1c0-6.1,0-12.2,0-18.2c0.3,0,0.7,0,1,0C202,232.8,202,238.9,202,245z"/>
	<path class="st1" d="M275.5,77.1L275.5,77.1c0.1,0.5,0.2,1,0.3,1.4c0.2,0.8,0.4,1.7,0.6,2.5c0.9,1.9,0.6,3.9,0.8,6.3
		c-5.8,0.9-7.1,6.5-10.2,11.5c-1.5-4-1.4-6.9,0-9.5c1.8-3.3,2.4-6.8,3-10.4c0.6-0.1,0.9-0.5,1-1C272.6,78.2,274,77.6,275.5,77.1z"/>
	<path class="st1" d="M258.1,56.4c-1.1-0.1-2.3-0.3-3.4-0.4c-2.3-0.3-3-1.7-2.6-3.8c1.3-1.2,3-1,4.6-1.1c1.1,0.6,1.7,2.1,3.2,2.1
		c0.7,1.1,1.5,2,3,1.6c1.1,1.1,0.7,2-0.6,1.7C261,56.2,259.6,56,258.1,56.4z"/>
	<path class="st2" d="M261.5,82.1c-2-2.3-0.8-5.2-1.9-7.6C262.8,76.4,261.6,79.4,261.5,82.1z"/>
	<path class="st1" d="M272,63.9c2.9,3.4,2.8,5-0.5,8.1C271.6,69.3,271.8,66.6,272,63.9z"/>
	<path class="st1" d="M259.1,64.3c-3.1-0.2-6.1-0.5-8.2-3.1c0.2-0.2,0.4-0.4,0.6-0.6c2.5,0.8,4.7,2.5,7.5,2.5
		C259,63.5,259,63.9,259.1,64.3z"/>
	<path class="st2" d="M259.1,64.3c0-0.4-0.1-0.8-0.1-1.2c1.5,0,2.9,0,4.8,0C262.3,65.4,260.8,65.5,259.1,64.3z"/>
	<path class="st2" d="M276.4,81c-0.2-0.8-0.4-1.7-0.6-2.5c0.9-0.3,1.9-0.6,2.7,0.2C278.6,80.2,276.8,80,276.4,81z"/>
	<path class="st1" d="M270.7,122.5c-2-0.5-2.7-1.5-2.8-3.2C270.3,119.9,270.3,119.9,270.7,122.5z"/>
	<path class="st2" d="M263.1,54.9c-1.5,0.4-2.3-0.5-3-1.6C261.6,51.9,262.2,52.1,263.1,54.9z"/>
	<path class="st2" d="M255.7,80.8c0.1,0.6-0.4,0.9-0.8,1c-0.7,0.2-1.3,0.1-1.5-0.7c-0.2-0.6,0.3-0.9,0.8-1
		C254.8,79.9,255.4,80,255.7,80.8z"/>
	<path class="st2" d="M272.1,125.1c-0.1,0.8-0.2,1.9-1.2,1.6c-1-0.3-0.9-1.1,0-1.7C271.2,125,271.7,125.1,272.1,125.1z"/>
	<path class="st2" d="M274.6,124.6c0.6,0.5,0.6,1.4,0.1,1.6c-1.1,0.4-0.6-0.6-0.6-1.1C274.1,125,274.4,124.8,274.6,124.6z"/>
	<path class="st1" d="M272.1,125.1c-0.4,0-0.8-0.1-1.2-0.1c0.1-0.7-0.4-1.9,0.6-1.9C272.5,123.1,272.8,124.1,272.1,125.1z"/>
	<path class="st2" d="M267.8,133.8c0.2-0.2,0.6-0.6,0.6-0.5c0.6,0.5,0.1,0.7-0.2,0.9C268,134,267.9,133.9,267.8,133.8z"/>
	<path class="st1" d="M250.8,61.2c-0.4-0.2-0.9-0.6-0.5-1c0.4-0.4,0.8,0.1,1.1,0.4C251.2,60.8,251,61,250.8,61.2z"/>
	<polygon class="st2" points="263.7,95.6 263.4,95.7 263.4,95.4 	"/>
	<path class="st2" d="M261.9,97.8c0.2-0.2,0.5-0.6,0.6-0.6c0.6,0.5,0.1,0.7-0.2,0.9L261.9,97.8z"/>
	<path class="st1" d="M213,90.4c-2.4-0.4-5.5,0.3-6.2-3.3c3-2,6.3-3.6,8.8-6.6c4.7,12.4,10.7,23.6,24.8,28.4
		c-4.3,0.9-9.8-0.2-12.8-2.3c-3.7-2.7-5.5-6.5-7.7-10.1c-2.4-0.3-4,3.3-6.5,1c-0.1-2.4,2.8-0.4,3.2-2.2c0.8-2.6-0.9-4.5-1.8-6.6
		C213.7,88.9,213.2,89.5,213,90.4z"/>
	<path class="st5" d="M229,65.1c0.5,2.8-0.5,5.4-2.3,7.3c-2.9,3.1-3.3,6.2-1.7,9.9c0.3,0.7,0.2,1.6-0.5,2.3
		c-2.7-1.4-3.8-4.4-3.4-7.9c0.5-4.1,2.3-7.6,4-11.3C226.4,65.3,227.7,65.2,229,65.1z"/>
	<path class="st1" d="M229,65.1c-1.3,0.1-2.6,0.2-3.8,0.3c-1.3-0.1-2.5-0.3-3.8-0.4c-1.5-0.1-2.9-0.2-3.3-2c6,2.1,11.5,0.1,17-2
		c0.3,1.8-0.9,3-1.7,4.3C231.7,66.3,230.6,62.3,229,65.1z"/>
	<path class="st1" d="M231.6,82.9c-2-0.7-2.8-1.6-2.4-3.4C232,79.3,232,79.3,231.6,82.9z"/>
	<path class="st1" d="M218,106.3c-0.7-0.1-1.4-0.1-2.1-0.2c0.3-1.3-0.7-2.9,1.1-4C218.6,103.2,218.1,104.8,218,106.3z"/>
	<path class="st1" d="M204.8,70.6c0.3,1.6,0.7,3.1-0.9,4.7C203.8,72.7,203.8,72.7,204.8,70.6z"/>
	<path class="st1" d="M236.6,69.4c1.2-0.6,2.1-0.3,2.8,0.9c-0.3,1.2-1.2,0.8-1.8,0.5C237,70.6,236.5,70.2,236.6,69.4z"/>
	<path class="st5" d="M196.7,124.1c0.1,0.4-0.4,0.6-0.8,0.8c-0.7,0.2-1.4,0-1.6-0.6c-0.3-0.6,0.1-1.2,0.9-1.3
		C195.9,123,196.5,123.2,196.7,124.1z"/>
	<path class="st1" d="M215,101.3c-0.2,0.4-0.5,0.5-0.7,0.2c-0.1-0.2-0.1-0.6-0.1-0.8c0-0.1,0.2-0.1,0.4-0.2
		C214.8,100.7,214.9,101,215,101.3z"/>
	<path class="st1" d="M216,62c0.9-0.2,1.7-0.1,2,1C217.1,63.1,216.2,63.2,216,62z"/>
	<path class="st5" d="M275.5,77.1c-1.4,0.5-2.9,1.1-4.5,0.9c0.1-4,0.1-4,3.3-4.9C275.7,74.1,274.7,75.8,275.5,77.1z"/>
	<path class="st5" d="M271,46c-0.2-0.2-0.4-0.3-0.5-0.5c0.1,0,0.3,0,0.3,0.1C270.9,45.7,270.9,45.9,271,46L271,46z"/>
	<path class="st1" d="M92,203.9c0-1.2,0-2.5-0.1-3.7c4.7-0.3,9.5-0.7,14.2,0.3c0,1.1,0,2.3,0,3.4C101.4,203.9,96.7,203.9,92,203.9z"
		/>
	<path class="st3" d="M106.1,203.9c0-1.1,0-2.3,0-3.4c3.6-0.3,7.1-0.5,10.7,0.2c0.3,2.9-1.5,4-3.9,4.6c-0.6,0-1.3-0.1-1.9-0.1
		c-0.2-0.6-0.6-0.8-1.2-0.6C108.6,204.2,107.3,204,106.1,203.9z"/>
	<path class="st1" d="M85,204c1,0,2.1,0.1,3.1,0.1c0,2.8,0,5.6-1.5,8.2C84.1,209.9,85.3,206.8,85,204z"/>
	<path class="st1" d="M108.9,244.2c0,3.1,0,5.5,0,8C105.2,249.6,105.1,247.8,108.9,244.2z"/>
	<path class="st1" d="M110.1,236.6c-1.3-2.4-1.4-3.8-0.1-5.6C111.4,232.7,111.1,234.1,110.1,236.6z"/>
	<path class="st1" d="M109.8,204.4c0.6-0.2,1,0,1.2,0.6c-0.2,0.2-0.4,0.4-0.6,0.6C110.2,205.2,110,204.8,109.8,204.4z"/>
	<path class="st2" d="M118.8,182c0.8,1.7,2.1,10.4,2,13.1c-3.4-1.7-7.2-1-10.8-1.2c-2.1-0.1-4.3,0.4-6.4-1c4.3,0,8.5,0,12.8,0
		c1.1,0,2.6,0.1,2.5-1.6c-0.1-1.7-1.6-1.2-2.7-1.4C115.6,186.9,116.2,184.1,118.8,182z"/>
	<path class="st6" d="M95.1,188.2c0.1-0.8,0-1.9,0.8-2.2c2.2-0.7,3.3-2.8,5.1-4.2c2.2,2.2-1.5,5.3,1.3,7.1
		C99.7,190.7,97.3,190.9,95.1,188.2z"/>
	<path class="st10" d="M67.7,137.3c-0.6-0.1-1.1-0.2-1.7-0.4c-0.4-0.5-0.8-1.3-1.3-1.4c-6.9-1.9-12.2-6.5-17.5-10.9
		c-0.6-0.5-1.4-1.1-1.7-1.8c-3.4-6.7-7.7-12.9-9.3-20.4c-0.4-2-0.7-4.2,0-5.9C37,94.5,36,92.7,36,91c1.4-1.6,2.8-0.9,4.3-0.5
		c4.2-2.5,3.4-8.4-2.4-14.6c2.3-5.9,1.5-12.5,3.2-18.6c0.6-0.4,1.2-0.9,1.7-1.3c3.7-2,7-4.7,9.1-8.3c1.3-2.2,2.1-4.3,1.2-7.3
		c-0.8-2.8-1.1-6.4,1.3-9c2.3-2.6,4.7-5,8.8-4.3c1.5,0.2,3.1-0.8,4.7-1.3c4-1.1,8-0.4,12-0.7L80,25.1c0.7,1.2,1.8,1,2.9,1l0,0
		c2.4,2.4,5.5,3.4,8.6,4.1l0.2,0.1c1.4,2,3.1,3.6,5.7,3.9l0.3,0.2c1.3,2.8,3.5,4.4,6.3,5.5l0,0c-0.1,1.7-0.1,3.4,2,4l0,0
		c0.3,7.2-2.4,13.6-4.9,19.7c0.5,1.8,5.1,1.4,1.9,4.4c-1.1-0.7-2.3-1-3.7-0.9c-2.6,0.2-2.4-1.5-2.1-3.2c1.6-2.6-1.2-3.2-2.2-3.2
		c-2,0-2.4,1.7-1.7,3.5c-0.1,0.9-0.1,1.8-0.2,2.8C91.5,68,91.7,69,93.1,70l0,0c-0.1,0.8-0.1,1.7,0.9,2.1c0.2,0.2,0.3,0.3,0.3,0.6
		c-0.1,0.7,0.1,1.1,0.7,1.4c0.2,0.2,0.2,0.3,0.3,0.6c-0.2,1.5-1,3.2,0.8,4.4c0.1,0.8,0,1.7,0.2,2.5c0.5,2.8-0.3,4.2-3.2,5
		c-2.2,0.6-3.5,0.6-5.4-0.8c-3-2.2-5.2-1.6-8,1.5c3.1,1.2,6.6-0.4,9.4,1.2c0.2,2-2,2.7-1.5,4.4c0.6,1.1,1.7,0.8,2.6,0.9l0.1,0.1
		c0,0.7,0.3,0.9,0.9,0.8c0.6,0.8,1.2,1.5,1.9,2.3c-0.2,1-0.3,2.2-1.7,1.6c-2.1-0.9-4.2-0.6-6.3-0.5c-0.3,0-0.6-0.1-0.9-0.2
		c-3.4-1.5-6.7-1.4-10.1,0c-6.3,2.7-7,4.2-4,9.1c1.6,2.6,4.2,3.8,6.9,5c0.4,0.6,0.8,1.2,1.3,1.8c0.2,1.9,2.3,1.7,3.4,2.8
		c-1.9,0.8-5.1-0.6-4.3,2.8c0.5,2.2,3.2,3.1,4.8,4.7c1.1,1.1,2.7,1.1,4,0c0.5,0.1,1.1,0.2,1.6,0.2l0.2,0.4c0,0.7-0.1,1.4-0.1,2.1
		c-1.6,2.5-0.3,5.2-0.8,7.8c-0.3,0.4-0.6,0.7-0.9,1.1c-0.6,0.1-0.9,0.4-1.1,0.9c-0.6,0.2-1.1,0.4-1.7,0.6c-1.2-1-2.5-1.9-4-1.4
		C75.5,137.4,71.5,136.6,67.7,137.3z M78.1,60.5c-2.8-2.3-5.8-1.9-9.5-0.6c2.5,1.6,4.4,2.8,6.4,4c0.2,1.6-0.9,1.9-2.1,2.2
		c-0.9-0.1-1.9-0.2-2.8-0.3c-0.4-0.6-0.7-0.7-1.2,0c-0.7,0-1.3-0.1-2-0.1c-2.7-1.5-5.5-0.8-9.2-0.3c3.5,2.4,6.5,1.4,9.3,1.5
		c0.3,0,0.6,0.1,0.9,0.2c-0.6,1.6-2.5,0.3-3.3,1.4c2.4,3.8,6,4.8,10.2,4.4c4.5-0.4,6.1-4.4,9-7.1c-0.9-1.9-1.5-4.1-3.9-4.7
		C79.3,60.9,78.7,60.7,78.1,60.5z M62.4,96.1c4.2-4.9,10.2-8.2,12.8-14.5C69.4,85.1,64.3,89.2,62.4,96.1z"/>
	<path class="st9" d="M42.9,55.9c-0.6,0.4-1.2,0.9-1.7,1.3c-4,2.3-4,6.6-4.9,10.2c-0.7,3.2-2.8,5.9-2.7,9.3c0,0.5-0.8,1-2,0.9
		C29.5,72.2,25,68.2,21,64c3.2-2.5,4-8.6,2.4-13.4c-1-3-3.8-4.2-5.2-6.5c0.7-1.2,1.6-1,2.4-1.1c5.3-0.5,9.9-1.8,13.8-6.4
		c2.8-3.3,5.7-7.7,11.3-8c2-0.1,3.4-3.5,6.3-2.8c-0.5,2.2-2.3,4-2.1,6.4c-4.7-0.1-8.3,2.5-7.7,5.8c0.6,2.6-0.4,4.3-1.7,6.3
		c-1.9,3-1.8,4.6-0.1,7.2c1.7-7.5,1.7-7.5,5.6-5C44.9,49.7,43.9,52.8,42.9,55.9z M33,60c-0.8,0.3-1.3,0.6-0.3,1.4
		C32.8,60.9,32.9,60.4,33,60c0.1-0.1,0.3-0.1,0.4-0.2l0.1-0.3C33.2,59.4,33,59.6,33,60z M31.3,55.5c0.1,0-0.1,0.4,0.1,0.8
		c0.1,0.2,0.6,0.4,0.8,0.3c0.5-0.2,0.7-0.6,0.5-1.1C32.6,55.2,32.3,55.1,31.3,55.5z"/>
	<path class="st10" d="M10.8,75.1c-0.3-3.3,0.4-6.4,2.2-9.1c1.3-0.2,2.1-1.8,3.7-1.3c0,1,0.1,2,0.1,3c-4.1,0.3-3.3,3.4-3.5,5.9
		c-0.2,0.9-0.5,1.9,0.1,2.8c1.8-0.6,1.6-2.1,1.4-3.6c1.6-3.6,2.4-3.9,6.2-1.9c-0.1,0.9-0.2,1.9,1.2,1.8c0.6,0,1.1,0,1.7,0
		c-0.3,1.7,0.9,2.4,2.2,2.8c3.4,1.4,4.3,4.4,4.8,7.5c0.8,4.6-0.8,7-5,8.9c-7.1,2.2-11,0-13.1-6.9C11.8,81.9,12.3,78.3,10.8,75.1z
		 M23,76.7c-0.7,0-1.4,0.1-2,0.1c-2.9-2-4.4-0.2-6,2.1c0.9,1.8,1.4,3.7,3.4,4.6c0.9-1,1.7-2,1.6-3.4c1.2,0.1,1.9-0.8,2.9-1.2
		c1.1-0.2,1.1-1,1.1-1.8C23.9,76.5,23.6,76.1,23,76.7z"/>
	<path class="st9" d="M98.9,20.2c0.7-0.1,1.3-0.2,2-0.3c5.5,2.1,10.1,5.8,15.2,8.8c1.1,0.7,0.8,2.1,1,3.2c-0.2,0.2-0.4,0.4-0.5,0.6
		c-0.2-0.1-0.4,0-0.5,0.1c-0.3-1.5-0.9-3-2.8-2.4c-1.8,0.5-2.6,1.8-2.2,3.7c-5.1-2.1-10.8-2.9-15.3-6.5c3-1.9,5.8,1.4,9.2,0.2
		c-4.8-3.2-9.9-4.8-15.3-5.7c-1-0.2-2,0-2.6-1.1c-0.7-1.3-2-0.7-3.1-1.1c0-0.9-0.3-1.8-1.3-1.7c-4.4,0.5-8.4-2.1-12.8-1.3
		c0.1-3.1,3.3-0.9,4.6-2.8c-2.7,0.4-5.5-1.1-7.3,1.9c-1.8,0.9-3.7,1.7-6.7,1.7c2.4-2.2,5.2-3,5.8-5.7c1.4-0.1,2.8,0,4.3-0.7
		c3.2-1.5,5.2,1.7,7.8,2.5c0.2,0.1-0.6,1.5,0.8,2.2c2.1-0.4,4.5-0.8,6.9-1.2c4.5-0.8,7.5,2.1,10.9,4.2c-1.8,0.1-3.5,0.2-6,0.3
		c2.9,2,5.4,2.8,8.6,2.8C99.3,21.1,99.1,20.6,98.9,20.2z"/>
	<path class="st8" d="M42.9,55.9c1-3.1,2-6.2,3-9.2c-3.9-2.5-3.9-2.5-5.6,5c-1.7-2.6-1.8-4.2,0.1-7.2c1.2-2,2.2-3.6,1.7-6.3
		c-0.7-3.3,3-5.9,7.7-5.8c-0.2-2.4,1.6-4.2,2.1-6.4l0,0c4.1-0.6,8.2-1.4,12.1-2.8c0.6,0,1.3-0.1,1.9-0.1c1.6,0.1,2.1,1.1,2,2.6
		c-1.6,0.5-3.2,1.6-4.7,1.3c-4.1-0.7-6.5,1.8-8.8,4.3c-2.4,2.7-2.1,6.2-1.3,9c0.9,3,0,5.1-1.2,7.3C49.8,51.2,46.6,53.9,42.9,55.9z"
		/>
	<path class="st9" d="M90.1,93.8c-0.9-0.1-2,0.2-2.6-0.9c-0.6-1.7,1.7-2.4,1.5-4.4c-2.8-1.6-6.3,0-9.4-1.2c2.9-3.2,5-3.7,8-1.5
		c1.9,1.4,3.2,1.4,5.4,0.8c2.9-0.8,3.8-2.3,3.2-5C96,80.7,96.1,79.8,96,79c2.4,0.8,2.4,3.6,4,5c1.3,3.2,0.9,7,3.1,9.9
		c0,1.5,0.5,2.5,2.7,2.8c0.1-4.4,2.8-8.4,0.3-12.8l0-0.1c-0.1-0.6-0.2-1.2-0.3-1.7c0.1-0.1,0.3-0.3,0.4-0.4c1,0.3,1.8,0.8,1.8,2.1
		c0,4.5,0.9,9.3-0.4,13.4c-1.7,5.2-2.9,10.9-6.4,15.3c-1.1,1.4-0.9,4.1-3.4,4.4c1-3.5-2-4.5-4-6.1c0.6-2.6,2.1-5,2.1-7.8
		c0.8,0.5,1.7,1,2.5,1.5c2.5-6,3.3-11.8-1.2-17.4c-1.4,0.7-2.5,1.6-3.7,1.8C90.3,89.2,90,91.3,90.1,93.8z M99.5,107.5
		c-0.7,0.4-1.3,0.7-1.2,1.7c0.1,0.5,0.7,0.9,1,0.6C100.1,109.2,100.1,108.4,99.5,107.5z"/>
	<path class="st8" d="M103,68c3.2-3-1.4-2.5-1.9-4.4c2.5-6.1,5.2-12.5,4.9-19.7c1.3,0.1,1,1.1,1.2,1.9c1.9,5.1,1.8,10.1-1.3,14.5
		c3.3,3.5,3.3,3.5,2,7.4C106.2,67.8,104.8,72.1,103,68z"/>
	<path class="st9" d="M103,68c1.8,4,3.2-0.2,4.8-0.2l0.3,0.3c-0.3,1.1-2.1,2.5,0.8,2.7c0.1,0.1,0.2,0.2,0.4,0.4
		c0,1.5-1.4,2.1-1.9,3.4c-0.3,1.7,1.7,2.4,1.6,3.9c0.4,2.1-3.4,0.9-2.6,3.3c-0.1,0.1-0.3,0.2-0.4,0.4c-2-0.3-1.8-1.8-1.9-3.2
		c0.8-0.1,1.6,0.3,2.4-0.3c-0.2-4.8-4.7-5.2-7.5-7.3c-0.4-3.5-3-3.1-5.4-3.1c-0.1-0.4-0.2-0.7-0.3-1.1c0.1-0.9,0.1-1.8,0.2-2.8
		c1.3-0.1,2.6-0.2,3.9-0.3c-0.3,1.7-0.5,3.4,2.1,3.2C100.6,67,101.8,67.3,103,68z"/>
	<path class="st8" d="M111,34c-0.4-1.9,0.4-3.2,2.2-3.7c1.9-0.6,2.5,0.9,2.8,2.4c0.4,1.4-2.5,1.2-1.5,3c1,0.6,2.2,0.2,3.3,0.3
		c1.2,1.1-0.2,3.6,2.1,4.2c0.2,1,0.1,2-0.7,2.8c-0.3,0.1-0.7,0.2-1,0.3c-1.2-0.6-1.3,1.3-2.5,1.1C115.4,40.3,113.7,36.9,111,34z"/>
	<path class="st9" d="M107.8,67.8c1.3-3.9,1.3-3.9-2-7.4c3.1-4.4,3.3-9.4,1.3-14.5c1.1,0.1,1.7,0.7,1.9,1.9c0.7,4.1,2.4,8.2,1,12.6
		c-0.6,1.8-0.6,4,0.1,5.9c0.8,2,0.1,3.5-1,5c-0.1-0.1-0.3-0.2-0.4-0.4c0.1-1,0.5-2.1-0.8-2.7L107.8,67.8z"/>
	<path class="st9" d="M87.6,124.5c-0.5-0.1-1.1-0.2-1.6-0.2c-1.1-2.4-4.3-2.5-5.6-5.1c1.4-0.1,2.5-0.1,3.6-0.2
		c0.3,0.1,0.5,0.1,0.8,0.2c4.7,1.1,6.1,0.3,7.4-4.1c0.4-0.3,0.8-0.7,1.2-1c1.3,0,1.6,0.7,1.6,1.8c0,1.1-0.1,2.3,1.1,3
		C92.8,120.2,89.8,121.8,87.6,124.5z"/>
	<path class="st9" d="M68,25.5c0.1-1.4-0.5-2.4-2-2.6c0.9-1.4,2.4-1.1,3.5-0.7c3.4,1.3,7.4,0.3,10.6,2.6C76,25.2,72,24.5,68,25.5z"
		/>
	<path class="st8" d="M96.1,119c-1.2-0.7-1.1-1.9-1.1-3c0-1.1-0.3-1.9-1.6-1.8c-0.2-0.5-0.3-0.9-0.5-1.4l0,0.1
		c1.2-0.1,1.1-1,1.1-1.9l-0.1-0.3c2,1.6,5,2.6,4,6.1l0,0c-0.6,0.1-0.8,0.5-0.9,1.1C96.7,118.4,96.4,118.7,96.1,119z"/>
	<path class="st9" d="M64,23.1c-3.9,1.4-8,2.2-12.1,2.8C55,23.4,61.1,22,64,23.1z"/>
	<path class="st8" d="M104.1,40c-2.8-1.1-5-2.7-6.3-5.5C101,35,103.8,36.1,104.1,40z"/>
	<path class="st8" d="M91.6,30.2c-3.2-0.7-6.3-1.7-8.6-4.1C86.1,27,89.8,26.5,91.6,30.2z"/>
	<path class="st8" d="M97.5,34.3c-2.6-0.3-4.2-1.9-5.7-3.9C95.1,29.6,96.5,31.6,97.5,34.3z"/>
	<path class="st8" d="M67.2,15.9c1.8-3,4.6-1.4,7.3-1.9c-1.3,1.9-4.5-0.2-4.6,2.8C69,16.5,68.1,16.2,67.2,15.9z"/>
	<path class="st9" d="M117.1,48.2c-0.1,0.7-0.3,1.4-1,1.8c-2.9-0.3-2.1-1.9-1.6-3.6C116.2,46.1,116.6,47.2,117.1,48.2z"/>
	<path class="st9" d="M112.5,65.1c-0.5-1.9-0.6-3.7-0.1-5.8C113.3,61.6,112.9,63.5,112.5,65.1z"/>
	<path class="st8" d="M106,44c-2.1-0.6-2.1-2.3-2-4C106.2,40.6,106.2,42.2,106,44z"/>
	<path class="st8" d="M83.9,19.9c1,0.4,2.4-0.2,3.1,1.1c-0.8,0.1-1.6,0.1-2.4,0.1c-0.7,0-1.3-0.1-1.9-0.2
		C82.6,19.9,83.4,20.1,83.9,19.9z"/>
	<path class="st8" d="M82.9,26.1c-1.1,0-2.2,0.1-2.9-1C81.1,24.9,82.2,25,82.9,26.1z"/>
	<path class="st9" d="M87.7,127c0-0.7,0.1-1.4,0.1-2.1c1,0.2,1.2,1,1.4,1.8c-0.2,0.1-0.3,0.3-0.4,0.4
		C88.4,127.1,88.1,127.1,87.7,127z"/>
	<path class="st9" d="M97,118c0.1-0.6,0.3-1,0.9-1.1C97.9,117.5,97.6,117.9,97,118z"/>
	<path class="st9" d="M13.3,73.7c0.2-2.5-0.5-5.7,3.5-5.9c5.9,0.7,6.2,0.9,7.1,5.1c-0.6,0-1.1,0-1.7,0c-0.2-0.7-0.4-1.5-1.2-1.8
		c-3.8-1.9-4.6-1.7-6.2,1.9C14.3,73.1,13.8,73.4,13.3,73.7z"/>
	<path class="st9" d="M55,136c-0.5-0.2-0.8-0.5-0.8-1c0-0.1,0.4-0.3,0.6-0.4C54.9,135,55,135.5,55,136L55,136z"/>
	<path class="st9" d="M7.7,81.8c-0.5-2.6-0.5-2.6,1.3-3.6c0.9,0.6,0.7,1.3,0.3,2.1C9,80.9,8.6,81.6,7.7,81.8z"/>
	<path class="st8" d="M67.7,137.3c3.8-0.7,7.7,0.1,11.5-1.3c1.5-0.5,2.8,0.4,4,1.4c-4.7,0.8-9.4,1.6-14.1,1.5
		c-0.3-0.1-0.7-0.1-1-0.2C67.9,138.3,67.8,137.8,67.7,137.3z"/>
	<path class="st8" d="M87.7,127c0.4,0,0.8,0.1,1.1,0.1c0.1,2.7,0.9,5.7-2,7.7C87.4,132.3,86.1,129.5,87.7,127z"/>
	<path class="st8" d="M84.9,136.8c0.2-0.5,0.5-0.8,1.1-0.9C85.9,136.6,85.5,136.9,84.9,136.8z"/>
	<path class="st9" d="M119.9,40.1c-2.3-0.6-0.8-3.1-2.1-4.2c0.2-0.8,0.1-1.6-0.5-2.3c0.2-0.2,0.5-0.4,0.7-0.6c1.4,0.2,2,0.9,2,2.3
		C120,36.8,119.9,38.5,119.9,40.1z"/>
	<path class="st9" d="M117.1,31.9c0.3,0.3,0.7,0.7,1,1c-0.2,0.2-0.5,0.4-0.7,0.6c-0.3-0.3-0.6-0.7-0.8-1
		C116.7,32.3,116.9,32.1,117.1,31.9z"/>
	<path class="st3" d="M98.9,20.2c0.2,0.4,0.4,0.9,0.8,1.8c-3.2,0.1-5.7-0.8-8.6-2.8c2.4-0.1,4.2-0.2,6-0.3
		C97.7,19.3,98.3,19.8,98.9,20.2z"/>
	<path class="st9" d="M78.1,113.9c-0.4-0.6-0.8-1.2-1.3-1.8c0.6-0.8,1.3-1.5,1.8-2.4c0.7-1.4-0.5-2.8-1.4-2.4c-2.6,1-4.8-1-7.2-0.2
		c-3-4.9-2.3-6.4,4-9.1c3.4,0,6.7,0,10.1,0c0.3,0.1,0.6,0.1,0.9,0.2c1.7,1.8,4.5,1.1,6.3,2.7c-1.2,0.4-2.8-0.3-3.4,1.5
		c-1.3-0.1-2.6-0.1-3.8-0.8c-2.7-1.6-5.7-1.4-8.7-1.4c-2.5,0-3.5,1.3-4.2,4.4c5.4-0.2,10.4,1,15,3.3c-1.4,2.2-0.8,4.8-1.3,7.2
		C82.5,115,80.5,113.5,78.1,113.9z"/>
	<path class="st3" d="M90.1,93.8c-0.1-2.5,0.2-4.6,3.4-5c1.2-0.1,2.3-1.1,3.7-1.8c4.5,5.5,3.7,11.4,1.2,17.4c-0.8-0.5-1.7-1-2.5-1.5
		l0,0c0-2-0.2-3.8-2.1-5c-0.3-0.3-0.6-0.7-1-1c-0.6-0.8-1.2-1.5-1.9-2.3C91,94.2,90.7,94,90.1,93.8L90.1,93.8z"/>
	<path class="st8" d="M72.9,66.2c1.2-0.3,2.3-0.6,2.1-2.2c0.2-0.2,0.3-0.3,0.5-0.5c1.9,0,3,2.4,5.3,2.2c-0.3-1.8-0.6-3.2-0.9-4.6
		c2.4,0.6,3,2.8,3.9,4.7c-2.8,2.6-4.4,6.6-9,7.1c-4.2,0.4-7.8-0.6-10.2-4.4c0.8-1.1,2.7,0.2,3.3-1.4c3.8,0.4,7.2,3.8,11.7,2.1
		C77.9,66.1,74.7,67.9,72.9,66.2z"/>
	<path class="st9" d="M62.4,96.1c1.9-6.9,7-11,12.8-14.5C72.6,87.9,66.6,91.2,62.4,96.1z"/>
	<path class="st8" d="M78.1,113.9c2.4-0.4,4.4,1.1,6.7,1.3c0.1,0.3,0.2,0.5,0.2,0.8c-1.5,0.7-0.9,2-1.1,3.1c-1.1,0-2.2,0.1-3.6,0.2
		c1.4,2.6,4.5,2.7,5.6,5.1c-1.3,1.1-2.9,1.1-4,0c-1.6-1.6-4.2-2.5-4.8-4.7c-0.8-3.4,2.4-2.1,4.3-2.8
		C80.4,115.6,78.3,115.8,78.1,113.9z"/>
	<path class="st8" d="M104,78.9c0.1,1.4-0.1,2.9,1.9,3.2c0.1,0.6,0.2,1.2,0.3,1.7c-1.6,0.3-2.8-0.7-4.1-1.3
		c-1.8-0.8-1.9,0.3-2.1,1.5c-1.6-1.5-1.5-4.2-4-5c-1.7-1.2-0.9-2.9-0.8-4.4c0.5,0.1,1.1,0.2,1.6,0.3c1.8,1.1,3.5,2.1,5.3,3.2
		C102.5,79.1,103.4,78.8,104,78.9L104,78.9z"/>
	<path class="st8" d="M70,107.1c2.4-0.8,4.7,1.3,7.2,0.2c0.9-0.4,2.1,1,1.4,2.4c-0.4,0.9-1.2,1.6-1.8,2.4
		C74.2,110.9,71.6,109.6,70,107.1z"/>
	<path class="st9" d="M72.9,66.2c1.8,1.7,5-0.1,6.7,3c-4.5,1.7-7.8-1.8-11.7-2.1c-0.3-0.1-0.6-0.2-0.9-0.2c0-0.4-0.1-0.8-0.1-1.2
		c0.7,0,1.3,0.1,2,0.1c0.4,0,0.8,0,1.2,0C71,66,71.9,66.1,72.9,66.2z"/>
	<path class="st3" d="M96.8,74.9c-0.5-0.1-1.1-0.2-1.6-0.3c0-0.2-0.1-0.4-0.3-0.6c0.1-0.6-0.1-1.1-0.7-1.4c0-0.2-0.1-0.4-0.3-0.6
		c0.1-0.9,0.1-1.7-0.9-2.1l0,0c0.1-0.6,0.2-1.2,0.4-1.8c2.4,0,5.1-0.4,5.4,3.1C96.6,71.6,96.8,73.3,96.8,74.9z"/>
	<path class="st8" d="M75,64c-1.9-1.2-3.8-2.4-6.4-4c3.7-1.4,6.7-1.7,9.5,0.6c-1.3,0.6-3.9,0.1-2.7,3C75.3,63.7,75.2,63.9,75,64z"/>
	<path class="st9" d="M75.5,63.5c-1.3-2.9,1.3-2.4,2.7-3c0.6,0.2,1.2,0.4,1.8,0.6c0.3,1.4,0.5,2.9,0.9,4.6
		C78.5,65.9,77.4,63.5,75.5,63.5z"/>
	<path class="st8" d="M66.9,65.7c0,0.4,0.1,0.8,0.1,1.2c-2.9-0.1-5.9,0.9-9.3-1.5C61.4,64.9,64.2,64.2,66.9,65.7z"/>
	<path class="st8" d="M93,97c0.3,0.3,0.6,0.7,1,1c0.1,1.5-0.1,2.8-2,3c-0.2-0.1-0.5-0.2-0.7-0.2c-1.8-1.6-4.6-1-6.3-2.7
		c2.1-0.1,4.3-0.4,6.3,0.5C92.7,99.2,92.8,98,93,97z"/>
	<path class="st8" d="M97.2,64c-1.3,0.1-2.6,0.2-3.9,0.3c-0.6-1.8-0.3-3.5,1.7-3.5C96,60.8,98.8,61.4,97.2,64z"/>
	<path class="st8" d="M84,97.9c-3.4,0-6.7,0-10.1,0C77.3,96.5,80.7,96.5,84,97.9z"/>
	<path class="st8" d="M93.4,68.1c-0.1,0.6-0.2,1.2-0.4,1.8c-1.4-1-1.5-2,0.1-2.9C93.2,67.4,93.3,67.8,93.4,68.1z"/>
	<path class="st8" d="M93,69.9c1,0.4,1,1.2,0.9,2.1C92.9,71.6,93,70.8,93,69.9z"/>
	<path class="st8" d="M94.2,72.7c0.6,0.3,0.8,0.8,0.7,1.4C94.4,73.8,94.1,73.3,94.2,72.7z"/>
	<path class="st9" d="M90.2,93.9c0.5,0.1,0.8,0.3,0.9,0.8C90.5,94.8,90.2,94.5,90.2,93.9z"/>
	<path class="st8" d="M70.1,65.8c-0.4,0-0.8,0-1.2,0C69.3,65.2,69.7,65.2,70.1,65.8z"/>
	<path class="st8" d="M31.3,55.5c0.9-0.4,1.2-0.3,1.4,0.1c0.2,0.5,0,0.9-0.5,1.1c-0.2,0.1-0.7-0.1-0.8-0.3
		C31.2,55.9,31.4,55.5,31.3,55.5z"/>
	<path class="st8" d="M33,60c-0.1,0.5-0.1,0.9-0.2,1.5C31.7,60.6,32.3,60.3,33,60L33,60z"/>
	<path class="st8" d="M33,60c0-0.4,0.2-0.6,0.5-0.5l-0.1,0.3C33.3,59.9,33.1,59.9,33,60L33,60z"/>
	<path class="st8" d="M20,80.1c0.1,1.4-0.7,2.5-1.6,3.4c-2-1-2.5-2.9-3.4-4.6c1.6-2.3,3.1-4.1,6-2.1C20.6,77.9,19.9,78.9,20,80.1z"
		/>
	<path class="st9" d="M20,80.1c-0.1-1.2,0.6-2.2,1-3.3c0.7,0,1.4-0.1,2-0.1c-0.1,0.7-0.1,1.4-0.2,2.2C21.9,79.3,21.2,80.3,20,80.1z"
		/>
	<path class="st8" d="M13.3,73.7c0.5-0.3,1-0.5,1.5-0.8c0.1,1.4,0.4,2.9-1.4,3.6C12.8,75.5,13.1,74.6,13.3,73.7z"/>
	<path class="st8" d="M22.9,78.9c0.1-0.7,0.1-1.4,0.2-2.2c0.6-0.6,0.8-0.2,0.9,0.3C24,77.9,24,78.7,22.9,78.9z"/>
	<path class="st8" d="M21.1,70.9c0.9,0.3,1,1.1,1.2,1.8C20.9,72.8,21,71.9,21.1,70.9z"/>
	<path class="st10" d="M116.5,32.5c0.3,0.3,0.6,0.7,0.8,1c0.6,0.7,0.7,1.5,0.5,2.3c-1.1-0.1-2.2,0.3-3.3-0.3c-1-1.7,1.9-1.5,1.5-3
		C116.2,32.5,116.3,32.4,116.5,32.5z"/>
	<path class="st3" d="M91.2,100.8c0.2,0.1,0.5,0.1,0.7,0.2c1,1.4,2.9,1,4.1,2l0,0c0,2.8-1.4,5.2-2.1,7.8l0.1,0.3
		c-1,0.3-1.8,0.6-1.1,1.9l0-0.1c-1.1-0.8-1.6,0.1-2.2,0.8c-1.3,0.8-2.1,2.4-3.8,2.5c-0.6-0.1-1.2-0.1-1.8-0.2
		c-0.1-0.3-0.2-0.5-0.2-0.8c0.4-2.4-0.2-5,1.3-7.2c1.8,0,3.5,0,5.5,0c-1.3-1.9-2.5-3.7-3.7-5.6C88.4,100.6,90,101.2,91.2,100.8z"/>
	<path class="st10" d="M100,84.1c0.1-1.2,0.3-2.4,2.1-1.5c1.3,0.6,2.5,1.7,4.1,1.3l0,0.1c0.2,3-1.1,5.8-1.2,8.8c0,1-1,1.2-1.8,1.3
		C100.9,91,101.3,87.3,100,84.1z"/>
	<path class="st8" d="M103.1,94c0.9-0.1,1.8-0.2,1.8-1.3c0.1-3,1.5-5.8,1.2-8.8c2.5,4.4-0.2,8.5-0.3,12.8
		C103.6,96.5,103.1,95.4,103.1,94z"/>
	<path class="st8" d="M99.5,107.5c0.6,0.9,0.6,1.7-0.1,2.3c-0.3,0.3-0.9-0.1-1-0.6C98.2,108.2,98.9,107.9,99.5,107.5z"/>
	<path class="st10" d="M96.8,74.9c0-1.6-0.2-3.3,2-3.6c2.9,2.1,7.3,2.5,7.5,7.3c-0.7,0.6-1.6,0.2-2.4,0.3l0.1,0.1
		c-0.4-0.8-1.1-0.9-1.9-0.9C100.4,77.1,98.6,76,96.8,74.9z"/>
	<path class="st8" d="M108.1,68.1c1.3,0.6,0.9,1.7,0.8,2.7C106,70.7,107.8,69.2,108.1,68.1z"/>
	<path class="st8" d="M86.9,116.1c1.7-0.2,2.5-1.7,3.8-2.5c0.3,0.7,0.7,1.3,1.5,1.6c-1.3,4.4-2.7,5.2-7.4,4.1
		C86.6,119,87.2,117.9,86.9,116.1z"/>
	<path class="st10" d="M86.9,116.1c0.3,1.8-0.3,2.8-2.1,3.1c-0.3-0.1-0.5-0.2-0.8-0.2c0.2-1.1-0.4-2.5,1.1-3.1
		C85.7,116,86.3,116.1,86.9,116.1z"/>
	<path class="st10" d="M92.1,115.2c-0.7-0.3-1.2-0.9-1.5-1.6c0.6-0.6,1.1-1.6,2.2-0.8c0.2,0.5,0.3,0.9,0.5,1.4
		C92.9,114.5,92.5,114.9,92.1,115.2z"/>
	<path class="st10" d="M92.9,112.9c-0.6-1.2,0.2-1.6,1.1-1.9C94,111.9,94,112.8,92.9,112.9z"/>
	<path class="st10" d="M87.8,102.3c1.2,1.8,2.4,3.6,3.7,5.6c-2,0-3.7,0-5.5,0c-4.6-2.4-9.5-3.5-15-3.3c0.7-3.1,1.8-4.4,4.2-4.4
		c3,0,6-0.2,8.7,1.4C85.2,102.2,86.5,102.2,87.8,102.3z"/>
	<path class="st9" d="M96,103c-1.2-1-3.1-0.6-4.1-2c1.9-0.2,2.1-1.5,2-3C95.8,99.2,96,101.1,96,103z"/>
	<path class="st9" d="M102.2,78.1c0.8,0,1.5,0.1,1.9,0.9C103.4,78.8,102.5,79.1,102.2,78.1z"/>
</g>
</svg>
