<?xml version="1.0" encoding="utf-8"?>
<!-- Generator: Adobe Illustrator 19.0.0, SVG Export Plug-In . SVG Version: 6.00 Build 0)  -->
<svg version="1.1" id="Layer_1" xmlns="http://www.w3.org/2000/svg" xmlns:xlink="http://www.w3.org/1999/xlink" x="0px" y="0px"
	 viewBox="460.2 165 117.5 230" style="enable-background:new 460.2 165 117.5 230;" xml:space="preserve">
<style type="text/css">
	.st0{fill:#E93A3A;}
	.st1{fill:#FFFFFF;}
</style>
<path id="Bg_color" class="st0" d="M467,171.3l-1.6,38l-3.7,64.8l2.8,36.8l28.7,6.2l52.6-5.6l18.7,3.4l5.3-11.2l0.9-52.3l-1.6-47
	l-1.2-23.7l-6.8-7.5l-21.5-0.9l-33.3-0.9l-26.2,1.6L467,171.3z"/>
<path id="Border_merge" d="M492.3,167.2c9.6,0.1,18.8-0.4,23.4-0.6c7.2-0.4,17.3,1.8,25.8,1.8c7.9,0.1,23-4.1,27.6,2.6
	c4.9,7.1,3.8,12,2.8,21.8c-1,10.8,0.3,35.7,0.3,46.8c0.1,18.7,0,21.4,0.2,39.8c0.2,20.2-1.5,22-1.9,38.4c-0.3,13.2-6.3,17.2-6.3-0.5
	c0-11.1,1.2-22.1,1.5-40.9c0.1-12.5,0.9-30.4,0.9-37.4c0-17.1-0.4-25.5-0.8-34.1c-0.5-10.5,1.4-15.9,0.2-22c-2-9.4-14-7-25.1-7.4
	c-8.7-0.2-21-1.6-27.1-0.6c-6.8,1.1-21.5,0.7-29.2,0.6c-7.3-0.1-12.8-3-15.7,5.5c-1.4,4.1-0.2,24.7-0.2,28.7c0,13.1,0,30.4,0.1,43.3
	c0.1,11.2-0.9,15.8-1,26.5c-0.2,18.4,2.8,21.7,2.1,38c-0.7,16.9-8,20.1-8,9.3c-0.1-21-2.4-36.2-1.3-55.9c1.2-23.1,1.8-36.6,1.8-59.9
	c0-8.2-0.1-19.5,0.2-27.4c0.2-6.2-0.1-11.7,1.8-14.8c0,0,1.5-3.5,12.3-3.7C481.4,164.9,487.7,167.1,492.3,167.2z"/>
<path id="Dna_BG" d="M468.7,311.8c24,4.2,64.1-0.7,93.9-1c5,0.1,8.2,2.3,8,5.9c-0.8,15.2,4.8,44.1,7,66.3c0,0.2,0,0.3,0,0.5
	c0,0.2,0,0.3,0,0.5c0,0.9-0.3,1.8-0.8,2.7c-0.7,1.1-1.6,2.1-2.7,2.7c-2.4,1.5-5.7,2.3-9.3,2.2c-41.5-1.7-62.8,1.7-90.3,3.4
	c-0.1,0-0.3,0-0.4,0c-0.1,0-0.3,0-0.4,0c-0.3,0-0.6,0-0.8-0.1c-0.5-0.1-1.1-0.2-1.6-0.4c-1-0.3-2-0.9-2.8-1.5
	c-1.6-1.3-2.8-3.2-2.9-5.3c-0.7-8.6-1.7-17.1-2.5-27.2c-0.2-2.5-0.4-5.1-0.6-7.9c-0.2-2.7-0.3-5.6-0.5-8.6c-0.3-6-0.4-12.7-0.4-20.1
	c0-3.6,0.9-7,2.1-9.2c0.6-1.1,1.3-2,2.1-2.5c0.4-0.3,0.8-0.4,1.3-0.5c0.2,0,0.5-0.1,0.7-0.1c0.1,0,0.2,0,0.4,0
	C468.5,311.7,468.6,311.7,468.7,311.8L468.7,311.8L468.7,311.8z"/>
<path id="DLA" class="st1" d="M490.2,381.3l-0.4,0l0,0.1l0.4,0L490.2,381.3z M494.8,378.3c0-0.1-0.1-0.2-0.2-0.2
	c-0.2,0-0.4,0.1-0.6,0.1c-0.2,0.1-0.4,0.1-0.7,0.1l-0.2,0.1l-0.9-0.3l-3.8,0.1c-0.1,0-0.2,0.1-0.3,0.1c-0.1,0.1-0.2,0.1-0.3,0.1
	c0.1,0.1-0.3,0.1-1.1,0.1c-0.1,0-0.3,0-0.4-0.1c-0.8,0-1.6-0.1-2.4-0.4c-1.3,0.3-2.6,0.6-3.9,0.7c0-0.1-0.1,0-0.3,0.1l-4.2,0.1
	l0.1-0.1l-0.7,0.1c-0.1,0.1-0.9,0.2-2.3,0.3c-0.9,0.1-1.4,0.6-1.4,1.5c0,0.6,0.8,1.1,2.4,1.4c3.2-0.4,5.6-0.6,7.4-0.5
	c0.5-0.1,0.8-0.2,1.1-0.3l0.7,0l-0.2,0c0.7-0.2,1.1-0.3,1-0.3c0.2,0,1.3,0.2,3.6,0.7l0.8-0.2l-0.3,0l1.8-0.1l-0.3-0.1l1.9-0.1
	c0.4,0.3,1,0.4,1.8,0.4c0.5,0,1.1,0,1.6,0.1c0.5-0.2,1-0.4,1.5-0.4l-0.4-0.1l0.7-0.1c0.3-0.3,0.5-0.6,0.5-1
	C497,379.1,496.3,378.5,494.8,378.3L494.8,378.3z M481.7,378.5l-0.6,0l0,0.1l0.6,0L481.7,378.5z M477.3,376.9l-0.4,0l0,0.1l0.4,0
	L477.3,376.9z M477.8,378.7l-0.4,0l0,0.1l0.4,0L477.8,378.7z M477.2,378.8l-0.4,0l0,0.1l0.4,0L477.2,378.8z M491.4,385
	c-0.2-0.3-0.3-0.4-0.4-0.5c-0.4,0.1-0.8,0-1-0.3c-1.5,0.5-2.3,0.7-2.1,0.7c-1.5,0-2.4,0.1-2.6,0.2c-0.2-0.1-1-0.1-2.4,0l-0.3,0.2
	l-0.8-0.3c-0.7,0.2-1.4,0.3-2.2,0.1l-0.2,0.1c-0.8-0.1-2.7-0.1-5.4,0c-0.4,0-0.8,0.2-1.3,0.6c-0.5,0.4-0.7,0.8-0.8,1.2
	c1,0.7,1.7,1.3,2.3,1.6c0.7-0.1,1.4-0.2,2-0.5c0.7-0.2,1.5-0.3,2.2-0.1l0.2-0.1l0.8,0.2L479,388c2.4,0.3,3.7,0.5,3.8,0.5l0.4,0
	l0.4-0.2c0.2,0.2,0.5,0.3,0.9,0.4c0.1,0,0.3,0,0.4-0.1l0.2-0.3c0.3,0.1,0.6,0.1,0.9,0.1c1.3,0,2.5-0.3,3.7-0.7
	c1.5-0.6,2.2-1.2,2.2-1.9C491.6,385.4,491.5,385.2,491.4,385L491.4,385z M497.1,331.7c-0.7-2.1-1.1-3.2-1.1-3.4
	c-0.9-1.2-1.7-2.1-2.3-2.7l-0.8-0.4c-0.7-0.8-1.2-1.3-1.6-1.7c-0.5-0.2-1-0.5-1.5-0.8l-1,0c-1.4,0-2.2-0.1-2.3-0.2l-0.8,0.1
	c-1-0.4-2.5-0.6-4.3-0.6l-0.2-0.2c-1.1,0.3-1.6,0.4-1.7,0l-3.2,0.1c-0.9,0.1-1.8,0.3-2.7,0.5c-1,0.3-1.9,0.4-2.9,0.5
	c-0.2,0-0.4,0-0.6,0c0,0.1-0.2,0.2-0.3,0.2c-0.1,0-0.2,0-0.3,0c-0.1,0-0.2,0-0.4,0l-0.1-0.1l-0.6,0l-0.3,0.1c-1.1-0.3-1.7,0-1.7,0.9
	c0,1.5,0.6,4.2,1.6,8.1c-0.1,0.6-0.1,1.1-0.1,1.7c0,1.3,0.3,3.4,0.8,6.3c0.5,2.9,0.7,4.5,0.7,4.9c0,0.7-0.2,1.8-0.6,3.2
	c-0.4,1.4-0.6,2.4-0.6,3.1c0,0.8,0.3,2.2,0.8,3.9s0.7,3.1,0.8,4c0.1,2.8-0.3,5.1-1.1,7.1l0.5,1l0.7,0.4c0.3-0.1,1.2-0.1,2.6,0.1
	c0.2-0.4,0.6-0.7,1.1-0.7c0.7,0,1.3,0.1,2,0.3l0.4-0.1c0.5,0,0.9,0.2,1.3,0.4c0.8,0,1.5,0.1,2.3,0.2c0.7,0.1,1.4,0.2,2.2,0.2
	c0.3,0,0.7-0.3,1-0.8c0.2-0.4,0.4-0.8,0.4-1.2c-1.1-1.8-1.6-3.2-1.6-4.2c0-0.6,0-1.5,0.1-2.8c0.1-1,0.1-1.9,0.1-2.9
	c0-1-0.3-2.4-0.7-4.2c-0.4-1.9-0.7-3.2-0.7-4.2c0-0.9-0.1-2.7-0.2-5.4c-0.1-2.7-0.2-4.5-0.2-5.4c0-0.4,0.1-1.1,0.5-2
	c0.3-0.9,0.6-1.3,0.9-1.4c0.4,0,0.7,0.1,1,0.4c0.3-0.2,0.6-0.4,0.9-0.4c0.8,0,1.6,1.4,2.3,4.2c0.6,2.3,0.9,4.1,0.9,5.4
	c0.1,0.9,0.2,1.9,0.5,2.8c0.3,0.9,0.4,1.7,0.5,2.6c0.1,4.1,0,6.5-0.2,7.2c0.3,0.5,0.7,1,1.1,1.5c0.6,0.4,1.3,0.8,1.9,1.3
	c0.2-0.2,0.4-0.2,0.5,0l2.4-0.1c0.2-0.2,1.5-0.3,3.9-0.4l0.4,0.1c0.7,0,1.4-0.9,2.1-2.8c-0.4-2.8-0.7-6.9-0.8-12.4
	C498.5,338,498,334.1,497.1,331.7L497.1,331.7L497.1,331.7z M497.3,360.9c-2.6-0.8-4.6-1.2-6.1-1.3l0.2-0.1c-0.2,0-0.5-0.1-0.7-0.1
	c-0.2-0.1-0.5-0.1-0.8-0.1c-0.9,0-1.4,0.3-1.7,0.8c-0.1,0.3-0.2,0.7-0.3,1.1l0,0.4c0.9,0.4,1.7,0.8,2.6,1.1c0.6,0,1.4,0,2.6,0.1
	c1.2,0.1,2.1,0.1,2.6,0.1c1.3,0,1.9-0.4,1.9-1L497.3,360.9z M498.7,365.5l-0.2-0.8c-0.6-0.2-1.1-0.5-1.7-0.8l-2.4,0.1l-0.4-0.3
	l-1.4,0l-0.6,0.2l-0.7-0.1l-0.6,0.2l-0.5-0.1c-0.9,0-1.3,0.3-1.3,1l0,0.8c0.4,0.4,0.8,0.8,1.1,1.3l0.3,0c0.5,0,0.8,0,0.8-0.1
	c0.8,0,1.6,0.1,2.3,0.2c0.7,0.1,1.4,0.2,2.2,0.2c0.7-0.1,1.3-0.3,1.9-0.6C498.3,366.3,498.7,365.9,498.7,365.5L498.7,365.5
	L498.7,365.5z M497.4,368l-0.5,0.2l-1.3-0.3l-0.9,0c0,0.2-0.3,0.3-0.7,0.3c-0.6,0-1.2,0.1-1.8,0.4c-2.2-0.3-3.3,0.1-3.3,1.1
	c0,0.8,0.1,1.3,0.2,1.4l0.3,0.4l4.3-0.1c0.2,0.2,0.6,0.3,1.2,0.3c1.2,0,2.1-0.2,2.5-0.5l0.7-0.1c0.5-0.5,1-0.9,1.6-1.3l0,0
	C499.6,368.9,498.9,368.3,497.4,368L497.4,368L497.4,368z M497.4,374.1l-1-0.4l0.2-0.1c0.2,0-0.3-0.1-1.6-0.2l0.3-0.1
	c-1.4,0-2.4,0-2.9-0.1c-0.4,0.2-0.9,0.3-1.3,0.3c-1.9,0.1-2.9,0.2-3,0.3l0.2,0.1l-0.7,0.1c-0.3,1.1-0.5,1.5-0.5,1.2l0.1,0.2
	l-0.4,0.3c1.1,0.6,1.9,0.9,2.4,1c0.1-0.1,0.7-0.1,1.7-0.1c1,0,1.7,0.1,1.9,0.1c0,0,0.8,0,2.5,0l1.4-0.1c0.2-0.3,0.5-0.6,0.8-0.7
	c0.4-0.2,0.6-0.5,0.5-0.9L497.4,374.1z M481.8,368.3l-0.4,0l0,0.1l0.4,0L481.8,368.3z M480.1,369.5l0.2-0.1l-1-0.1l0.3-0.1l-0.7,0.1
	c-0.7-0.3-2.9-0.4-6.6-0.2l-0.3,0.1l-0.8-0.1c-0.8,0-1.2,0.6-1.2,1.6c0.9,1,1.6,1.5,2.1,1.4c0.4,0,0.9-0.1,1.3-0.2
	c0.4-0.1,0.8-0.2,1.3-0.2c0.4,0,0.8,0.1,1.2,0.1c0.4,0.1,0.9,0.1,1.3,0.1c0.5,0,0.9,0,1.4,0.1c0.5,0.1,0.9,0.1,1.4,0.1
	c1.1,0,1.7-0.5,1.6-1.5l0,0C481.7,370.5,481.2,370,480.1,369.5L480.1,369.5L480.1,369.5z M481.6,374.5c-0.7-0.6-1.1-0.9-1.2-0.8
	l-0.8-0.2l-1.4,0.4c-0.2-0.1-1.3-0.2-3.4-0.1l-0.3,0.2l-0.8-0.2l-0.8,0.3l-0.3-0.1c-0.3,0.2-0.6,0.3-0.9,0.4l-0.4,0.8l0.3,0.9
	c0.6,0.7,1.3,1.1,2,1.2c0.6-0.4,1.4-0.6,2.1-0.6c0.2,0,0.4,0,0.6,0.1l-0.3,0.1c2.7,0,4.3,0.1,4.6,0.3c0.1-0.1,0.4-0.3,0.9-0.8
	c0.4-0.4,0.6-0.7,0.6-1L481.6,374.5z M517.6,360.2c0-1.7-0.4-3.9-1-6.4c-0.7-2.6-1-4.2-1-5c0-1.1,0.2-3,0.6-5.8
	c0.4-2.8,0.7-4.7,0.6-5.9c-0.2-6.3-0.2-8.4-0.2-6.2c0-2.9,0.4-4.8,1-5.8l-0.1-2.5c-1.2-1.3-1.9-2-2.2-2l-0.3,0.1l-1.3-0.6l-0.8,0.3
	l-0.7-0.1l-0.4,0.1c-0.3-0.1-0.6-0.1-0.8-0.1c-0.6,0-1.5,0.2-2.7,0.6s-2.1,0.6-2.5,0.6c-0.3,0-0.6-0.1-0.9-0.2
	c-0.3-0.1-0.6-0.2-0.9-0.2c-0.7,0-1.3,0.3-1.6,0.9c0.4,0.3,0.6,1.6,0.7,3.8c0,0.8,0,1.9-0.1,3.5c-0.1,1.6-0.1,2.7-0.1,3.5
	c0,0.7,0.1,1.7,0.3,3.1s0.2,2.4,0.3,3.1c0,1.6,0.2,4.2,0.6,7.8c0.4,3.7,0.6,6.2,0.6,7.7c0,0.4,0,0.9-0.1,1.3
	c-0.1,0.4-0.1,0.9-0.1,1.3c0.1,1,0.2,2,0.5,2.9c0.2,0.9,0.4,1.9,0.5,2.9l-0.7,4.9c-0.1,0.4,0.2,0.8,0.9,1.2c0.6,0.3,1.2,0.5,1.8,0.5
	c0.1,0,0.3,0,0.4-0.1l0.5,0.2c0.8-0.2,1.6-0.3,2.4-0.2c1.5,0.2,2.3,0.2,2.4,0.2c2.2-0.1,3.6-0.3,4.1-0.7c0.3-0.3,1-1.4,2.1-3.4l0,0
	C518.3,364.6,517.7,362.7,517.6,360.2L517.6,360.2L517.6,360.2z M517.9,372.7c-3.8-0.1-5.4-0.1-5-0.2l-0.6,0.3c-0.7-0.1-1.3-0.2-2,0
	c-1.2,0.2-1.9,0.3-2,0.3l-1-0.2l-1,1.2c0,0.5,1.1,1,3.2,1.7l1.4-0.4l1.5,0.3c0.1-0.1,1.3-0.2,3.6-0.5c1.9-0.2,2.8-0.8,2.8-1.7l0,0
	L517.9,372.7z M533.1,378.2c-0.2-1-0.7-1.5-1.3-1.5c-0.2,0-0.4,0.1-0.6,0.2l-0.4-0.1l-1.2,0.4l-0.4,0l-0.6,0.2l-0.4-0.2l-1,0.4
	l-0.3-0.1c-0.9,0.4-1.6,0.6-1.9,0.6c0.1,0-1.2-0.1-4-0.3c0.1-0.3-0.4-0.5-1.4-0.4l-0.9,0.3c-4.4-0.4-6.6-0.6-6.8-0.7l-0.5,0.2
	l-0.5-0.1l-0.5,0.2l-0.8-0.4l-0.3,0.2l-0.3-0.2l-1.6,0.9l-0.5-0.1l-0.1,1c0,1.2,0.9,1.8,2.5,1.7l0.4-0.2l1.7,0.1l0.3,0.1
	c1.9-0.1,3.3-0.1,4.4,0.2l0.7-0.4c1.4,0.2,2.1,0.5,2,0.8l-0.7,4c0-0.1,0.2,0.7,0.6,2.4c0.3,0.2,1,0.5,2.2,0.9
	c1.1,0.3,1.8,0.5,2.2,0.4l4.1-1l0.4,0.2c0.5,0,0.9-0.1,1.3-0.2c0.4-0.1,0.9-0.2,1.3-0.2l1,0.2c0.5-0.3,1-0.5,1.5-0.6
	c0.5-0.7,0.7-1.2,0.5-1.4c0.1-0.4,0.1-0.8,0.1-1.2c0-0.3-0.1-0.6-0.2-1c-0.1-0.3-0.2-0.6-0.2-1c0-0.4,0.2-1.1,0.6-2.1l0,0
	C533.4,379.6,533.2,378.9,533.1,378.2L533.1,378.2L533.1,378.2z M516,381l-0.4,0.1l-0.3-0.1l-0.6,0.2c-1.8,0.2-3.6,0.1-5.3-0.4
	l-0.5,0.2c-1.1,0-1.7,0-1.9,0c0,0.2,0,0.4-0.1,0.6s-0.1,0.4-0.1,0.6c0,0.6,1.2,1.2,3.5,1.6c1.4,0.2,2.9,0.4,4.3,0.7l1.4-0.5l0.3,0.1
	l1.4-1.4C517.9,381.6,517.3,381,516,381L516,381L516,381z M511.8,385.5c-3.1,0-4.7,0.1-4.8,0l-0.6,0.3c0.4,0.1,0.7,0.2,0.7,0.4
	c-0.2,0.2-0.3,0.5-0.4,0.8c0,1.1,1.2,1.6,3.6,1.5c0.8,0,1.9-0.3,3.4-0.7c1.8-0.6,2.7-1.1,2.7-1.6
	C516.5,385.7,514.9,385.5,511.8,385.5L511.8,385.5z M570.9,371.2c-0.7-6.2-1.5-10.2-2.4-11.8c0-0.1,0.1-0.2,0-0.3
	c0-0.5-0.3-1.8-0.8-3.9c-0.5-2.1-0.8-3.4-0.8-3.6c0-0.4-0.1-0.9-0.1-1.3c-0.1-0.6-0.1-1-0.1-1.2c0-0.8,0-1.6,0.1-2.3
	c0.1-0.8,0.1-1.5,0.1-2.3c-0.1-2.4-0.6-6-1.6-10.8c-1-4.8-1.6-8.4-1.6-10.9c0-1.1,0.1-2.2,0.4-3.2c-0.9-0.9-1.5-1.4-1.9-1.4
	c-0.8,0.1-1.6,0.2-2.4,0.5c-0.8,0.3-1.6,0.4-2.5,0.5c-0.4,0-0.7-0.1-1.1-0.2c-0.4-0.1-0.8-0.2-1.1-0.2c-2.6,1.4-4.5,2.2-5.8,2.2
	l-0.3-0.1c-0.2,0.1-0.5,0.1-0.7,0.1c-0.6,0-1.3-0.2-2.3-0.7c-1-0.5-1.7-0.7-2.3-0.7l-0.9,0.3l0.1,0.9l0.5,0.5l-0.3,0.5
	c-0.1,0.8,0,2,0.3,3.8c0.3,2.1,0.4,3.4,0.4,3.9c0,1.7-0.2,4.3-0.7,7.8c-0.5,3.5-0.7,6.1-0.7,7.9c0.1,2.6-0.8,6.4-2.6,11.7
	c-1.8,5.2-2.7,8.8-2.6,10.8c0.5,1.2,1,1.8,1.5,1.8c0.1,0,0.2,0,0.3-0.1l0.4,0.2l1-0.4l0.3,0.1c1-0.3,1.5-0.5,1.5-0.5
	c0.4,0,1,0.2,1.8,0.6c0,0,0.8-0.1,2.5-0.4l1.9,0.4c0.7-0.1,1.4-0.2,2-0.4c0.6-0.2,1.2-0.4,1.9-0.5l0.6-0.3c3.1-0.1,4.9,0.2,5.1,0.8
	c0.3,1.5,0.6,3,0.9,4.6c0.1,0.1,0.9,0.4,2.5,1c1.5,0.5,2.3,0.8,2.4,0.8c0.8,0,1.8-0.3,2.8-0.9l1.6,0.7l0.7-0.3l1.1,0.4
	c1.1,0,1.8-0.8,2-2.4l0,0L570.9,371.2z M568.9,377.1l-0.3,0.1c-2.2-0.5-3.3-0.8-3.5-0.7l-2.7,1.1l-0.2-0.1c-0.7,0.3-1.4,0.7-2.1,1.1
	l-0.3,0.8l0.1,1.1l0.5-0.1c0.5,0.3,1.1,0.5,1.7,0.5l3.5,0c3.7,0,5.6-0.8,5.6-2.5C571,378,570.3,377.5,568.9,377.1L568.9,377.1
	L568.9,377.1z M570.6,384c-0.4-0.3-0.8-0.5-1.1-0.5c-0.3,0-0.6,0.1-0.8,0.3l-0.7-0.1l-1.5,0.5c-0.8-0.1-3.1,0.1-6.9,0.6
	c-0.1,0.5-0.3,1-0.3,1.5c0.3,0.4,0.5,0.8,0.6,1.2c0.6,0,1.3,0,1.9,0.1l2-0.6l1.5,0.3c0.5,0,1-0.1,1.5-0.2c0.5-0.1,1-0.2,1.5-0.2
	c2,0,2.9-0.7,2.9-1.9l0,0C571.3,384.6,571.1,384.3,570.6,384L570.6,384z M546.4,371.1c-0.3,0-0.7,0.1-1,0.1
	c-0.4,0.1-0.8,0.1-1.2,0.1c-0.6,0-1.2-0.1-1.7-0.3l-0.8,0.2l-2-0.2c-1.1,0-1.6,0.5-1.6,1.3c0,0.8,1.3,1.3,3.9,1.6l0.4-0.1l2.5,0.6
	l2.2-0.1c1.1,0,1.6-0.5,1.6-1.4l0,0C548.1,371.7,547.3,371.1,546.4,371.1L546.4,371.1L546.4,371.1z M545.5,377l-1.3,0.5l-0.3-0.1
	l-0.5,0.2l-0.4-0.1c-0.4,0.2-1,0.2-2,0c-1.2-0.2-1.9-0.2-2.2-0.2c-1.1,0-1.6,0.6-1.6,1.8c0,1,0.6,1.5,1.7,1.5l1.3-0.5
	c0.6,0.3,1.7,0.4,3.4,0.2l0.4,0.3c2.7-0.1,4-0.8,4-2.1C547.8,377.4,547,377,545.5,377L545.5,377L545.5,377z M544.4,383.5l-0.4,0
	l-1.7-0.3l-2.2,0.4l-2.2,0.1c-0.8,0.1-1.2,0.6-1.2,1.5c0,1.1,1,1.6,2.8,1.6c2.7-0.1,4.4,0,5.1,0.2l1.7-0.5l0.5,0l1.6-1.3l0,0
	C547.9,384,546.7,383.5,544.4,383.5L544.4,383.5L544.4,383.5z M552.9,359l-0.5,0c0.5-1.4,0.9-3.2,1.1-5.7c0.1-1.9,0.3-3.8,0.4-5.7
	l0.3,0.2c0.4,4.4,0.8,7.7,1.1,9.9L552.9,359z"/>
<path id="Char_white" class="st1" d="M482.8,201.6l5.8-8.9l5.2-1.8l6.8-4.6c0,0,8.5-2.9,8.9-3.1c0.4-0.2,8.3-1.2,8.3-1.2l10.2,1.2
	l6.5,1.2l4.9,2.5l5.2,3.1l6.5,5.2l3.7,4.3l3.7,5.2l1.8,5.8l0.3,6.5l0.6,7.4l-1.2,8.3l-1.2,4.6l-2.2,3.7l-4.9,3.4l-3.4,3.4l-8.3,6.5
	l-5.2,3.1l1.2,2.5l2.5,2.2c0,0,3.5,2.6,3.7,3.1c0.2,0.5,5.8,11.1,5.8,11.1v16.6l-13.8,13.2l-10.8,7.7l-18.1-0.3
	c0,0-12.7-5.4-14.2-7.4c-1.4-1.9-9.2-23.7-9.2-23.7l2.2-7.1l2.5-3.7l3.7-3.1l2.8-3.4l2.2-2.2l3.7-2.2l2.2-2.2l-0.3-1.8l-3.7-3.1
	l-4.6-1.8l-6.5-6.5l-2.5-4.3l-5.2-5.5l-1.8-4.6l-0.9-4.9l0.9-5.8l2.2-10.5L482.8,201.6z"/>
<path id="Char" d="M559.3,278.3c0,3.1,1.9,8,1.9,11c0,9.6,1.8,16.5,1.8,25.8c-1.8,1.1-8.3,1-11.4,0.9c-1.8,1.2-7.4-0.2-9.2,0
	c-5.3,0.5-11.1,0.6-18.2,0.6c-6,0-12.8,0.3-17.9,0.6l-12.6,0c-4,1-10.3-0.5-14.8,0.6c-3.1,0.7-4.4,0.7-8,0.3c-1-1.5-1.3-2.7-1.2-5.5
	c0.8-1.1,0.4-2.8,0.9-4.3c1.8-5-0.3-9.5,0.6-16.6c0.5-4-2-8.4,0.3-12.6c1.6-2.9,6-4.9,8.9-6.4c0.8-0.4,1.5-0.1,2.2-0.6
	c0-0.2,0-0.4,0-0.6c1.1-0.9,2.5-1,3.7-1.8c0.8-0.6,1.7-2.4,2.5-3.1c0.5-0.4,1.3-0.2,1.8-0.6c1.6-1.2,2.8-3.5,4.3-4.9
	c1.1-1.1,3.5-1.7,4.3-3.1c-0.4-0.4-0.4-0.5-0.6-1.2c-1.6-0.3-1.9-1.3-3.1-1.8l-2.8-0.6c-1.9-1-5.1-3.3-6.5-4.9
	c-1.2-1.4-1.3-3.3-2.5-4.9c-0.6-0.9-1.9-1.8-2.5-2.8c0-0.3,0-0.6,0-0.9c-1.1-1.5-3.4-2.3-4.3-4c-0.8-1.4-0.4-3.2-1.2-4.6
	c-0.1-0.1-0.8-0.4-0.9-0.6c-1.4-3.8-0.2-8.5,0.6-11.7c0.8-3.1,0.3-4.9,1.2-8c0.9-2.9,2.7-6.7,4-9.2c0.2-0.9,0.4-1.8,0.6-2.8l1.8-1.5
	c0.6-1,0.5-2.2,1.2-3.1c0.8-0.9,3.8-3.8,4.9-4.3c1.4-0.6,2.5-0.4,3.7-1.2c3.8-2.7,7.5-5.5,12.3-7.4c1.4-0.5,3.3-1.3,4.3-1.5
	c2.1-0.6,4.1,0.4,5.5-0.6c13.3-0.1,21.9,3,29.5,8.4c1,0.7,2.2,0.5,3.1,1.2c0.7,0.6,1.1,1.9,1.8,2.5c0.6,0.4,1.3,0.2,1.8,0.6
	c2.5,2.2,6.8,7.9,8,11.1l0.6,4.3c0.4,0.7,1.3,1.4,1.5,2.5l0,3.1c1.5,6.1,0.9,12.8-0.7,19.1c-0.4,1.8,0.4,3.8-0.3,5.2
	c-2.2,4.2-6.5,6.7-10.2,9.5c-0.4,0.3,0,0.8-0.3,1.2c-0.5,0.8-4.1,4.4-4.9,4.9c-1.3,0.8-2.6,1-4,1.8l-0.9,1.2c-1.1,0.6-3.3,0.2-4,1.2
	c0.3,0.6,0.1,0.4,0,1.2c2.5,0.5,2.9,3,4.6,4.3c3.3,2.5,8.2,3,11.7,5.2C554.2,269.6,559.8,276.2,559.3,278.3z M558.5,230.3
	c0.1-2.3,0.8-3.8,1.2-5.5c1.1-4.3-0.5-9.5-1.2-12.3c-0.6-2.5,0-4.6-0.9-6.8c-2.9-6.6-13.9-15.8-20.6-18.8c-2-0.9-4-0.5-6.2-1.2
	c-3.3-1.2-12.5-3.5-17.8-2.2c-6.6,1.7-12.8,4.8-17.9,8.3c-0.4,0.3-3.9,2.8-4,3.1c-1,1.6-0.2,2.1-2.2,2.8c0-0.6,0-1.2,0-1.8
	c0.6-0.6,0.9-0.6,0-1.2c0,0.1,0,0.2,0,0.3h-0.3c0,0.6,0.3,0.1,0,0.6c-6.4,7.2-10.7,20.3-11.8,32.9c0.4,0.2,0.8,0.3,1.2,0.3
	c0.5-0.6,0.7-0.7,1.5-0.9c0,0.2,0,0.4,0,0.6c-1,1-1.6,2.8-1.9,4.6c1.7,1.3,2.4,4.1,4,5.5c1,0.9,2.9,1,3.7,2.2
	c1.6,2.4,1.7,5.7,3.7,7.7c1.8,1.8,4.4,1.9,6.8,3.1c3.8,1.9,7.3,4.8,12,5.9c0-1.2-0.1-1.4,0.6-1.8c1.6,1.8,6.4,4.6,11.1,3.1
	c3.5-1.2,5-4.5,9.9-4.9c0,0.2,0,0.4,0,0.6c-1,0.9-2,1.6-2.5,3.1l1.8,0c4.3-2.6,11.4-3.1,15.7-7c1.8-1.7,4.3-7.6,6.2-8
	c0.5,0.5,0.6,0.5,1.5,0.6c1.4-1.9,4.3-3,4.6-5.8c1.4-2.2-0.8-5.1-0.9-7.4h0.6C557.2,230.2,557.4,230.2,558.5,230.3z M513,187.8
	c0,0.4,0,0.8,0,1.2c-2.8,0.2-4.3,1.2-7.4,1.2c0-0.2,0-0.4,0-0.6c0.6-0.5,0.4-0.6,1.2-0.9C508.1,187.6,510.7,187.7,513,187.8z
	 M529.7,192.1c2.6,0.1,6.1,1.1,6.8,3.1h-0.6C533.9,193.9,530.3,194.6,529.7,192.1L529.7,192.1z M498.2,203.7
	c0.8,0.4,0.2-0.1,0.6,0.6h-0.3c-0.8,1.9-3.5,3.8-4.9,5.2c-3.3,3.3-7.8,10.8-12.6,12l0-1.2c4.4-4.2,7.5-9.8,12-13.8
	C494.5,205.2,496.6,204.9,498.2,203.7z M481,225.8c0.1-0.6,0.1-0.6,0.3-0.9c1.2-2.7,4.7-4.7,6.8-6.8c5.3-5.3,12.5-16.3,23.7-14.1
	c0,0.4,0,0.8,0,1.2h-0.6c-1,0.6-3.1,0.2-4.3,0.6c-2.4,0.8-4.8,2.3-6.8,3.7c-1.6,1.1-2.7,2.9-4,4.3c-2,1.9-4.2,3.6-6.2,5.5
	c-0.3,0.3-0.3,1-0.6,1.2c-0.9,0.8-2.2,1-3.1,1.8C484.5,224,484,225.6,481,225.8z M522.2,203.8c9.6-0.1,14.7,4.8,19.4,9.6
	c2.2,2.2,4.7,3.1,4.6,7.7h-0.6c-4.4-4.7-9-10.5-15.4-13.2c-2.5-1.1-6.2-1.2-8.6-1.9c-0.2-0.5-0.3-1-0.3-1.5
	C521.7,204.2,522,204,522.2,203.8L522.2,203.8z M548.1,213c1.7,0.6,3.2,3.2,3.7,4.9h-0.6c-0.4-0.3-0.8-0.5-1.2-0.6
	C549.3,215.9,548.7,214.6,548.1,213z M516.7,216.7l11.7,0c8.7,2.2,11.6,6.1,16.9,11.4c1.6,1.6,5.3,3.1,6.1,5.2c0.5,0.7,0.5,3,0,3.7
	c-1.2,3.5-4.3,2.7-7.7,4c-1.4,0.5-2.9,1.6-4.3,2.5c-0.8,0.5-1.7,1.6-2.5,2.1c-3.7,2.4-9.7,4.8-14.2,6.1c-5.1,1.6-19.4-1.3-22.2-3.7
	l0-0.9l-1.2,0.3c-1.3-0.4-3.7-1.6-4.9-2.5c-4.6-3-8.5-6.7-12.3-10.5c0-0.6,0-1.2,0-1.8c1.3-1.2,2.3-2.6,4-3.4c1.4-0.7,3-0.4,4.3-1.2
	c0.4-0.3,0-0.9,0.3-1.2c0.5-0.5,1.2-0.2,1.8-0.6c3-1.8,6.4-4.8,9.9-6.1c1.7-0.6,3.2-0.4,4.9-0.9c1.7-0.5,3.8-1.4,5.5-1.8
	C514.5,216.9,515.7,217.4,516.7,216.7z M519.8,221l0,0.9c1.5,0.9,3.9,2.7,4.3,4.6c0.7,3.1-6.9,9.9-11.1,7.1
	c-1.9-0.6-2.5-2.2-3.7-3.4c-0.1-3.1,0.5-4,1.9-5.5c1.4,0.4,1.6,1.1,3.4,1.2c0.2-0.5,0.6-0.9,0.9-1.2c-0.2-1-0.4-2.1-0.6-3.1
	c-0.5-0.2-0.3-0.1-0.6-0.3l-4.9,0.6c-2.6,3.8-3.9,3.5-3.4,10.1c1.6,1.1,2.9,3.2,4.6,4c5.2,2.5,14.5-1,16.3-4.6
	c1.2-2.3,0.9-5.7,0.6-8.6c-1.9-1.4-1.6-2.5-5.2-2.5C521.6,220.8,520.8,220.9,519.8,221z M531.4,222.2c0.2,9.3-1.7,13.5-7.7,16.3
	c-11,5.2-23.7-2.1-21.2-13.3l-1.2,0c-1.1,0.8-2.5,0.8-3.7,1.5l-0.9,1.2l-5.5,2.8c0.2,1.1-0.2,3.6,0.3,4.9c0.2,0.6,1.2,1.3,1.5,1.8
	c2.5,3.9,2,3.1,6.1,5.2c3.2,1.7,6.7,3.7,10.8,4.6l5.5,0c8.7,0,13.4-1.6,18.5-4.9c3.8-2.5,8-4.6,8-10.7c0-1,0.1-2.2-0.3-2.8
	C540.5,225.8,535.5,222.5,531.4,222.2L531.4,222.2z M543.7,232.1c0,2.1-0.3,3.4-0.6,4.9l1.2,0c0.8-0.6,2.6-0.7,3.7-0.9
	c0.3-0.5,0.5-1,0.6-1.5C546,234.3,546.1,232.5,543.7,232.1z M488.9,236.3l0-3.1c-0.5-0.2-0.3-0.1-0.6-0.3c-0.5,0.2-0.3,0.1-0.6,0.3
	c-1.3,0.3-1.5,0.6-1.9,1.8C487.6,235.3,487.4,236,488.9,236.3L488.9,236.3z M532,259.1c-3.4,0-5,0.6-8.3,0.6
	c-0.7,1.1-1.4,1.1-1.5,2.8c1.5,1.3,2.6,5.8,4,6.5c0.3,0.2,0.3,0.2,0.9,0.3C528.5,266.6,531.8,262.4,532,259.1z M511.1,260.9
	c-3.8,0-5.3-1.2-8.9-1.2c-0.4,1.1-0.3,3-0.3,4.6c1.5,1.4,1.6,4.4,4,4.9c0.5-0.2,0,0,0.9,0c0.2-2.9,2.4-5.6,4.3-6.8
	C511.1,262,511.1,261.4,511.1,260.9L511.1,260.9z M533.8,260.4c-0.1,2.4-1.4,3.3-2.2,4.9s-0.5,3.1-1.2,4.6c-0.8,1.6-2.3,3.2-3.1,4.6
	c-0.7,1.3-0.6,2.2-1.2,3.7c-0.5,1.3-1.9,2.5-2.5,3.7c-1.9,4.2-2.5,8.4-4,12.9c-1.2,3.4-2.9,9.3-2.2,13.5c0.6,0.3,0.6,0.4,1.5,0.6
	c3.1-6.5,7.4-11.9,11.4-17.5c1.9-2.7,5.1-4.8,5.6-8.9c-3.4-2.6-3.2-8.3,0.6-10.1c1.7-0.8,3.5,0.1,4.6-1.2c0.2-0.2,0.4-0.7,0.6-0.9
	C541,265.7,538.1,261.4,533.8,260.4L533.8,260.4z M497.5,262.8c-3.1,3.2-7,5.9-7.4,11.7c2,1.8,4.7,2.5,7.1,4
	c-0.9,2.6-4.2,5.4-4.3,8.9c0.9,0.7,1.1,1.9,1.8,2.8c0.9,0.9,2.2,1.5,3.1,2.5c1.3,1.4,1.8,3.5,3.1,4.9c1.4,1.6,3.5,2.7,4.9,4.3
	c0.9,1,1.1,2.3,1.8,3.4c1.1,1.6,2.6,3,3.7,4.6h0.6c0.2-0.3,0.4-0.5,0.6-0.6c-0.4-1.3,0.1-3.6-0.3-5.2c-0.7-2.6-2.4-5.9-3.4-8.6
	c-0.3-1.8-0.6-3.7-0.9-5.5c-1.3-4.6-2.7-10.4-4.6-14.5l-0.6-3.4c-0.9-2-2.8-4.3-4-6.2C498.2,264.9,498.5,263.4,497.5,262.8z
	 M511,284.3c0-3,2.5-5.7,1.9-7.4c-1.3-1.9-3.3-0.1-3.4-3.7c1.1-1.1,1.6-2.6,1.5-4.9c-0.6,0.1-0.6,0.1-0.9,0.3
	c-4.3,5.3-1.4,9.3,0,15.7L511,284.3z M522.4,270.8c-0.1,4.5-2.4,3.9-3.4,6.1c0,1.6,0,3.3,0,4.9h0.6c0-0.1,0-0.2,0-0.3
	c2.4-0.9,4.1-6.1,4-9.8C523.1,271.3,523.1,271.1,522.4,270.8L522.4,270.8z"/>
</svg>
